<?xml version="1.0" encoding="utf-8"?>
<!-- Generator: Adobe Illustrator 19.0.0, SVG Export Plug-In . SVG Version: 6.00 Build 0)  -->
<svg version="1.1" id="content" xmlns="http://www.w3.org/2000/svg" xmlns:xlink="http://www.w3.org/1999/xlink" x="0px" y="0px"
	 viewBox="0 0 783 450" style="enable-background:new 0 0 783 450;" xml:space="preserve">
<style type="text/css">
	.st0{fill:url(#XMLID_128_);}
	.st1{fill:url(#XMLID_129_);}
	.st2{fill:url(#XMLID_130_);}
	.st3{opacity:0.9;}
	.st4{opacity:0;fill:#FFFFFF;}
	.st5{opacity:2.380952e-002;fill:#F5F4F5;}
	.st6{opacity:4.761905e-002;fill:#EBEAEB;}
	.st7{opacity:7.142857e-002;fill:#E0DFE0;}
	.st8{opacity:9.523810e-002;fill:#D6D4D6;}
	.st9{opacity:0.119;fill:#CCC9CC;}
	.st10{opacity:0.1429;fill:#C2BFC2;}
	.st11{opacity:0.1667;fill:#B7B4B7;}
	.st12{opacity:0.1905;fill:#ADA9AD;}
	.st13{opacity:0.2143;fill:#A39FA3;}
	.st14{opacity:0.2381;fill:#999499;}
	.st15{opacity:0.2619;fill:#8E898E;}
	.st16{opacity:0.2857;fill:#847E84;}
	.st17{opacity:0.3095;fill:#7A747A;}
	.st18{opacity:0.3333;fill:#706970;}
	.st19{opacity:0.3571;fill:#655E65;}
	.st20{opacity:0.381;fill:#5B545B;}
	.st21{opacity:0.4048;fill:#514951;}
	.st22{opacity:0.4286;fill:#473E47;}
	.st23{opacity:0.4524;fill:#3C333C;}
	.st24{opacity:0.4762;fill:#322932;}
	.st25{opacity:0.5;fill:#281E28;}
	.st26{fill:#695D7F;}
	.st27{filter:url(#Adobe_OpacityMaskFilter);}
	.st28{filter:url(#Adobe_OpacityMaskFilter_1_);}
	.st29{mask:url(#XMLID_131_);fill:url(#XMLID_132_);}
	.st30{opacity:0.4;fill:url(#XMLID_133_);}
	.st31{filter:url(#Adobe_OpacityMaskFilter_2_);}
	.st32{filter:url(#Adobe_OpacityMaskFilter_3_);}
	.st33{mask:url(#XMLID_134_);fill:url(#XMLID_135_);}
	.st34{opacity:0.5;fill:url(#XMLID_136_);}
	.st35{fill:#292038;}
	.st36{fill:url(#XMLID_137_);}
	.st37{fill:url(#XMLID_138_);}
	.st38{fill:#1E182B;}
	.st39{fill:url(#XMLID_139_);}
	.st40{fill:url(#XMLID_140_);}
	.st41{fill:url(#XMLID_141_);}
	.st42{fill:#FFFFFF;}
	.st43{fill:url(#XMLID_142_);}
	.st44{fill:url(#XMLID_143_);}
	.st45{fill:url(#XMLID_144_);}
	.st46{fill:url(#XMLID_145_);}
	.st47{fill:url(#XMLID_146_);}
	.st48{fill:url(#XMLID_147_);}
	.st49{fill:url(#XMLID_148_);}
	.st50{fill:url(#XMLID_149_);}
	.st51{fill:url(#XMLID_150_);}
	.st52{fill:url(#XMLID_151_);}
	.st53{fill:url(#XMLID_152_);}
	.st54{fill:url(#XMLID_153_);}
	.st55{fill:url(#XMLID_154_);}
	.st56{fill:url(#XMLID_155_);}
	.st57{fill:url(#XMLID_156_);}
	.st58{fill:url(#XMLID_157_);}
	.st59{fill:url(#XMLID_158_);}
	.st60{filter:url(#Adobe_OpacityMaskFilter_4_);}
	.st61{filter:url(#Adobe_OpacityMaskFilter_5_);}
	.st62{mask:url(#XMLID_159_);fill:url(#XMLID_160_);}
	.st63{fill:url(#XMLID_161_);}
	.st64{fill:url(#XMLID_162_);}
	.st65{fill:url(#XMLID_163_);}
	.st66{fill:url(#XMLID_164_);}
	.st67{fill:url(#XMLID_165_);}
	.st68{fill:url(#XMLID_166_);}
	.st69{fill:url(#XMLID_167_);}
	.st70{fill:url(#XMLID_168_);}
	.st71{fill:url(#XMLID_169_);}
	.st72{fill:url(#XMLID_170_);}
	.st73{fill:url(#XMLID_171_);}
	.st74{fill:url(#XMLID_172_);}
	.st75{opacity:0.4;}
	.st76{opacity:4.761905e-002;fill:#F5F4F5;}
	.st77{opacity:9.523810e-002;fill:#EBEAEB;}
	.st78{opacity:0.1429;fill:#E0DFE0;}
	.st79{opacity:0.1905;fill:#D6D4D6;}
	.st80{opacity:0.2381;fill:#CCC9CC;}
	.st81{opacity:0.2857;fill:#C2BFC2;}
	.st82{opacity:0.3333;fill:#B7B4B7;}
	.st83{opacity:0.381;fill:#ADA9AD;}
	.st84{opacity:0.4286;fill:#A39FA3;}
	.st85{opacity:0.4762;fill:#999499;}
	.st86{opacity:0.5238;fill:#8E898E;}
	.st87{opacity:0.5714;fill:#847E84;}
	.st88{opacity:0.619;fill:#7A747A;}
	.st89{opacity:0.6667;fill:#706970;}
	.st90{opacity:0.7143;fill:#655E65;}
	.st91{opacity:0.7619;fill:#5B545B;}
	.st92{opacity:0.8095;fill:#514951;}
	.st93{opacity:0.8571;fill:#473E47;}
	.st94{opacity:0.9048;fill:#3C333C;}
	.st95{opacity:0.9524;fill:#322932;}
	.st96{fill:#281E28;}
	.st97{fill:url(#XMLID_173_);}
	.st98{fill:url(#XMLID_174_);}
	.st99{fill:url(#XMLID_175_);}
	.st100{fill:url(#XMLID_176_);}
	.st101{fill:url(#XMLID_177_);}
	.st102{fill:url(#XMLID_178_);}
	.st103{fill:url(#XMLID_179_);}
	.st104{fill:url(#XMLID_180_);}
	.st105{fill:url(#XMLID_181_);}
	.st106{fill:url(#XMLID_182_);}
	.st107{fill:url(#XMLID_183_);}
	.st108{fill:url(#XMLID_184_);}
	.st109{fill:url(#XMLID_185_);}
	.st110{fill:url(#XMLID_186_);}
	.st111{fill:url(#XMLID_187_);}
	.st112{fill:url(#XMLID_188_);}
</style>
<g id="_x39_">
	<linearGradient id="XMLID_128_" gradientUnits="userSpaceOnUse" x1="51.8275" y1="253.834" x2="527.3162" y2="253.834">
		<stop  offset="0" style="stop-color:#ED3293"/>
		<stop  offset="1" style="stop-color:#E41600"/>
	</linearGradient>
	<polygon id="XMLID_434_" class="st0" points="51.8,231.1 236.6,337.8 527.3,169.9 426.3,173.6 413.3,195.9 314.5,173.3 
		215.9,183.1 287.5,244.3 210.6,233.2 142.9,245.6 	"/>
	<linearGradient id="XMLID_129_" gradientUnits="userSpaceOnUse" x1="160.2691" y1="253.834" x2="527.3162" y2="253.834">
		<stop  offset="1.100000e-007" style="stop-color:#3FECFF"/>
		<stop  offset="1" style="stop-color:#0089FF"/>
	</linearGradient>
	<polygon id="XMLID_435_" class="st1" points="236.6,337.8 160.3,293.7 183.8,261.6 245.7,273.1 208.8,208.2 280.6,216.5 
		377.1,229.2 362.3,197.2 434.4,203.6 527.3,169.9 	"/>
	<linearGradient id="XMLID_130_" gradientUnits="userSpaceOnUse" x1="132.8415" y1="253.834" x2="486.7949" y2="253.834">
		<stop  offset="0" style="stop-color:#FFE44F"/>
		<stop  offset="1" style="stop-color:#FF4700"/>
	</linearGradient>
	<polygon id="XMLID_433_" class="st2" points="236.6,337.8 173.4,301.3 268.8,303.4 281.6,258.8 315,245.1 293.7,192.5 409.7,222 
		527.3,169.9 	"/>
</g>
<g id="_x38_">
	<g id="XMLID_244_">
		<g id="XMLID_278_" class="st3">
			<path id="XMLID_106_" class="st4" d="M193.6,329.3l296.3-170.1c9-5.2,20-5.6,29.2-0.9l147.2,85.4c7.6,5.5,9.1,16.6,0.7,21.5
				L372,434.9c-8.8,5.1-19.6,5.5-28.8,0.9L196,350.5C185.5,344.2,186.1,334.4,193.6,329.3z"/>
			<path id="XMLID_126_" class="st5" d="M195.4,329.3L490.2,160c8.9-5.2,19.8-5.5,29-0.9l145.8,84.6c7.5,5.5,9,16.5,0.7,21.3
				L372.1,433.8c-8.7,5.1-19.4,5.4-28.5,0.9l-145.8-84.5C187.4,344,188,334.3,195.4,329.3z"/>
			<path id="XMLID_125_" class="st6" d="M197.2,329.2l293.2-168.4c8.8-5.1,19.6-5.4,28.7-0.9l144.4,83.8c7.5,5.4,8.9,16.3,0.7,21.1
				l-292,167.9c-8.7,5-19.3,5.4-28.2,0.9L199.6,350C189.2,343.8,189.8,334.2,197.2,329.2z"/>
			<path id="XMLID_124_" class="st7" d="M199,329.2l291.7-167.5c8.7-5.1,19.4-5.4,28.4-0.9l143,83c7.4,5.4,8.8,16.2,0.7,20.9
				l-290.5,167c-8.6,5-19.1,5.3-27.9,0.9l-143-82.8C191.1,343.6,191.7,334.1,199,329.2z"/>
			<path id="XMLID_123_" class="st8" d="M200.8,329.1l290.2-166.7c8.6-5,19.2-5.3,28.1-0.9l141.6,82.1c7.3,5.3,8.7,16,0.6,20.7
				l-289,166.2c-8.5,4.9-18.9,5.3-27.7,0.9l-141.5-82C192.9,343.4,193.5,334,200.8,329.1z"/>
			<path id="XMLID_122_" class="st9" d="M202.5,329.1l288.6-165.8c8.5-5,19-5.3,27.8-0.9l140.2,81.3c7.2,5.3,8.6,15.8,0.6,20.5
				L372.4,429.5c-8.4,4.9-18.7,5.2-27.4,0.9l-140.1-81.2C194.8,343.2,195.4,333.8,202.5,329.1z"/>
			<path id="XMLID_121_" class="st10" d="M204.3,329l287.1-165c8.5-4.9,18.8-5.2,27.6-0.8l138.7,80.5c7.2,5.2,8.6,15.7,0.6,20.3
				L372.4,428.4c-8.3,4.8-18.5,5.2-27.1,0.9l-138.7-80.4C196.7,343,197.2,333.7,204.3,329z"/>
			<path id="XMLID_120_" class="st11" d="M206.1,328.9l285.6-164.1c8.4-4.9,18.6-5.2,27.3-0.8l137.3,79.7c7.1,5.2,8.5,15.5,0.6,20.1
				L372.5,427.4c-8.2,4.8-18.3,5.1-26.8,0.9l-137.3-79.5C198.5,342.8,199.1,333.6,206.1,328.9z"/>
			<path id="XMLID_119_" class="st12" d="M207.9,328.9l284-163.3c8.3-4.8,18.4-5.1,27-0.8l135.9,78.9c7,5.1,8.4,15.4,0.6,19.9
				L372.6,426.3c-8.1,4.7-18.1,5.1-26.5,0.8l-135.9-78.7C200.4,342.6,201,333.5,207.9,328.9z"/>
			<path id="XMLID_118_" class="st13" d="M209.7,328.8l282.5-162.4c8.2-4.8,18.2-5.1,26.7-0.8l134.5,78c6.9,5.1,8.3,15.2,0.6,19.7
				L372.6,425.2c-8.1,4.7-17.9,5-26.3,0.8l-134.5-77.9C202.3,342.4,202.8,333.4,209.7,328.8z"/>
			<path id="XMLID_117_" class="st14" d="M211.5,328.8l281-161.6c8.1-4.7,18-5,26.4-0.8l133.1,77.2c6.9,5,8.2,15,0.6,19.5
				L372.7,424.2c-8,4.6-17.7,4.9-26,0.8l-133-77.1C204.1,342.2,204.7,333.3,211.5,328.8z"/>
			<path id="XMLID_116_" class="st15" d="M213.3,328.7L492.7,168c8-4.7,17.9-5,26.1-0.8l131.6,76.4c6.8,5,8.1,14.9,0.6,19.2
				L372.8,423.1c-7.9,4.6-17.6,4.9-25.7,0.8l-131.6-76.3C206,342,206.5,333.2,213.3,328.7z"/>
			<path id="XMLID_115_" class="st16" d="M215,328.7L493,168.8c7.9-4.6,17.7-4.9,25.9-0.8L649,243.6c6.7,4.9,8,14.7,0.6,19
				L372.8,422c-7.8,4.5-17.4,4.8-25.4,0.8l-130.2-75.4C207.9,341.8,208.4,333.1,215,328.7z"/>
			<path id="XMLID_114_" class="st17" d="M216.8,328.6l276.4-159c7.8-4.6,17.5-4.9,25.6-0.8l128.8,74.7c6.7,4.9,7.9,14.6,0.6,18.8
				L372.9,420.9c-7.7,4.5-17.2,4.8-25.2,0.8L219,347.1C209.7,341.6,210.3,333,216.8,328.6z"/>
			<path id="XMLID_113_" class="st18" d="M218.6,328.5l274.9-158.2c7.8-4.5,17.3-4.8,25.3-0.8l127.4,73.9c6.6,4.8,7.9,14.4,0.6,18.6
				L373,419.9c-7.6,4.4-17,4.7-24.9,0.8l-127.4-73.8C211.6,341.4,212.1,332.9,218.6,328.5z"/>
			<path id="XMLID_112_" class="st19" d="M220.4,328.5l273.3-157.3c7.7-4.5,17.1-4.7,25-0.8l126,73.1c6.5,4.7,7.8,14.2,0.6,18.4
				L373,418.8c-7.5,4.4-16.8,4.7-24.6,0.8l-125.9-73C213.4,341.2,214,332.8,220.4,328.5z"/>
			<path id="XMLID_111_" class="st20" d="M222.2,328.4L494,172c7.6-4.4,16.9-4.7,24.7-0.8l124.5,72.3c6.4,4.7,7.7,14.1,0.6,18.2
				l-270.7,156c-7.5,4.3-16.6,4.6-24.3,0.8l-124.5-72.1C215.3,341,215.8,332.7,222.2,328.4z"/>
			<path id="XMLID_110_" class="st21" d="M224,328.4l270.3-155.6c7.5-4.4,16.7-4.6,24.5-0.8l123.1,71.4c6.4,4.6,7.6,13.9,0.6,18
				L373.2,416.6c-7.4,4.3-16.4,4.6-24.1,0.8L226,346.1C217.2,340.8,217.7,332.6,224,328.4z"/>
			<path id="XMLID_109_" class="st22" d="M225.8,328.3l268.7-154.7c7.4-4.3,16.5-4.6,24.2-0.7l121.7,70.6c6.3,4.6,7.5,13.8,0.6,17.8
				L373.2,415.6c-7.3,4.2-16.2,4.5-23.8,0.8l-121.7-70.5C219,340.6,219.5,332.5,225.8,328.3z"/>
			<path id="XMLID_108_" class="st23" d="M227.5,328.3l267.2-153.9c7.3-4.3,16.3-4.5,23.9-0.7l120.3,69.8c6.2,4.5,7.4,13.6,0.5,17.6
				L373.3,414.5c-7.2,4.2-16,4.5-23.5,0.7l-120.3-69.7C220.9,340.4,221.4,332.4,227.5,328.3z"/>
			<path id="XMLID_107_" class="st24" d="M229.3,328.2l265.7-153c7.2-4.2,16.1-4.5,23.6-0.7l118.9,69c6.1,4.5,7.3,13.4,0.5,17.4
				L373.4,413.4c-7.1,4.1-15.9,4.4-23.2,0.7l-118.9-68.9C222.8,340.2,223.3,332.3,229.3,328.2z"/>
			<path id="XMLID_105_" class="st25" d="M231.1,328.1L495.3,176c7.2-4.2,15.9-4.4,23.3-0.7L636,243.4c6.1,4.4,7.2,13.3,0.5,17.2
				L373.4,412.3c-7,4.1-15.7,4.4-22.9,0.7l-117.4-68C224.6,340,225.1,332.2,231.1,328.1z"/>
		</g>
		<g id="XMLID_263_">
			<path id="XMLID_277_" class="st26" d="M638.8,232.1c0,0-8.8-1-7,9l-112.9-65.5c-7.4-3.7-16.2-3.4-23.3,0.7L250.6,317.3
				c-9.9-4.5-19-6-23.1,0.6c-7.4,12.1-2.4,18.7,1.8,22.7c1,1.1,2.2,2.1,3.8,3c0.1,0.1,0.2,0.1,0.2,0.1l117.4,68
				c7.3,3.6,15.9,3.4,22.9-0.7l263.1-151.8C636.7,259.4,654.1,248.8,638.8,232.1z"/>
			<defs>
				<filter id="Adobe_OpacityMaskFilter" filterUnits="userSpaceOnUse" x="223.6" y="172.9" width="421.5" height="241.5">
					<feFlood  style="flood-color:white;flood-opacity:1" result="back"/>
					<feBlend  in="SourceGraphic" in2="back" mode="normal"/>
				</filter>
			</defs>
			<mask maskUnits="userSpaceOnUse" x="223.6" y="172.9" width="421.5" height="241.5" id="XMLID_131_">
				<g id="XMLID_272_" class="st27">
					<defs>
						<filter id="Adobe_OpacityMaskFilter_1_" filterUnits="userSpaceOnUse" x="169.7" y="141.7" width="476.8" height="272.7">
							<feFlood  style="flood-color:white;flood-opacity:1" result="back"/>
							<feBlend  in="SourceGraphic" in2="back" mode="normal"/>
						</filter>
					</defs>
					<mask maskUnits="userSpaceOnUse" x="169.7" y="141.7" width="476.8" height="272.7" id="XMLID_131_">
						<g id="XMLID_274_" class="st28">
						</g>
					</mask>
					<linearGradient id="XMLID_132_" gradientUnits="userSpaceOnUse" x1="458.9339" y1="361.7355" x2="452.9616" y2="351.1962">
						<stop  offset="0" style="stop-color:#FFFFFF"/>
						<stop  offset="1" style="stop-color:#000000"/>
					</linearGradient>
					<path id="XMLID_273_" class="st29" d="M639.3,232c-9.1-9.2-9.4-1-7.6,9l-166.9-96.7c-7.4-3.7-16.2-3.4-23.3,0.7L196.6,286.1
						c-9.9-4.5-19-6-23.1,0.6c-7.4,12.1-2.4,18.7,1.8,22.7c1,1.1,2.2,2.1,3.8,3c0.1,0.1,0.2,0.1,0.2,0.1l171.4,99.2
						c7.3,3.6,15.9,3.4,22.9-0.7l263.1-151.8C636.7,259.4,656.8,249.7,639.3,232z"/>
				</g>
			</mask>
			<linearGradient id="XMLID_133_" gradientUnits="userSpaceOnUse" x1="472.3783" y1="354.3845" x2="467.9489" y2="346.5678">
				<stop  offset="1.100000e-007" style="stop-color:#150020"/>
				<stop  offset="1" style="stop-color:#C0ABFF"/>
			</linearGradient>
			<path id="XMLID_271_" class="st30" d="M638.7,232.1c0,0-8.8-1-7,9l-112.9-65.5c-7.4-3.7-16.2-3.4-23.3,0.7L250.5,317.3
				c-9.9-4.5-19-6-23.1,0.6c-7.4,12.1-2.4,18.7,1.8,22.7c1,1.1,2.2,2.1,3.8,3c0.1,0.1,0.2,0.1,0.2,0.1l117.4,68
				c7.3,3.6,15.9,3.4,22.9-0.7l263.1-151.8C636.7,259.4,654.2,249.3,638.7,232.1z"/>
			<defs>
				<filter id="Adobe_OpacityMaskFilter_2_" filterUnits="userSpaceOnUse" x="223.7" y="172.9" width="421.4" height="241.5">
					<feFlood  style="flood-color:white;flood-opacity:1" result="back"/>
					<feBlend  in="SourceGraphic" in2="back" mode="normal"/>
				</filter>
			</defs>
			<mask maskUnits="userSpaceOnUse" x="223.7" y="172.9" width="421.4" height="241.5" id="XMLID_134_">
				<g id="XMLID_268_" class="st31">
					<defs>
						<filter id="Adobe_OpacityMaskFilter_3_" filterUnits="userSpaceOnUse" x="169.8" y="141.7" width="476.8" height="272.7">
							<feFlood  style="flood-color:white;flood-opacity:1" result="back"/>
							<feBlend  in="SourceGraphic" in2="back" mode="normal"/>
						</filter>
					</defs>
					<mask maskUnits="userSpaceOnUse" x="169.8" y="141.7" width="476.8" height="272.7" id="XMLID_134_">
						<g id="XMLID_270_" class="st32">
						</g>
					</mask>
					<linearGradient id="XMLID_135_" gradientUnits="userSpaceOnUse" x1="331.7277" y1="402.6252" x2="339.0208" y2="390.0811">
						<stop  offset="0" style="stop-color:#FFFFFF"/>
						<stop  offset="1" style="stop-color:#000000"/>
					</linearGradient>
					<path id="XMLID_269_" class="st33" d="M639.4,232c-9.1-9.2-9.4-1-7.6,9l-166.9-96.7c-7.4-3.7-16.2-3.4-23.3,0.7L196.7,286.1
						c-9.9-4.5-19-6-23.1,0.6c-7.4,12.1-2.4,18.7,1.8,22.7c1,1.1,2.2,2.1,3.8,3c0.1,0.1,0.2,0.1,0.2,0.1l171.4,99.2
						c7.3,3.6,15.9,3.4,22.9-0.7l263.1-151.8C636.8,259.4,656.8,249.7,639.4,232z"/>
				</g>
			</mask>
			<linearGradient id="XMLID_136_" gradientUnits="userSpaceOnUse" x1="358.2545" y1="417.8879" x2="365.5164" y2="405.3974">
				<stop  offset="1.100000e-007" style="stop-color:#150020"/>
				<stop  offset="1" style="stop-color:#C0ABFF"/>
			</linearGradient>
			<path id="XMLID_265_" class="st34" d="M638.8,232.1c0,0-8.8-1-7,9l-112.9-65.5c-7.4-3.7-16.2-3.4-23.3,0.7L250.6,317.3
				c-9.9-4.5-19-6-23.1,0.6c-7.4,12.1-2.4,18.7,1.8,22.7c1,1.1,2.2,2.1,3.8,3c0.1,0.1,0.2,0.1,0.2,0.1l117.4,68
				c7.3,3.6,15.9,3.4,22.9-0.7l263.1-151.8C636.8,259.4,653.9,249,638.8,232.1z"/>
			<path id="XMLID_264_" class="st35" d="M231.2,314.2L495.3,162c7.2-4.2,15.9-4.4,23.3-0.7l117.5,68.2c6.1,4.4,7.2,13.3,0.5,17.2
				L373.5,398.4c-7,4.1-15.7,4.4-22.9,0.7l-117.4-68C224.7,326.1,225.2,318.2,231.2,314.2z"/>
		</g>
		<g id="XMLID_260_">
			<linearGradient id="XMLID_137_" gradientUnits="userSpaceOnUse" x1="321.4511" y1="374.1577" x2="279.8644" y2="346.0629">
				<stop  offset="0" style="stop-color:#9C74FF"/>
				<stop  offset="1" style="stop-color:#FFF6FF"/>
			</linearGradient>
			<path id="XMLID_262_" class="st36" d="M281,348.8l-0.1-0.1c-0.8-0.4-0.7-1.2,0.2-1.7l0,0c0.9-0.5,2.2-0.6,2.9-0.1l0.1,0.1
				c0.8,0.4,0.7,1.2-0.2,1.7h0C283.1,349.2,281.8,349.2,281,348.8z"/>
			<linearGradient id="XMLID_138_" gradientUnits="userSpaceOnUse" x1="329.574" y1="377.8553" x2="287.9877" y2="349.7607">
				<stop  offset="0" style="stop-color:#9C74FF"/>
				<stop  offset="1" style="stop-color:#FFF6FF"/>
			</linearGradient>
			<path id="XMLID_261_" class="st37" d="M311.4,366.2l-26.1-15c-0.8-0.4-0.7-1.2,0.2-1.7l0,0c0.9-0.5,2.2-0.6,2.9-0.1l26.1,15
				c0.8,0.4,0.7,1.2-0.2,1.7l0,0C313.5,366.6,312.1,366.6,311.4,366.2z"/>
		</g>
		<g id="XMLID_246_">
			<g id="XMLID_255_">
				<path id="XMLID_259_" class="st38" d="M430.7,368.8c-0.4-0.1-0.8-0.1-1.2,0.1l0,0l-13,7.6l0,0c-0.6,0.3-1.1,1-1.4,1.9
					c-0.4,1.4,0.1,2.9,1.2,3.2c0.4,0.1,0.8,0.1,1.2-0.1l0,0l0,0c0,0,0.1,0,0.1-0.1l12.7-7.4l0,0c0.7-0.3,1.3-1,1.5-1.9
					C432.3,370.5,431.7,369.1,430.7,368.8z"/>
				
					<linearGradient id="XMLID_139_" gradientUnits="userSpaceOnUse" x1="440.4797" y1="388.6207" x2="423.9945" y2="373.5039" gradientTransform="matrix(0.9999 1.420000e-002 -1.420000e-002 0.9999 3.3266 -6.076)">
					<stop  offset="0" style="stop-color:#9C74FF"/>
					<stop  offset="1" style="stop-color:#FFF6FF"/>
				</linearGradient>
				<path id="XMLID_256_" class="st39" d="M432,369.7c-0.4-0.1-0.8-0.1-1.2,0.1l0,0l-13,7.6l0,0c-0.6,0.3-1.1,1-1.4,1.9
					c-0.4,1.4,0.1,2.9,1.2,3.2c0.4,0.1,0.8,0.1,1.2-0.1l0,0l0,0c0,0,0.1,0,0.1-0.1l12.7-7.4l0,0c0.7-0.3,1.3-1,1.5-1.9
					C433.6,371.4,433,370,432,369.7z"/>
			</g>
			<g id="XMLID_252_">
				<path id="XMLID_254_" class="st38" d="M450.7,357.4c-0.4-0.1-0.8-0.1-1.2,0.1l0,0l-13,7.6l0,0c-0.6,0.3-1.1,1-1.4,1.9
					c-0.4,1.4,0.1,2.9,1.2,3.2c0.4,0.1,0.8,0.1,1.2-0.1l0,0l0,0c0,0,0.1,0,0.1-0.1l12.7-7.4l0,0c0.7-0.3,1.3-1,1.5-1.9
					C452.3,359.1,451.8,357.7,450.7,357.4z"/>
				
					<linearGradient id="XMLID_140_" gradientUnits="userSpaceOnUse" x1="460.3383" y1="376.9516" x2="443.8531" y2="361.8348" gradientTransform="matrix(0.9999 1.420000e-002 -1.420000e-002 0.9999 3.3266 -6.076)">
					<stop  offset="0" style="stop-color:#9C74FF"/>
					<stop  offset="1" style="stop-color:#FFF6FF"/>
				</linearGradient>
				<path id="XMLID_253_" class="st40" d="M452,358.3c-0.4-0.1-0.8-0.1-1.2,0.1l0,0l-13,7.6l0,0c-0.6,0.3-1.1,1-1.4,1.9
					c-0.4,1.4,0.1,2.9,1.2,3.2c0.4,0.1,0.8,0.1,1.2-0.1l0,0l0,0c0,0,0.1,0,0.1-0.1l12.7-7.4l0,0c0.7-0.3,1.3-1,1.5-1.9
					C453.6,360,453.1,358.6,452,358.3z"/>
			</g>
			<g id="XMLID_247_">
				<path id="XMLID_251_" class="st38" d="M410.6,380.4c-0.4-0.1-0.8-0.1-1.2,0.1l0,0l-3.2,1.8l0,0c-0.6,0.3-1.1,1-1.4,1.9
					c-0.4,1.4,0.1,2.9,1.2,3.2c0.4,0.1,0.8,0.1,1.2-0.1l0,0l0,0c0,0,0.1,0,0.1-0.1l2.9-1.6l0,0c0.7-0.3,1.3-1,1.5-1.9
					C412.2,382.2,411.7,380.8,410.6,380.4z"/>
				
					<linearGradient id="XMLID_141_" gradientUnits="userSpaceOnUse" x1="420.4329" y1="393.0218" x2="410.0127" y2="383.4665" gradientTransform="matrix(0.9999 1.420000e-002 -1.420000e-002 0.9999 3.3266 -6.076)">
					<stop  offset="0" style="stop-color:#9C74FF"/>
					<stop  offset="1" style="stop-color:#FFF6FF"/>
				</linearGradient>
				<path id="XMLID_250_" class="st41" d="M411.9,381.4c-0.4-0.1-0.8-0.1-1.2,0.1l0,0l-3.2,1.8l0,0c-0.6,0.3-1.1,1-1.4,1.9
					c-0.4,1.4,0.1,2.9,1.2,3.2c0.4,0.1,0.8,0.1,1.2-0.1l0,0l0,0c0,0,0.1,0,0.1-0.1l2.9-1.6l0,0c0.7-0.3,1.3-1,1.5-1.9
					C413.5,383.1,413,381.7,411.9,381.4z"/>
			</g>
		</g>
		<path id="XMLID_245_" class="st42" d="M627.9,232l-113.7-65.5c-5.2-2.6-11.3-2.4-16.3,0.5L239,316.3c-4.2,2.8-4.5,8.3,1.4,11.8
			l23.2,13.3l3.5-2c4.1-2.4,10.4-2.7,13.9-0.6l51.3,29.5c3.6,2.1,3.1,5.7-1,8.1l-3.5,2l26.2,15.1c5.1,2.6,11.1,2.4,16.1-0.5
			l258.1-149C633,241.3,632.8,234.4,627.9,232z"/>
	</g>
</g>
<g id="_x37_">
	<g id="XMLID_3538_">
		<linearGradient id="XMLID_142_" gradientUnits="userSpaceOnUse" x1="460.1953" y1="256.8185" x2="452.571" y2="248.6921">
			<stop  offset="0" style="stop-color:#EF8C93"/>
			<stop  offset="1" style="stop-color:#F9C7D2"/>
		</linearGradient>
		<polygon id="XMLID_3544_" class="st43" points="462.3,247.6 463.6,252.9 456.3,260.5 449.4,256.8 453,248.3 456.5,245.4 		"/>
		<linearGradient id="XMLID_143_" gradientUnits="userSpaceOnUse" x1="440.3422" y1="251.2286" x2="459.9489" y2="266.7861">
			<stop  offset="0" style="stop-color:#393243"/>
			<stop  offset="1" style="stop-color:#000500"/>
		</linearGradient>
		<path id="XMLID_3543_" class="st44" d="M450.2,245.4c1.2-0.6,4.1,1.9,5.5,2.8c1.4,0.8-0.8,5.3-0.8,6.1c-0.1,0.9,1.7,0.8,3.1,0.3
			c1-0.4,2.7-0.9,4-1.2c0.9-0.3,1.5-1.2,1.2-2.1l-0.3-1.2c0,0,2.3,0.8,2.6,3.9c0.3,3.2,1.7,4.8-0.6,6c-2.3,1.2-25,7.4-26.9,7.5
			c-1.8,0.1-4.6-2.3-5.3-3.7c-0.7-1.2-1.3-2.1,0.3-3.3c1.9-1.5,8-4.8,9.8-6.4C444.8,252.4,450.2,245.4,450.2,245.4z"/>
		<linearGradient id="XMLID_144_" gradientUnits="userSpaceOnUse" x1="439.223" y1="254.4768" x2="459.0497" y2="270.2088">
			<stop  offset="0" style="stop-color:#393243"/>
			<stop  offset="1" style="stop-color:#000500"/>
		</linearGradient>
		<path id="XMLID_3542_" class="st45" d="M465.1,262.2c1.7-0.9,1.3-2.1,0.9-4.1l0,0c-0.3,1.7-2.5,2.1-4.7,2.8
			c-2.3,0.7-15.7,4.9-18.8,5.4c-2.5,0.4-5.1,1.1-7.4-0.8c-1.9-1.5-2-3.1-2-3.1c-1.6,1.2-1.3,2.5-0.7,3.7c0.9,2,4,3.6,5.8,3.6
			C441,269.7,462.8,263.3,465.1,262.2z"/>
		<linearGradient id="XMLID_145_" gradientUnits="userSpaceOnUse" x1="452.2408" y1="255.8358" x2="449.5956" y2="248.321">
			<stop  offset="0" style="stop-color:#ACACAF"/>
			<stop  offset="1" style="stop-color:#FFFFFF"/>
		</linearGradient>
		<path id="XMLID_3541_" class="st46" d="M449.7,246.1l4.3,3c0.5,0.3,0.7,1,0.4,1.5l-1.1,2.1c-0.6,1.1-2,1.5-3.1,0.9l-4.2-2.8
			L449.7,246.1z"/>
		<linearGradient id="XMLID_146_" gradientUnits="userSpaceOnUse" x1="442.7639" y1="262.5764" x2="440.4957" y2="256.1326">
			<stop  offset="0" style="stop-color:#ACACAF"/>
			<stop  offset="1" style="stop-color:#FFFFFF"/>
		</linearGradient>
		<path id="XMLID_3540_" class="st47" d="M443.7,253.3L443.7,253.3c-0.2,0.3-0.5,0.5-0.7,0.7c-1.6,1.4-6.1,4-8.7,5.6
			c0,0,1.3,2.3,2.8,2.7c1.5,0.4,9.3-2.8,10.8-4.2C449.5,256.7,443.7,253.3,443.7,253.3z"/>
		<linearGradient id="XMLID_147_" gradientUnits="userSpaceOnUse" x1="483.8042" y1="274.037" x2="438.0438" y2="256.5989">
			<stop  offset="0" style="stop-color:#ACACAF"/>
			<stop  offset="1" style="stop-color:#FFFFFF"/>
		</linearGradient>
		<path id="XMLID_3539_" class="st48" d="M465,260c1.7-0.9,1.3-2.1,0.9-4.1l0,0c-0.3,1.7-2.5,2.1-4.7,2.8
			c-2.3,0.7-15.7,4.9-18.8,5.4c-2.5,0.4-5.1,1.1-7.4-0.8c-1.9-1.5-1.8-2.8-1.8-2.8c-1.6,1.2-1.4,2.2-0.8,3.4c0.9,2,4,3.6,5.8,3.6
			C440.8,267.5,462.7,261.2,465,260z"/>
	</g>
	<g id="XMLID_3531_">
		<linearGradient id="XMLID_148_" gradientUnits="userSpaceOnUse" x1="507.3644" y1="274.136" x2="493.785" y2="259.6625">
			<stop  offset="0" style="stop-color:#EF8C93"/>
			<stop  offset="1" style="stop-color:#F9C7D2"/>
		</linearGradient>
		<polygon id="XMLID_3537_" class="st49" points="494.4,259.1 494.5,265.4 500,278.2 503.6,277.7 505.4,267.5 504.4,259.1 		"/>
		<linearGradient id="XMLID_149_" gradientUnits="userSpaceOnUse" x1="487.8335" y1="269.7245" x2="504.8766" y2="283.2478">
			<stop  offset="0" style="stop-color:#393243"/>
			<stop  offset="1" style="stop-color:#000500"/>
		</linearGradient>
		<path id="XMLID_3536_" class="st50" d="M490.6,273.3c0.5-5.8,0.6-8.4,1.7-9.1c1.1-0.7,8.4,0.1,9.4,1.1c1,1,0.3,6,0.1,6.9
			c-0.2,0.9,0.8,1.1,1.4-0.9c0.7-2.2,1.3-2.3,1-4.2c-0.2-1.6,0.8-3.2,0.8-3.2s0.5,0,1.1,1.2c0.6,1.3,0.8,3.8,0.8,5.9
			c0,3-1.4,6.3-2.6,9.7c-1.6,4.4-4.2,9.5-5.9,10.1c-2.2,0.7-8.3,1.2-10.3-1.7c-0.7-1-1-2.2-0.4-4.4
			C488.4,282.7,490.3,277.7,490.6,273.3z"/>
		<linearGradient id="XMLID_150_" gradientUnits="userSpaceOnUse" x1="493.9385" y1="277.5402" x2="504.8124" y2="286.1684">
			<stop  offset="0" style="stop-color:#393243"/>
			<stop  offset="1" style="stop-color:#000500"/>
		</linearGradient>
		<path id="XMLID_3535_" class="st51" d="M506.6,269.1c-0.3,2.4-0.7,4.3-1.7,7.9c-1,3.5-5.3,11.6-6.6,12.6c-1.3,1-6.1,1-8.6,0
			c-2.5-1-1.3-5.2-1.3-5.2c-0.3,1-0.6,1.8-0.8,2.4c-0.6,2.2-0.3,3.4,0.4,4.4c2,2.9,8.1,2.3,10.3,1.7c3.3-1,5-5.6,6.6-10
			c1.2-3.4,3-6.7,3-9.8C508,271.8,507.2,270.1,506.6,269.1z"/>
		<linearGradient id="XMLID_151_" gradientUnits="userSpaceOnUse" x1="498.3964" y1="275.6939" x2="495.8974" y2="268.5943">
			<stop  offset="0" style="stop-color:#ACACAF"/>
			<stop  offset="1" style="stop-color:#FFFFFF"/>
		</linearGradient>
		<path id="XMLID_3534_" class="st52" d="M492.9,268.1l-0.2,2.8c-0.1,0.9,0.6,1.8,1.6,1.8l3.7,0.3c1,0.1,1.8-0.7,1.9-1.6l0.1-2.9
			c0-0.9-0.7-1.7-1.6-1.8l-3.6-0.2C493.8,266.4,493,267.2,492.9,268.1z"/>
		<linearGradient id="XMLID_152_" gradientUnits="userSpaceOnUse" x1="496.8757" y1="287.4709" x2="493.5347" y2="277.9794">
			<stop  offset="0" style="stop-color:#ACACAF"/>
			<stop  offset="1" style="stop-color:#FFFFFF"/>
		</linearGradient>
		<path id="XMLID_3533_" class="st53" d="M493.8,276.5c-1-0.1-1.9,0.5-2.2,1.4c-0.6,2-1.6,5.8-1.3,6.6c0.4,1.5,6.1,1.9,7.2,1.1
			c0.9-0.7,1.5-4.7,1.7-6.8c0.1-0.9-0.5-1.7-1.5-1.8L493.8,276.5z"/>
		<linearGradient id="XMLID_153_" gradientUnits="userSpaceOnUse" x1="517.6393" y1="280.8105" x2="490.2612" y2="278.5001">
			<stop  offset="0" style="stop-color:#ACACAF"/>
			<stop  offset="1" style="stop-color:#FFFFFF"/>
		</linearGradient>
		<path id="XMLID_3532_" class="st54" d="M506.6,267.2c-0.3,2.4-0.7,4.3-1.7,7.9c-1,3.5-5.3,11.6-6.6,12.6c-1.3,1-6.1,1-8.6,0
			c-2.5-1-1.3-5.2-1.3-5.2c-0.3,1-0.6,1.8-0.8,2.4c-0.6,2.2-0.3,3.4,0.4,4.4c2,2.9,8.1,2.4,10.3,1.7c1.6-0.5,4.3-5.7,5.9-10.1
			c1.2-3.4,2.6-6.7,2.6-9.7C506.9,269.9,506.8,268.4,506.6,267.2z"/>
	</g>
	<linearGradient id="XMLID_154_" gradientUnits="userSpaceOnUse" x1="490.6089" y1="225.9683" x2="432.1498" y2="159.4624">
		<stop  offset="0" style="stop-color:#393243"/>
		<stop  offset="1" style="stop-color:#82788B"/>
	</linearGradient>
	<path id="XMLID_3530_" class="st55" d="M453.5,140.7c0,0,2.1,44.7,1.3,51c-0.4,3.5,0.2,6.7,0.9,8.9c0.6,2.2,0.9,4.4,0.7,6.6
		c-1,9.9-2.3,35.7-2.7,37.8c-0.6,2.7,1.3,4.2,4.3,4.8c3,0.6,5.3,0.6,6.6-1.1c1.3-1.7,2.1-16.4,5.7-25.3c3.5-8.8,0.6-18.9,0.8-22.5
		c0.2-3.6,6.5-17.5,7.8-23.4c1.3-5.9,1.6-26.8,1.6-26.8L453.5,140.7z"/>
	<linearGradient id="XMLID_155_" gradientUnits="userSpaceOnUse" x1="531.0476" y1="238.2448" x2="461.7294" y2="159.3851">
		<stop  offset="0" style="stop-color:#393243"/>
		<stop  offset="1" style="stop-color:#82788B"/>
	</linearGradient>
	<path id="XMLID_3529_" class="st56" d="M473.5,149.1c0,0,4.1,34.3,8.7,47.1c4.6,12.8,3.5,19.1,6.1,22.3c2.7,3.2,4.2,34.7,4.4,38.8
		c0.2,4.1,2.5,5.6,6.9,5.6c4.4,0,6.3-1,6.3-6.5c0-5.5,2.9-24.4,1.3-33.3c-1.5-8.9-3.4-13.9-3.8-18.3s2.5-28,2.5-47.2
		c0-19.2-7.6-20.4-7.6-20.4L473.5,149.1z"/>
	<linearGradient id="XMLID_156_" gradientUnits="userSpaceOnUse" x1="493.4333" y1="148.1411" x2="509.1321" y2="160.5977">
		<stop  offset="0" style="stop-color:#393243"/>
		<stop  offset="1" style="stop-color:#000500"/>
	</linearGradient>
	<path id="XMLID_3528_" class="st57" d="M497,162.2c5.7,3.1,8.7,2.8,8.7,2.8c0.1-2.6,0.1-5.1,0.1-7.6c0-5.1-0.5-9-1.3-11.9
		l-13.9,6.3C490.5,151.8,491.3,159,497,162.2z"/>
	<linearGradient id="XMLID_157_" gradientUnits="userSpaceOnUse" x1="504.4804" y1="167.5648" x2="483.3966" y2="140.9885">
		<stop  offset="1.100000e-007" style="stop-color:#AC9DC0"/>
		<stop  offset="1" style="stop-color:#F0F6FF"/>
	</linearGradient>
	<path id="XMLID_3527_" class="st58" d="M498.1,160.7c-4.4-2.4-5.8-7.2-6.3-9.3l-1.3,0.6c0,0,0.7,7.2,6.4,10.4
		c5.7,3.1,8.7,2.8,8.7,2.8c0-0.6,0-1.1,0-1.7C504.4,163.3,501.8,162.8,498.1,160.7z"/>
	<linearGradient id="XMLID_158_" gradientUnits="userSpaceOnUse" x1="472.2278" y1="142.8069" x2="493.4952" y2="45.0312">
		<stop  offset="1.100000e-007" style="stop-color:#AC9DC0"/>
		<stop  offset="1" style="stop-color:#F0F6FF"/>
	</linearGradient>
	<path id="XMLID_3526_" class="st59" d="M470.9,49.1c0,0-7.9-2.2-10.4-1.3c-2.5,0.9-7.5,7.7-8.9,15.5s2.9,41.1,2.9,41.1
		s-1.6,29.4-2,33.9c-0.3,3.4,2.2,7.6,17.7,12.7s31.1,2,35.7,0c4.5-2,3.5-1.8,1.7-12.2c-1.8-10.4-3.4-28.6-3.6-37
		c-0.3-8.4,5.8-34.8,5.8-34.8s-4.2-4.2-12.2-9.4C489.5,52.4,470.9,49.1,470.9,49.1z"/>
	<defs>
		<filter id="Adobe_OpacityMaskFilter_4_" filterUnits="userSpaceOnUse" x="459.5" y="73.8" width="49.6" height="79.2">
			<feFlood  style="flood-color:white;flood-opacity:1" result="back"/>
			<feBlend  in="SourceGraphic" in2="back" mode="normal"/>
		</filter>
	</defs>
	<mask maskUnits="userSpaceOnUse" x="459.5" y="73.8" width="49.6" height="79.2" id="XMLID_159_">
		<g id="XMLID_102_" class="st60">
			<defs>
				<filter id="Adobe_OpacityMaskFilter_5_" filterUnits="userSpaceOnUse" x="459.5" y="73.8" width="49.6" height="79.2">
					<feFlood  style="flood-color:white;flood-opacity:1" result="back"/>
					<feBlend  in="SourceGraphic" in2="back" mode="normal"/>
				</filter>
			</defs>
			<mask maskUnits="userSpaceOnUse" x="459.5" y="73.8" width="49.6" height="79.2" id="XMLID_159_">
				<g id="XMLID_104_" class="st61">
				</g>
			</mask>
			<linearGradient id="XMLID_160_" gradientUnits="userSpaceOnUse" x1="540.1866" y1="108.6445" x2="466.5844" y2="116.7661">
				<stop  offset="0" style="stop-color:#FFFFFF"/>
				<stop  offset="1" style="stop-color:#000000"/>
			</linearGradient>
			<path id="XMLID_103_" class="st62" d="M503.9,101.8c0-0.1,0-0.2,0-0.2c0-0.1,0-0.1,0-0.2c0-0.2-0.2-1.9-0.2-3.9l-7.5-23.7
				c0,0-10.9,12.5-13.8,22.8c-2.2,8-2,12.3-2,12.3s0.2,0.8-1.7-2.3c-1.9-3-1.9-3.8-1.8-5.9c0.1-2.1-0.9-6.5-1.4-6.9
				c-0.6-0.5-1.3,0.4-1.3,0.4l-1.3,3c0,0-8.2-10.8-9.7-10.8c-1.5,0-3.9,6.4-3.7,9.2c0.2,2.9,3.5,8.2,5.3,10.1
				c1.8,1.9,5.1,1.8,6.3,3.2c1.2,1.4,7.1,25.6,12.4,33.2c2,2.9,5.1,6.3,8.4,8.1c1.7,0.9,3.9,1.9,6.1,2.8c3.5-0.6,6.3-1.3,7.8-2
				c4.5-2,3.5-1.8,1.7-12.2C505.8,128.4,504.2,110.2,503.9,101.8z"/>
		</g>
	</mask>
	<linearGradient id="XMLID_161_" gradientUnits="userSpaceOnUse" x1="540.1866" y1="108.6445" x2="466.5844" y2="116.7661">
		<stop  offset="0" style="stop-color:#393243"/>
		<stop  offset="1" style="stop-color:#82788B"/>
	</linearGradient>
	<path id="XMLID_3525_" class="st63" d="M503.9,101.8c0-0.1,0-0.2,0-0.2c0-0.1,0-0.1,0-0.2c0-0.2-0.2-1.9-0.2-3.9l-7.5-23.7
		c0,0-10.9,12.5-13.8,22.8c-2.2,8-2,12.3-2,12.3s0.2,0.8-1.7-2.3c-1.9-3-1.9-3.8-1.8-5.9c0.1-2.1-0.9-6.5-1.4-6.9
		c-0.6-0.5-1.3,0.4-1.3,0.4l-1.3,3c0,0-8.2-10.8-9.7-10.8c-1.5,0-3.9,6.4-3.7,9.2c0.2,2.9,3.5,8.2,5.3,10.1c1.8,1.9,5.1,1.8,6.3,3.2
		c1.2,1.4,7.1,25.6,12.4,33.2c2,2.9,5.1,6.3,8.4,8.1c1.7,0.9,3.9,1.9,6.1,2.8c3.5-0.6,6.3-1.3,7.8-2c4.5-2,3.5-1.8,1.7-12.2
		C505.8,128.4,504.2,110.2,503.9,101.8z"/>
	<linearGradient id="XMLID_162_" gradientUnits="userSpaceOnUse" x1="494.3465" y1="53.3496" x2="472.0121" y2="64.8974">
		<stop  offset="0" style="stop-color:#393243"/>
		<stop  offset="1" style="stop-color:#82788B"/>
	</linearGradient>
	<path id="XMLID_3524_" class="st64" d="M473.8,54.9c0,0-3.2,5.8-1.9,8.7c1.3,2.9,5.5,5,11.2,3.9c6.3-1.3,10.5-5.5,10.9-8.4
		c0.3-2.2-0.2-4.1-1.7-5.7c-1.5-1.6-3.9-2.3-3.9-2.3L473.8,54.9z"/>
	<linearGradient id="XMLID_163_" gradientUnits="userSpaceOnUse" x1="484.8121" y1="48.1466" x2="476.8174" y2="67.943">
		<stop  offset="0" style="stop-color:#EF8C93"/>
		<stop  offset="1" style="stop-color:#F9C7C0"/>
	</linearGradient>
	<path id="XMLID_3523_" class="st65" d="M473.2,49.5c0,0,1,3,0.4,7.4c-0.6,4.4-0.7,5.4,1.5,7.1c2.2,1.7,6.9,2.6,11.5-0.3
		c4.6-2.9,5.1-4.5,5.1-6.2s-2.6-6.3-2.2-11.6c0.4-5.3,1.2-9.7,1.2-9.7l1-4.4l-4.3-1.8L473.2,49.5z"/>
	<linearGradient id="XMLID_164_" gradientUnits="userSpaceOnUse" x1="485.29" y1="29.0331" x2="463.8439" y2="42.8652">
		<stop  offset="0" style="stop-color:#EF8C93"/>
		<stop  offset="1" style="stop-color:#F9C7C0"/>
	</linearGradient>
	<path id="XMLID_3522_" class="st66" d="M466.8,22.6c-2,1.2-2.6,4.3-2.7,6.7c-0.2,4.3-0.3,11.2,1.1,14.8c2.2,5.5,4,7.4,5,8.1
		c0.9,0.7,8.1,0,11.6-2.5c3.4-2.5,6.2-5.7,7.4-9.8c1.1-4.1-0.5-7.8-0.5-7.8l-19.5-9.6H466.8z"/>
	<linearGradient id="XMLID_165_" gradientUnits="userSpaceOnUse" x1="463.8757" y1="9.8934" x2="498.7583" y2="37.572">
		<stop  offset="0" style="stop-color:#393243"/>
		<stop  offset="1" style="stop-color:#000500"/>
	</linearGradient>
	<path id="XMLID_3521_" class="st67" d="M490.2,33.3c0,0-1.8-1.5-3,0c-1.6,1.8-0.3,4-2.5,3.7c-2.2-0.3,0-4.8-1.9-6.1
		c-1.9-1.3-10.7-0.2-14.7-4.4c-2.2-2.4-1.7,0.1-3.1,0c-1.9-0.2-4.1-2-4.5-3.9c-0.4-1.9,1.1-3.4,2.9-2.6l1.2,0.5c0,0-3.6-4.4-1.3-9.3
		c2.3-4.9,6.3-5.9,7.5-4.9c2.2,1.7,0.4,3.9,3.3,5.4c2.9,1.5,4.5,0.6,5.9,0.4c2.2-0.4,1.6,1.9,3.5,2.5c3.7,1.1,7.6-1.9,11.3,3.7
		c4.3,6.4,2.6,11.4,1,13.2c-1,1-1.4,1.6-1.1,2.4c0.3,0.9,2-0.4,2.6,0.9s-5.1,5.4-5.6,7.6s1,3-0.1,4.2c-1,1.2-2.2,0.3-2.8-1.1
		c-0.6-1.4,1-6.1,1-6.1S491.7,34.7,490.2,33.3z"/>
	<g id="XMLID_3518_">
		
			<linearGradient id="XMLID_166_" gradientUnits="userSpaceOnUse" x1="501.2337" y1="45.7068" x2="492.8585" y2="51.9228" gradientTransform="matrix(0.989 -0.1479 0.1479 0.989 -9.3036 62.7449)">
			<stop  offset="0" style="stop-color:#EF8C93"/>
			<stop  offset="1" style="stop-color:#FFCDCA"/>
		</linearGradient>
		<path id="XMLID_3520_" class="st68" d="M486.4,41c-0.1,0.6,0.3,1.1,0.9,1c1.5-0.2,4.2-1,4.7-4.4c0.5-3.2-1.8-3.4-3.2-3.3
			c-0.5,0.1-1,0.4-1.1,1L486.4,41z"/>
		
			<linearGradient id="XMLID_167_" gradientUnits="userSpaceOnUse" x1="496.1108" y1="49.424" x2="489.5166" y2="54.3182" gradientTransform="matrix(0.989 -0.1479 0.1479 0.989 -9.3036 62.7449)">
			<stop  offset="0" style="stop-color:#EF7F7D"/>
			<stop  offset="1" style="stop-color:#FFCDCA"/>
		</linearGradient>
		<path id="XMLID_3519_" class="st69" d="M487.4,39.7c-0.1,0.3,0.2,0.6,0.5,0.6c0.9-0.1,2.3-0.5,2.6-2.5c0.3-1.8-1-1.9-1.8-1.9
			c-0.3,0-0.5,0.2-0.6,0.5L487.4,39.7z"/>
	</g>
	<g id="XMLID_3513_">
		<linearGradient id="XMLID_168_" gradientUnits="userSpaceOnUse" x1="422.1289" y1="82.2286" x2="477.5761" y2="83.9088">
			<stop  offset="0" style="stop-color:#00FFFF"/>
			<stop  offset="1" style="stop-color:#3998FF"/>
		</linearGradient>
		<path id="XMLID_3517_" class="st70" d="M454.3,110.8l-29.2-15.1c-2.9-1.5-4.1-5.1-2.6-8.1L437.2,58c1.5-3,5.2-4.2,8.2-2.7
			l29.2,15.1c2.9,1.5,4.1,5.1,2.6,8.1l-14.6,29.6C461,111.1,457.3,112.4,454.3,110.8z"/>
		<path id="XMLID_3514_" class="st42" d="M458.1,95.1c0.5-0.3,0.8-1,0.5-1.5l-1.1-2.2c0.6-0.6,1.1-1.3,1.6-2l2.3,0.7
			c0.6,0.2,1.2-0.2,1.4-0.8l1.3-4.1c0.2-0.6-0.1-1.2-0.7-1.4l-2.3-0.7c0-0.9,0-1.8-0.2-2.6l2.1-1.2c0.5-0.3,0.8-1,0.5-1.5l-1.8-3.7
			c-0.3-0.6-0.9-0.8-1.5-0.5l-2.1,1.2c-0.6-0.6-1.2-1.2-2-1.7l0.7-2.4c0.2-0.6-0.1-1.2-0.7-1.4l-3.9-1.2c-0.6-0.2-1.2,0.2-1.4,0.8
			l-0.7,2.4c-0.8,0-1.6,0.1-2.4,0.3l-1.1-2.2c-0.3-0.6-0.9-0.8-1.5-0.5l-3.6,2c-0.5,0.3-0.8,1-0.5,1.5l1.1,2.2
			c-0.6,0.6-1.1,1.3-1.6,2l-2.3-0.7c-0.6-0.2-1.2,0.2-1.4,0.8l-1.3,4.1c-0.2,0.6,0.1,1.2,0.7,1.4l2.3,0.7c0,0.9,0,1.8,0.2,2.6
			l-2.1,1.2c-0.5,0.3-0.8,1-0.5,1.5l1.8,3.7c0.3,0.6,0.9,0.8,1.5,0.5l2.1-1.2c0.6,0.6,1.3,1.2,2,1.7l-0.7,2.4
			c-0.2,0.6,0.1,1.2,0.7,1.4l3.9,1.2c0.6,0.2,1.2-0.2,1.4-0.8l0.7-2.4c0.8,0,1.6-0.1,2.4-0.3l1.1,2.2c0.3,0.6,0.9,0.8,1.5,0.5
			L458.1,95.1z M444.8,85.9c-1.4-2.9-0.3-6.4,2.5-8c2.8-1.6,6.2-0.5,7.6,2.3c1.4,2.9,0.3,6.4-2.5,8
			C449.6,89.8,446.2,88.8,444.8,85.9z"/>
	</g>
	<linearGradient id="XMLID_169_" gradientUnits="userSpaceOnUse" x1="503.8359" y1="98.0608" x2="459.938" y2="109.9543">
		<stop  offset="0" style="stop-color:#EF8C93"/>
		<stop  offset="1" style="stop-color:#F9C7C0"/>
	</linearGradient>
	<path id="XMLID_3512_" class="st71" d="M473.2,86.4l-1.3,3c0,0-8.2-10.8-9.7-10.8c-1.5,0-3.9,6.4-3.7,9.2c0.2,2.9,3.5,8.2,5.3,10.1
		s5.1,1.8,6.3,3.2c1.2,1.4,9.7,29.1,13.6,31.4c3.9,2.3,4.9-0.6,6.9-3.4c2-2.9,9.1-14.9,11.3-21.3s3.8-13.7,3.8-13.7l-13.7-4.9
		c0,0-2.1,4.3-3.8,11c-2.1,8-1.5,13.6-1.5,13.6s-7.1-12.1-9-15.1c-1.9-3-1.9-3.8-1.8-5.9c0.1-2.1-0.9-6.5-1.4-6.9
		S473.2,86.4,473.2,86.4z"/>
	<linearGradient id="XMLID_170_" gradientUnits="userSpaceOnUse" x1="499.0895" y1="94.2942" x2="505.7677" y2="63.5914">
		<stop  offset="1.100000e-007" style="stop-color:#AC9DC0"/>
		<stop  offset="1" style="stop-color:#F0F6FF"/>
	</linearGradient>
	<path id="XMLID_3511_" class="st72" d="M490.7,88.6c0,0,1.8-7,3.7-11.1c1.9-4.1,4.3-8.9,6.8-11.2c2.5-2.4,4.7-2.7,4.7-2.7l3.9,3.4
		c0,0,2.9,3,2.1,11.7s-5,16.5-5,16.5s-3.5,0.9-8.8-1.5C492.8,91.2,490.7,88.6,490.7,88.6z"/>
</g>
<g id="_x36_">
	<linearGradient id="XMLID_171_" gradientUnits="userSpaceOnUse" x1="587.7822" y1="191.4051" x2="579.1036" y2="191.4051">
		<stop  offset="1.104007e-007" style="stop-color:#F9707A"/>
		<stop  offset="1" style="stop-color:#E80B76"/>
	</linearGradient>
	<path id="XMLID_3509_" class="st73" d="M609.3,240L609.3,240l-0.2-112.2H557l0.2,111.7c0,0.2,0,0.3,0,0.5v0h0
		c0.1,0.9,0.8,1.8,2.1,2.6l19.4,11.2c2.6,1.5,6.5,1.7,8.8,0.4l20.3-11.7C608.9,241.8,609.4,240.9,609.3,240z"/>
	<linearGradient id="XMLID_172_" gradientUnits="userSpaceOnUse" x1="662.8895" y1="139.1613" x2="591.8562" y2="129.1751">
		<stop  offset="0" style="stop-color:#FF3100"/>
		<stop  offset="1" style="stop-color:#FFCD50"/>
	</linearGradient>
	<path id="XMLID_3508_" class="st74" d="M607.6,130.4l-20.3,11.7c-2.2,1.3-6.2,1.1-8.8-0.4l-19.4-11.2c-2.6-1.5-2.9-3.8-0.6-5.1
		l20.3-11.7c2.2-1.3,6.2-1.1,8.8,0.4l19.4,11.2C609.6,126.8,609.9,129.1,607.6,130.4z"/>
	<g id="XMLID_3505_">
		<path id="XMLID_3507_" class="st42" d="M581.2,126.9l1.1-7.5c0,0-0.1,0-0.1,0l-14,8.1c-0.1,0.1-0.2,0.1-0.3,0.2L581.2,126.9z"/>
		<path id="XMLID_3506_" class="st42" d="M584.1,128.5l-16.2,0.9c0.1,0,0.1,0.1,0.2,0.1l11.2,6.5c1,0.6,2.7,0.5,3.8-0.1l14-8.1
			c1.1-0.6,1.1-1.6,0.1-2.2l-11.2-6.5c-0.2-0.1-0.3-0.2-0.5-0.2L584.1,128.5z"/>
	</g>
</g>
<g id="_x35_">
	<g id="XMLID_3236_" class="st75">
		<path id="XMLID_68_" class="st4" d="M626.8,389.5L595,407.9c-14.4,8.3-39.5,7.3-56.1-2.3l-23.7-13.7c-16.6-9.6-18.4-24.1-4-32.4
			l31.8-18.4c14.4-8.3,39.5-7.3,56.1,2.3l23.7,13.7C639.4,366.7,641.2,381.2,626.8,389.5z"/>
		<path id="XMLID_88_" class="st76" d="M625.7,389.2l-31.2,18c-14.1,8.1-38.8,7.1-55-2.3l-23.3-13.4c-16.3-9.4-18.1-23.6-4-31.8
			l31.2-18c14.1-8.1,38.8-7.1,55,2.3l23.3,13.4C638,366.9,639.8,381.1,625.7,389.2z"/>
		<path id="XMLID_87_" class="st77" d="M624.6,388.9L594,406.6c-13.8,8-38,7-54-2.2l-22.8-13.2c-16-9.2-17.7-23.2-3.9-31.2
			l30.6-17.7c13.8-8,38-7,54,2.2l22.8,13.2C636.7,367,638.4,381,624.6,388.9z"/>
		<path id="XMLID_86_" class="st78" d="M623.4,388.7l-30,17.3c-13.6,7.8-37.2,6.8-52.9-2.2l-22.4-12.9c-15.6-9-17.3-22.7-3.8-30.5
			l30-17.3c13.6-7.8,37.2-6.8,52.9,2.2l22.4,12.9C635.3,367.2,637,380.8,623.4,388.7z"/>
		<path id="XMLID_85_" class="st79" d="M622.3,388.4L593,405.3c-13.3,7.7-36.5,6.7-51.8-2.1l-21.9-12.7c-15.3-8.8-17-22.2-3.7-29.9
			l29.3-16.9c13.3-7.7,36.5-6.7,51.8,2.1l21.9,12.7C633.9,367.3,635.6,380.7,622.3,388.4z"/>
		<path id="XMLID_84_" class="st80" d="M621.2,388.1l-28.7,16.6c-13,7.5-35.7,6.6-50.7-2.1l-21.5-12.4c-15-8.7-16.6-21.8-3.6-29.3
			l28.7-16.6c13-7.5,35.7-6.6,50.7,2.1l21.5,12.4C632.5,367.4,634.2,380.6,621.2,388.1z"/>
		<path id="XMLID_83_" class="st81" d="M620.1,387.8L591.9,404c-12.7,7.3-34.9,6.4-49.6-2.1l-21-12.1c-14.7-8.5-16.3-21.3-3.6-28.6
			l28.1-16.2c12.7-7.3,34.9-6.4,49.6,2.1l21,12.1C631.2,367.6,632.8,380.4,620.1,387.8z"/>
		<path id="XMLID_82_" class="st82" d="M618.9,387.5l-27.5,15.9c-12.4,7.2-34.2,6.3-48.5-2l-20.5-11.9c-14.4-8.3-15.9-20.8-3.5-28
			l27.5-15.9c12.4-7.2,34.2-6.3,48.5,2l20.5,11.9C629.8,367.7,631.4,380.3,618.9,387.5z"/>
		<path id="XMLID_81_" class="st83" d="M617.8,387.2l-26.9,15.5c-12.2,7-33.4,6.1-47.5-2l-20.1-11.6c-14-8.1-15.6-20.4-3.4-27.4
			l26.9-15.5c12.2-7,33.4-6.1,47.5,2l20.1,11.6C628.4,367.9,630,380.1,617.8,387.2z"/>
		<path id="XMLID_80_" class="st84" d="M616.7,386.9L590.4,402c-11.9,6.9-32.6,6-46.4-1.9l-19.6-11.3c-13.7-7.9-15.2-19.9-3.3-26.8
			l26.3-15.2c11.9-6.9,32.6-6,46.4,1.9l19.6,11.3C627.1,368,628.5,380,616.7,386.9z"/>
		<path id="XMLID_79_" class="st85" d="M615.5,386.6l-25.7,14.8c-11.6,6.7-31.9,5.9-45.3-1.9l-19.2-11.1
			c-13.4-7.7-14.9-19.4-3.3-26.1l25.7-14.8c11.6-6.7,31.9-5.9,45.3,1.9l19.2,11.1C625.7,368.2,627.1,379.9,615.5,386.6z"/>
		<path id="XMLID_78_" class="st86" d="M614.4,386.3l-25,14.5c-11.3,6.5-31.1,5.7-44.2-1.8l-18.7-10.8c-13.1-7.6-14.5-19-3.2-25.5
			l25-14.5c11.3-6.5,31.1-5.7,44.2,1.8l18.7,10.8C624.3,368.3,625.7,379.7,614.4,386.3z"/>
		<path id="XMLID_77_" class="st87" d="M613.3,386l-24.4,14.1c-11,6.4-30.4,5.6-43.1-1.8l-18.2-10.5c-12.8-7.4-14.1-18.5-3.1-24.9
			l24.4-14.1c11-6.4,30.4-5.6,43.1,1.8l18.2,10.5C622.9,368.5,624.3,379.6,613.3,386z"/>
		<path id="XMLID_76_" class="st88" d="M612.1,385.7l-23.8,13.7c-10.8,6.2-29.6,5.4-42-1.7l-17.8-10.3c-12.4-7.2-13.8-18-3-24.3
			l23.8-13.7c10.8-6.2,29.6-5.4,42,1.7l17.8,10.3C621.6,368.6,622.9,379.5,612.1,385.7z"/>
		<path id="XMLID_75_" class="st89" d="M611,385.4l-23.2,13.4c-10.5,6.1-28.8,5.3-40.9-1.7l-17.3-10c-12.1-7-13.4-17.6-2.9-23.6
			l23.2-13.4c10.5-6.1,28.8-5.3,40.9,1.7l17.3,10C620.2,368.7,621.5,379.3,611,385.4z"/>
		<path id="XMLID_74_" class="st90" d="M609.9,385.1l-22.6,13c-10.2,5.9-28.1,5.2-39.9-1.7l-16.9-9.7c-11.8-6.8-13.1-17.1-2.9-23
			l22.6-13c10.2-5.9,28.1-5.2,39.9,1.7l16.9,9.7C618.8,368.9,620.1,379.2,609.9,385.1z"/>
		<path id="XMLID_73_" class="st91" d="M608.8,384.8l-22,12.7c-9.9,5.7-27.3,5-38.8-1.6l-16.4-9.5c-11.5-6.6-12.7-16.6-2.8-22.4
			l22-12.7c9.9-5.7,27.3-5,38.8,1.6l16.4,9.5C617.4,369,618.7,379,608.8,384.8z"/>
		<path id="XMLID_72_" class="st92" d="M607.6,384.5l-21.4,12.3c-9.7,5.6-26.5,4.9-37.7-1.6l-15.9-9.2c-11.2-6.4-12.4-16.2-2.7-21.8
			l21.4-12.3c9.7-5.6,26.5-4.9,37.7,1.6l15.9,9.2C616.1,369.2,617.3,378.9,607.6,384.5z"/>
		<path id="XMLID_71_" class="st93" d="M606.5,384.2l-20.7,12c-9.4,5.4-25.8,4.7-36.6-1.5l-15.5-8.9c-10.8-6.3-12-15.7-2.6-21.1
			l20.7-12c9.4-5.4,25.8-4.7,36.6,1.5l15.5,8.9C614.7,369.3,615.9,378.8,606.5,384.2z"/>
		<path id="XMLID_70_" class="st94" d="M605.4,383.9l-20.1,11.6c-9.1,5.3-25,4.6-35.5-1.5l-15-8.7c-10.5-6.1-11.7-15.2-2.5-20.5
			l20.1-11.6c9.1-5.3,25-4.6,35.5,1.5l15,8.7C613.3,369.5,614.5,378.6,605.4,383.9z"/>
		<path id="XMLID_69_" class="st95" d="M604.2,383.6l-19.5,11.3c-8.8,5.1-24.2,4.5-34.4-1.4l-14.6-8.4c-10.2-5.9-11.3-14.8-2.5-19.9
			l19.5-11.3c8.8-5.1,24.2-4.5,34.4,1.4l14.6,8.4C612,369.6,613.1,378.5,604.2,383.6z"/>
		<path id="XMLID_67_" class="st96" d="M603.1,383.3l-18.9,10.9c-8.5,4.9-23.5,4.3-33.3-1.4l-14.1-8.1c-9.9-5.7-10.9-14.3-2.4-19.3
			l18.9-10.9c8.5-4.9,23.5-4.3,33.3,1.4l14.1,8.1C610.6,369.7,611.7,378.4,603.1,383.3z"/>
	</g>
	<linearGradient id="XMLID_173_" gradientUnits="userSpaceOnUse" x1="576.1163" y1="380.3558" x2="559.9369" y2="380.3558">
		<stop  offset="1.100000e-007" style="stop-color:#FF5A00"/>
		<stop  offset="1" style="stop-color:#FF9B0C"/>
	</linearGradient>
	<path id="XMLID_3235_" class="st97" d="M616.2,372.2L616.2,372.2l-0.2-11.8h-97.2l0.1,11.5c0,0.3,0,0,0,0.3v0h0
		c0.2,1.7,1.6,3.4,4,4.8l36.3,20.9c4.8,2.8,12.2,3.1,16.4,0.7l37.9-21.9C615.5,375.6,616.4,373.9,616.2,372.2z"/>
	<linearGradient id="XMLID_174_" gradientUnits="userSpaceOnUse" x1="716.4237" y1="381.6602" x2="583.8054" y2="363.0162">
		<stop  offset="0" style="stop-color:#FF3100"/>
		<stop  offset="1" style="stop-color:#FFCD50"/>
	</linearGradient>
	<path id="XMLID_3234_" class="st98" d="M613.3,365.3l-37.9,21.9c-4.2,2.4-11.5,2.1-16.4-0.7l-36.3-20.9c-4.8-2.8-5.4-7-1.2-9.4
		l37.9-21.9c4.2-2.4,11.5-2.1,16.4,0.7l36.3,20.9C616.9,358.7,617.5,362.9,613.3,365.3z"/>
	<g id="XMLID_3231_">
		<path id="XMLID_3233_" class="st42" d="M563.9,358.7l2-14.1c-0.1,0-0.1,0-0.2,0.1l-26.1,15c-0.2,0.1-0.4,0.3-0.6,0.4L563.9,358.7z
			"/>
		<path id="XMLID_3232_" class="st42" d="M569.3,361.8l-30.2,1.8c0.1,0.1,0.2,0.2,0.4,0.3l21,12.1c1.9,1.1,5,1,7-0.1l26.1-15
			c2-1.2,2.1-3,0.3-4l-21-12.1c-0.3-0.2-0.6-0.3-1-0.4L569.3,361.8z"/>
	</g>
</g>
<g id="_x34_">
	<linearGradient id="XMLID_175_" gradientUnits="userSpaceOnUse" x1="556.8887" y1="234.2605" x2="549.5876" y2="234.2605">
		<stop  offset="0" style="stop-color:#3998FF"/>
		<stop  offset="1" style="stop-color:#00CFFF"/>
	</linearGradient>
	<path id="XMLID_3229_" class="st99" d="M574.6,259.6L574.6,259.6l-0.2-62.8h-42.2l0.1,62.4c0,0.1,0,0.3,0,0.4v0h0
		c0.1,0.7,0.7,1.5,1.7,2.1l15.7,9.1c2.1,1.2,5.3,1.3,7.1,0.3l16.4-9.5C574.3,261,574.7,260.3,574.6,259.6z"/>
	<linearGradient id="XMLID_176_" gradientUnits="userSpaceOnUse" x1="537.8334" y1="196.4218" x2="603.9268" y2="198.4246">
		<stop  offset="0" style="stop-color:#00FFFF"/>
		<stop  offset="1" style="stop-color:#3998FF"/>
	</linearGradient>
	<path id="XMLID_3228_" class="st100" d="M573.2,198.9l-16.4,9.5c-1.8,1-5,0.9-7.1-0.3L534,199c-2.1-1.2-2.3-3-0.5-4.1l16.4-9.5
		c1.8-1.1,5-0.9,7.1,0.3l15.7,9.1C574.8,196,575.1,197.8,573.2,198.9z"/>
	<g id="XMLID_3225_">
		<path id="XMLID_3227_" class="st42" d="M546.4,193.1c-3.9,2.2-3.9,5.8,0,8.1c3.9,2.2,10.1,2.2,14,0c3.9-2.2,3.9-5.8,0-8.1l-7,4
			L546.4,193.1z"/>
		<path id="XMLID_3226_" class="st42" d="M546.5,191.1l7,4l7-4C556.6,188.9,550.4,188.9,546.5,191.1z"/>
	</g>
</g>
<g id="_x33_">
	<g id="XMLID_2934_" class="st75">
		<path id="XMLID_46_" class="st4" d="M418.8,304.8l-49.5,28.6c-22.4,12.9-61.5,11.3-87.3-3.6l-37-21.3
			c-25.8-14.9-28.7-37.5-6.3-50.4l49.5-28.6c22.4-12.9,61.5-11.3,87.3,3.6l37,21.3C438.4,269.3,441.2,291.8,418.8,304.8z"/>
		<path id="XMLID_66_" class="st76" d="M417,304.3l-48.5,28c-22,12.7-60.3,11.1-85.7-3.6l-36.2-20.9c-25.4-14.6-28.1-36.8-6.1-49.5
			l48.5-28c22-12.7,60.3-11.1,85.7,3.6l36.2,20.9C436.2,269.5,439,291.6,417,304.3z"/>
		<path id="XMLID_65_" class="st77" d="M415.3,303.8l-47.6,27.5c-21.5,12.4-59.1,10.9-84-3.5l-35.5-20.5
			c-24.9-14.3-27.5-36.1-6-48.5l47.6-27.5c21.5-12.4,59.1-10.9,84,3.5l35.5,20.5C434.1,269.7,436.8,291.4,415.3,303.8z"/>
		<path id="XMLID_64_" class="st78" d="M413.5,303.4l-46.6,26.9c-21.1,12.2-57.9,10.6-82.3-3.4l-34.8-20.1
			c-24.4-14.1-27-35.3-5.9-47.5l46.6-26.9c21.1-12.2,57.9-10.6,82.3,3.4l34.8,20.1C432,269.9,434.6,291.2,413.5,303.4z"/>
		<path id="XMLID_63_" class="st79" d="M411.8,302.9l-45.7,26.4c-20.7,11.9-56.7,10.4-80.6-3.3l-34.1-19.7
			c-23.9-13.8-26.4-34.6-5.8-46.5l45.7-26.4c20.7-11.9,56.7-10.4,80.6,3.3l34.1,19.7C429.8,270.2,432.4,291,411.8,302.9z"/>
		<path id="XMLID_62_" class="st80" d="M410,302.4l-44.7,25.8c-20.2,11.7-55.5,10.2-78.9-3.3L253,305.7
			c-23.4-13.5-25.9-33.9-5.7-45.6l44.7-25.8c20.2-11.7,55.5-10.2,78.9,3.3l33.4,19.3C427.7,270.4,430.2,290.8,410,302.4z"/>
		<path id="XMLID_61_" class="st81" d="M408.2,302l-43.8,25.3c-19.8,11.4-54.4,10-77.2-3.2l-32.7-18.9
			c-22.9-13.2-25.3-33.2-5.5-44.6l43.8-25.3c19.8-11.4,54.4-10,77.2,3.2l32.7,18.9C425.6,270.6,428,290.6,408.2,302z"/>
		<path id="XMLID_60_" class="st82" d="M406.5,301.5l-42.8,24.7c-19.4,11.2-53.2,9.8-75.5-3.1l-32-18.4
			c-22.4-12.9-24.8-32.4-5.4-43.6l42.8-24.7c19.4-11.2,53.2-9.8,75.5,3.1l32,18.4C423.4,270.8,425.8,290.3,406.5,301.5z"/>
		<path id="XMLID_59_" class="st83" d="M404.7,301.1l-41.8,24.2c-18.9,10.9-52,9.6-73.8-3.1l-31.2-18c-21.9-12.6-24.2-31.7-5.3-42.6
			l41.8-24.2c18.9-10.9,52-9.6,73.8,3.1l31.2,18C421.3,271,423.7,290.1,404.7,301.1z"/>
		<path id="XMLID_58_" class="st84" d="M403,300.6l-40.9,23.6c-18.5,10.7-50.8,9.3-72.1-3l-30.5-17.6c-21.4-12.3-23.7-31-5.2-41.7
			l40.9-23.6c18.5-10.7,50.8-9.3,72.1,3l30.5,17.6C419.1,271.3,421.5,289.9,403,300.6z"/>
		<path id="XMLID_57_" class="st85" d="M401.2,300.1l-39.9,23.1c-18.1,10.4-49.6,9.1-70.5-2.9L261,303.1
			c-20.9-12-23.1-30.3-5.1-40.7l39.9-23.1c18.1-10.4,49.6-9.1,70.5,2.9l29.8,17.2C417,271.5,419.3,289.7,401.2,300.1z"/>
		<path id="XMLID_56_" class="st86" d="M399.5,299.7l-39,22.5c-17.6,10.2-48.4,8.9-68.8-2.9l-29.1-16.8
			c-20.4-11.8-22.6-29.5-4.9-39.7l39-22.5c17.6-10.2,48.4-8.9,68.8,2.9l29.1,16.8C414.9,271.7,417.1,289.5,399.5,299.7z"/>
		<path id="XMLID_55_" class="st87" d="M397.7,299.2l-38,21.9c-17.2,9.9-47.2,8.7-67.1-2.8L264.2,302c-19.9-11.5-22-28.8-4.8-38.7
			l38-21.9c17.2-9.9,47.2-8.7,67.1,2.8l28.4,16.4C412.7,271.9,414.9,289.3,397.7,299.2z"/>
		<path id="XMLID_54_" class="st88" d="M395.9,298.7l-37.1,21.4c-16.8,9.7-46,8.5-65.4-2.7l-27.7-16c-19.4-11.2-21.5-28.1-4.7-37.8
			l37.1-21.4c16.8-9.7,46-8.5,65.4,2.7l27.7,16C410.6,272.2,412.7,289.1,395.9,298.7z"/>
		<path id="XMLID_53_" class="st89" d="M394.2,298.3l-36.1,20.8c-16.3,9.4-44.9,8.2-63.7-2.6l-27-15.6
			c-18.9-10.9-20.9-27.4-4.6-36.8l36.1-20.8c16.3-9.4,44.9-8.2,63.7,2.6l27,15.6C408.5,272.4,410.5,288.9,394.2,298.3z"/>
		<path id="XMLID_52_" class="st90" d="M392.4,297.8l-35.1,20.3c-15.9,9.2-43.7,8-62-2.6L269,300.4c-18.4-10.6-20.3-26.6-4.5-35.8
			l35.1-20.3c15.9-9.2,43.7-8,62,2.6L388,262C406.3,272.6,408.3,288.6,392.4,297.8z"/>
		<path id="XMLID_51_" class="st91" d="M390.7,297.4l-34.2,19.7c-15.5,8.9-42.5,7.8-60.3-2.5l-25.5-14.7
			c-17.9-10.3-19.8-25.9-4.3-34.8l34.2-19.7c15.5-8.9,42.5-7.8,60.3,2.5l25.5,14.7C404.2,272.8,406.1,288.4,390.7,297.4z"/>
		<path id="XMLID_50_" class="st92" d="M388.9,296.9l-33.2,19.2c-15,8.7-41.3,7.6-58.6-2.4l-24.8-14.3c-17.4-10-19.2-25.2-4.2-33.9
			l33.2-19.2c15-8.7,41.3-7.6,58.6,2.4l24.8,14.3C402.1,273.1,403.9,288.2,388.9,296.9z"/>
		<path id="XMLID_49_" class="st93" d="M387.1,296.4l-32.3,18.6c-14.6,8.4-40.1,7.4-57-2.4l-24.1-13.9c-16.9-9.7-18.7-24.5-4.1-32.9
			l32.3-18.6c14.6-8.4,40.1-7.4,57,2.4l24.1,13.9C399.9,273.3,401.7,288,387.1,296.4z"/>
		<path id="XMLID_48_" class="st94" d="M385.4,296l-31.3,18.1c-14.2,8.2-38.9,7.2-55.3-2.3l-23.4-13.5c-16.4-9.4-18.1-23.7-4-31.9
			l31.3-18.1c14.2-8.2,38.9-7.2,55.3,2.3l23.4,13.5C397.8,273.5,399.6,287.8,385.4,296z"/>
		<path id="XMLID_47_" class="st95" d="M383.6,295.5L353.3,313c-13.7,7.9-37.7,6.9-53.6-2.2L277,297.7c-15.9-9.2-17.6-23-3.8-30.9
			l30.4-17.5c13.7-7.9,37.7-6.9,53.6,2.2l22.7,13.1C395.6,273.7,397.4,287.6,383.6,295.5z"/>
		<path id="XMLID_45_" class="st96" d="M381.9,295l-29.4,17c-13.3,7.7-36.5,6.7-51.9-2.2l-22-12.7c-15.4-8.9-17-22.3-3.7-30l29.4-17
			c13.3-7.7,36.5-6.7,51.9,2.2l22,12.7C393.5,274,395.2,287.4,381.9,295z"/>
	</g>
	<g id="XMLID_2930_">
		<linearGradient id="XMLID_177_" gradientUnits="userSpaceOnUse" x1="341.6653" y1="289.1335" x2="315.209" y2="289.1335">
			<stop  offset="1.100000e-007" style="stop-color:#FF5A00"/>
			<stop  offset="1" style="stop-color:#FF9B0C"/>
		</linearGradient>
		<path id="XMLID_2933_" class="st101" d="M407.2,275L407.2,275l-0.3-17.6h-159l0.2,17.1c0,0.5,0,0,0.1,0.5v0h0
			c0.4,2.8,2.6,5.6,6.5,7.9l59.3,34.2c7.9,4.6,19.9,5.1,26.8,1.1l61.9-35.7C406.1,280.5,407.6,277.8,407.2,275z"/>
		<linearGradient id="XMLID_178_" gradientUnits="userSpaceOnUse" x1="575.9429" y1="292.7768" x2="359.0882" y2="262.2905">
			<stop  offset="0" style="stop-color:#B14499"/>
			<stop  offset="1" style="stop-color:#A605F7"/>
		</linearGradient>
		<path id="XMLID_2932_" class="st102" d="M402.4,265.4l-61.9,35.7c-6.9,4-18.8,3.5-26.8-1.1l-59.3-34.2c-7.9-4.6-8.8-11.5-1.9-15.4
			l61.9-35.7c6.9-4,18.8-3.5,26.8,1.1l59.3,34.2C408.4,254.5,409.3,261.4,402.4,265.4z"/>
		<path id="XMLID_2931_" class="st42" d="M376,254.4c-8-2.3-21.1-4.9-29.3-0.2c-1.6,0.9-2.9,1.7-4.1,2.4l-5-2.2
			c0.1-1.8-0.7-3.6-2.5-5.1l0,0l-9.7-8.7c-0.2-0.2-0.5-0.4-0.7-0.7l-0.2-0.2l0,0c-0.6-0.5-1.2-0.9-2-1.4c-7.5-4.4-19.8-4.4-27.3,0
			c-7.5,4.4-7.5,11.4,0,15.8c0.7,0.4,1.5,0.8,2.3,1.1l0,0l0.3,0.1c0.4,0.2,0.9,0.3,1.4,0.5l15,5.6l0,0c2.7,1,5.7,1.5,8.8,1.4
			l3.8,2.9c-1.2,0.7-2.5,1.5-4.1,2.4c-8.2,4.7-3.8,12.3,0.2,16.9c1.8,2.1,6.8,2.6,9.7,0.9l22.1-12.7l1-0.6l22-12.7
			C380.5,258.3,379.7,255.4,376,254.4z"/>
	</g>
</g>
<g id="_x32_">
	<g id="XMLID_2695_">
		<g id="XMLID_2698_" class="st75">
			<path id="XMLID_24_" class="st4" d="M478,313l-20.4,11.8c-9.2,5.3-25.3,4.7-36-1.5l-7.5-4.5c-10.6-6.1-11.8-15.4-2.6-20.8
				l20.4-11.8c9.2-5.3,25.3-4.7,36,1.5l7.5,4.5C486.1,298.4,487.3,307.7,478,313z"/>
			<path id="XMLID_44_" class="st76" d="M477.3,312.9l-20,11.5c-9,5.2-24.8,4.6-35.3-1.5l-7.2-4.3c-10.4-6-11.6-15.1-2.5-20.4
				l20-11.5c9-5.2,24.8-4.6,35.3,1.5l7.2,4.3C485.2,298.5,486.4,307.6,477.3,312.9z"/>
			<path id="XMLID_43_" class="st77" d="M476.6,312.7L457,324c-8.9,5.1-24.3,4.5-34.6-1.4l-6.9-4.1c-10.2-5.9-11.3-14.8-2.5-20
				l19.6-11.3c8.9-5.1,24.3-4.5,34.6,1.4l6.9,4.1C484.3,298.6,485.5,307.6,476.6,312.7z"/>
			<path id="XMLID_42_" class="st78" d="M475.9,312.5l-19.2,11.1c-8.7,5-23.8,4.4-33.9-1.4l-6.6-4c-10-5.8-11.1-14.5-2.4-19.6
				l19.2-11.1c8.7-5,23.8-4.4,33.9,1.4l6.6,4C483.5,298.7,484.5,307.5,475.9,312.5z"/>
			<path id="XMLID_41_" class="st79" d="M475.1,312.3l-18.8,10.9c-8.5,4.9-23.4,4.3-33.2-1.4l-6.4-3.8c-9.8-5.7-10.9-14.2-2.4-19.2
				l18.8-10.9c8.5-4.9,23.4-4.3,33.2,1.4l6.4,3.8C482.6,298.8,483.6,307.4,475.1,312.3z"/>
			<path id="XMLID_40_" class="st80" d="M474.4,312.1L456,322.7c-8.3,4.8-22.9,4.2-32.5-1.3l-6.1-3.6c-9.6-5.6-10.7-13.9-2.3-18.8
				l18.4-10.6c8.3-4.8,22.9-4.2,32.5,1.3l6.1,3.6C481.7,298.9,482.7,307.3,474.4,312.1z"/>
			<path id="XMLID_39_" class="st81" d="M473.7,311.9l-18,10.4c-8.1,4.7-22.4,4.1-31.8-1.3l-5.8-3.5c-9.4-5.4-10.4-13.6-2.3-18.4
				l18-10.4c8.1-4.7,22.4-4.1,31.8,1.3l5.8,3.5C480.8,299,481.8,307.2,473.7,311.9z"/>
			<path id="XMLID_38_" class="st82" d="M473,311.7l-17.6,10.2c-8,4.6-21.9,4-31.1-1.3l-5.5-3.3c-9.2-5.3-10.2-13.3-2.2-18
				l17.6-10.2c8-4.6,21.9-4,31.1,1.3l5.5,3.3C479.9,299.1,480.9,307.1,473,311.7z"/>
			<path id="XMLID_37_" class="st83" d="M472.2,311.5l-17.2,9.9c-7.8,4.5-21.4,3.9-30.4-1.3l-5.2-3.1c-9-5.2-10-13.1-2.2-17.5
				l17.2-9.9c7.8-4.5,21.4-3.9,30.4,1.3l5.2,3.1C479.1,299.2,480,307,472.2,311.5z"/>
			<path id="XMLID_36_" class="st84" d="M471.5,311.3l-16.8,9.7c-7.6,4.4-20.9,3.8-29.7-1.2l-4.9-3c-8.8-5.1-9.7-12.8-2.1-17.1
				l16.8-9.7c7.6-4.4,20.9-3.8,29.7,1.2l4.9,3C478.2,299.3,479.1,306.9,471.5,311.3z"/>
			<path id="XMLID_35_" class="st85" d="M470.8,311.1l-16.4,9.5c-7.4,4.3-20.4,3.8-29-1.2l-4.6-2.8c-8.6-5-9.5-12.5-2.1-16.7
				l16.4-9.5c7.4-4.3,20.4-3.8,29,1.2l4.6,2.8C477.3,299.4,478.2,306.9,470.8,311.1z"/>
			<path id="XMLID_34_" class="st86" d="M470.1,311l-16,9.3c-7.3,4.2-19.9,3.7-28.3-1.2l-4.3-2.6c-8.4-4.8-9.3-12.2-2-16.3l16-9.3
				c7.3-4.2,19.9-3.7,28.3,1.2l4.3,2.6C476.4,299.4,477.3,306.8,470.1,311z"/>
			<path id="XMLID_33_" class="st87" d="M469.4,310.8l-15.6,9c-7.1,4.1-19.4,3.6-27.6-1.1l-4-2.5c-8.2-4.7-9.1-11.9-2-15.9l15.6-9
				c7.1-4.1,19.4-3.6,27.6,1.1l4,2.5C475.5,299.5,476.4,306.7,469.4,310.8z"/>
			<path id="XMLID_32_" class="st88" d="M468.6,310.6l-15.3,8.8c-6.9,4-19,3.5-26.9-1.1l-3.7-2.3c-8-4.6-8.8-11.6-1.9-15.5l15.3-8.8
				c6.9-4,19-3.5,26.9,1.1l3.7,2.3C474.7,299.6,475.5,306.6,468.6,310.6z"/>
			<path id="XMLID_31_" class="st89" d="M467.9,310.4L453,319c-6.7,3.9-18.5,3.4-26.2-1.1l-3.4-2.1c-7.8-4.5-8.6-11.3-1.9-15.1
				l14.9-8.6c6.7-3.9,18.5-3.4,26.2,1.1l3.4,2.1C473.8,299.7,474.6,306.5,467.9,310.4z"/>
			<path id="XMLID_30_" class="st90" d="M467.2,310.2l-14.5,8.4c-6.5,3.8-18,3.3-25.5-1.1l-3.1-1.9c-7.6-4.4-8.4-11-1.8-14.7
				l14.5-8.4c6.5-3.8,18-3.3,25.5,1.1l3.1,1.9C472.9,299.8,473.7,306.4,467.2,310.2z"/>
			<path id="XMLID_29_" class="st91" d="M466.5,310l-14.1,8.1c-6.4,3.7-17.5,3.2-24.8-1l-2.8-1.8c-7.4-4.2-8.1-10.7-1.8-14.3
				l14.1-8.1c6.4-3.7,17.5-3.2,24.8,1l2.8,1.8C472,299.9,472.8,306.3,466.5,310z"/>
			<path id="XMLID_28_" class="st92" d="M465.7,309.8l-13.7,7.9c-6.2,3.6-17,3.1-24.1-1l-2.5-1.6c-7.1-4.1-7.9-10.4-1.7-13.9
				l13.7-7.9c6.2-3.6,17-3.1,24.1,1l2.5,1.6C471.1,300,471.9,306.2,465.7,309.8z"/>
			<path id="XMLID_27_" class="st93" d="M465,309.6l-13.3,7.7c-6,3.5-16.5,3-23.4-1l-2.2-1.4c-6.9-4-7.7-10.1-1.7-13.5l13.3-7.7
				c6-3.5,16.5-3,23.4,1l2.2,1.4C470.3,300.1,471,306.2,465,309.6z"/>
			<path id="XMLID_26_" class="st94" d="M464.3,309.4l-12.9,7.4c-5.8,3.4-16,2.9-22.8-0.9l-1.9-1.3c-6.7-3.9-7.5-9.8-1.6-13.1
				l12.9-7.4c5.8-3.4,16-2.9,22.8,0.9l1.9,1.3C469.4,300.2,470.1,306.1,464.3,309.4z"/>
			<path id="XMLID_25_" class="st95" d="M463.6,309.2l-12.5,7.2c-5.7,3.3-15.5,2.9-22.1-0.9l-1.6-1.1c-6.5-3.8-7.2-9.5-1.6-12.7
				l12.5-7.2c5.7-3.3,15.5-2.9,22.1,0.9l1.6,1.1C468.5,300.3,469.2,306,463.6,309.2z"/>
			<path id="XMLID_23_" class="st96" d="M462.8,309l-12.1,7c-5.5,3.2-15,2.8-21.4-0.9l-1.4-0.9c-6.3-3.7-7-9.2-1.5-12.3l12.1-7
				c5.5-3.2,15-2.8,21.4,0.9l1.4,0.9C467.6,300.4,468.3,305.9,462.8,309z"/>
		</g>
		<linearGradient id="XMLID_179_" gradientUnits="userSpaceOnUse" x1="449.4479" y1="306.6145" x2="439.8318" y2="306.6145">
			<stop  offset="1.100000e-007" style="stop-color:#FF5A00"/>
			<stop  offset="1" style="stop-color:#FF9B0C"/>
		</linearGradient>
		<path id="XMLID_2697_" class="st103" d="M473.3,300.8L473.3,300.8l-0.1-7.2l-57.8,4.3l0.1,7c0,0.2,0,0,0,0.2v0h0
			c0.1,1.1,1.1,2.3,2.7,3.3l16.7,9.8c3.3,1.9,8.2,2.1,11,0.5l25.5-14.7C472.8,303.1,473.4,301.9,473.3,300.8z"/>
		<linearGradient id="XMLID_180_" gradientUnits="userSpaceOnUse" x1="553.0606" y1="311.1736" x2="445.0028" y2="295.9824">
			<stop  offset="0" style="stop-color:#FF3100"/>
			<stop  offset="1" style="stop-color:#FFCD50"/>
		</linearGradient>
		<path id="XMLID_2696_" class="st104" d="M471.3,296.8l-25.5,14.7c-2.8,1.6-7.8,1.4-11-0.5l-16.7-9.8c-3.3-1.9-3.6-4.7-0.8-6.4
			l25.5-14.7c2.8-1.6,7.8-1.4,11,0.5l16.7,9.8C473.8,292.4,474.1,295.2,471.3,296.8z"/>
	</g>
	<g id="_x31_6_3_">
		<g id="XMLID_2692_">
			<linearGradient id="XMLID_181_" gradientUnits="userSpaceOnUse" x1="442.7147" y1="296.2786" x2="435.5325" y2="296.2786">
				<stop  offset="2.200000e-007" style="stop-color:#FF8700"/>
				<stop  offset="1" style="stop-color:#FFAF00"/>
			</linearGradient>
			<path id="XMLID_2694_" class="st105" d="M459.7,289.8l-1.3,0.4c-0.4-0.4-1-0.8-1.6-1.2l0,0c-3.5-2-8.8-2.3-11.8-0.5l-12.4,7.2
				l-3.7,1.1v3l0,0c0.1,1.3,1,2.7,2.9,3.8c3.5,2,8.8,2.3,11.8,0.5l14.1-8.2c1.3-0.8,2-1.8,2-2.9l0,0V289.8z"/>
			<linearGradient id="XMLID_182_" gradientUnits="userSpaceOnUse" x1="522.4786" y1="312.6058" x2="443.6371" y2="293.1559">
				<stop  offset="2.200000e-007" style="stop-color:#FF8700"/>
				<stop  offset="1" style="stop-color:#FFFFFF"/>
			</linearGradient>
			<path id="XMLID_2693_" class="st106" d="M457.6,292.9l-14.1,8.2c-3,1.8-8.3,1.5-11.8-0.5l0,0c-3.5-2-3.9-5.1-0.8-6.9l14.1-8.2
				c3-1.8,8.3-1.5,11.8,0.5l0,0C460.3,288.1,460.7,291.2,457.6,292.9z"/>
		</g>
		<linearGradient id="XMLID_183_" gradientUnits="userSpaceOnUse" x1="457.3192" y1="289.7406" x2="443.052" y2="289.7406">
			<stop  offset="1.100000e-007" style="stop-color:#FF5A00"/>
			<stop  offset="1" style="stop-color:#FF9B0C"/>
		</linearGradient>
		<path id="XMLID_2691_" class="st107" d="M455.2,286.8c2.8,1.6,2.8,4.2,0,5.8c-2.8,1.6-7.3,1.6-10.1,0s-2.8-4.2,0-5.8
			C447.9,285.2,452.4,285.2,455.2,286.8z"/>
	</g>
</g>
<g id="_x31_">
	<g id="XMLID_2448_">
		<g id="XMLID_2451_" class="st75">
			<path id="XMLID_5_" class="st4" d="M751,254.3l-24.4,14.1c-11,6.4-30.3,5.6-43-1.8l-9-5.4c-12.7-7.4-14.1-18.5-3.1-24.8
				l24.4-14.1c11-6.4,30.3-5.6,43,1.8l9,5.4C760.7,236.8,762.1,247.9,751,254.3z"/>
			<path id="XMLID_91_" class="st76" d="M750.2,254l-23.9,13.8c-10.8,6.2-29.7,5.5-42.2-1.7l-8.7-5.2c-12.5-7.2-13.8-18.1-3-24.4
				l23.9-13.8c10.8-6.2,29.7-5.5,42.2,1.7l8.7,5.2C759.6,236.9,761,247.8,750.2,254z"/>
			<path id="XMLID_90_" class="st77" d="M749.3,253.8l-23.4,13.5c-10.6,6.1-29.1,5.4-41.4-1.7l-8.3-5c-12.2-7.1-13.6-17.8-3-23.9
				l23.4-13.5c10.6-6.1,29.1-5.4,41.4,1.7l8.3,5C758.6,237,759.9,247.7,749.3,253.8z"/>
			<path id="XMLID_89_" class="st78" d="M748.4,253.6l-23,13.3c-10.4,6-28.5,5.2-40.5-1.7l-8-4.8c-12-6.9-13.3-17.4-2.9-23.4
				l23-13.3c10.4-6,28.5-5.2,40.5,1.7l8,4.8C757.5,237.1,758.8,247.6,748.4,253.6z"/>
			<path id="XMLID_22_" class="st79" d="M747.6,253.4l-22.5,13c-10.2,5.9-28,5.1-39.7-1.6l-7.6-4.6c-11.8-6.8-13-17.1-2.9-22.9
				l22.5-13c10.2-5.9,28-5.1,39.7,1.6l7.6,4.6C756.5,237.2,757.7,247.5,747.6,253.4z"/>
			<path id="XMLID_21_" class="st80" d="M746.7,253.1l-22,12.7c-10,5.8-27.4,5-38.9-1.6l-7.3-4.4c-11.5-6.6-12.8-16.7-2.8-22.4
				l22-12.7c10-5.8,27.4-5,38.9,1.6l7.3,4.4C755.4,237.3,756.7,247.4,746.7,253.1z"/>
			<path id="XMLID_20_" class="st81" d="M745.8,252.9l-21.6,12.4c-9.8,5.6-26.8,4.9-38-1.6l-6.9-4.2c-11.3-6.5-12.5-16.3-2.7-22
				l21.6-12.4c9.8-5.6,26.8-4.9,38,1.6l6.9,4.2C754.4,237.4,755.6,247.3,745.8,252.9z"/>
			<path id="XMLID_19_" class="st82" d="M745,252.7l-21.1,12.2c-9.5,5.5-26.2,4.8-37.2-1.5l-6.5-3.9c-11-6.4-12.2-16-2.7-21.5
				l21.1-12.2c9.5-5.5,26.2-4.8,37.2,1.5l6.5,3.9C753.3,237.5,754.5,247.2,745,252.7z"/>
			<path id="XMLID_18_" class="st83" d="M744.1,252.4l-20.6,11.9c-9.3,5.4-25.6,4.7-36.4-1.5l-6.2-3.7c-10.8-6.2-11.9-15.6-2.6-21
				l20.6-11.9c9.3-5.4,25.6-4.7,36.4,1.5l6.2,3.7C752.2,237.7,753.4,247.1,744.1,252.4z"/>
			<path id="XMLID_17_" class="st84" d="M743.2,252.2l-20.1,11.6c-9.1,5.3-25,4.6-35.6-1.5l-5.8-3.5c-10.5-6.1-11.7-15.3-2.6-20.5
				l20.1-11.6c9.1-5.3,25-4.6,35.6,1.5l5.8,3.5C751.2,237.8,752.3,247,743.2,252.2z"/>
			<path id="XMLID_16_" class="st85" d="M742.4,252l-19.7,11.4c-8.9,5.1-24.4,4.5-34.7-1.4l-5.5-3.3c-10.3-5.9-11.4-14.9-2.5-20
				l19.7-11.4c8.9-5.1,24.4-4.5,34.7,1.4l5.5,3.3C750.1,237.9,751.3,246.9,742.4,252z"/>
			<path id="XMLID_15_" class="st86" d="M741.5,251.8l-19.2,11.1c-8.7,5-23.9,4.4-33.9-1.4l-5.1-3.1c-10-5.8-11.1-14.5-2.4-19.6
				l19.2-11.1c8.7-5,23.9-4.4,33.9,1.4l5.1,3.1C749.1,238,750.2,246.7,741.5,251.8z"/>
			<path id="XMLID_14_" class="st87" d="M740.6,251.5l-18.7,10.8c-8.5,4.9-23.3,4.3-33.1-1.4l-4.8-2.9c-9.8-5.6-10.8-14.2-2.4-19.1
				l18.7-10.8c8.5-4.9,23.3-4.3,33.1,1.4l4.8,2.9C748,238.1,749.1,246.6,740.6,251.5z"/>
			<path id="XMLID_13_" class="st88" d="M739.8,251.3l-18.3,10.5c-8.3,4.8-22.7,4.2-32.2-1.3l-4.4-2.7c-9.5-5.5-10.6-13.8-2.3-18.6
				l18.3-10.5c8.3-4.8,22.7-4.2,32.2,1.3l4.4,2.7C747,238.2,748,246.5,739.8,251.3z"/>
			<path id="XMLID_12_" class="st89" d="M738.9,251.1l-17.8,10.3c-8,4.6-22.1,4.1-31.4-1.3l-4.1-2.5c-9.3-5.4-10.3-13.5-2.3-18.1
				l17.8-10.3c8-4.6,22.1-4.1,31.4,1.3l4.1,2.5C745.9,238.3,746.9,246.4,738.9,251.1z"/>
			<path id="XMLID_11_" class="st90" d="M738,250.8l-17.3,10c-7.8,4.5-21.5,4-30.6-1.3l-3.7-2.3c-9-5.2-10-13.1-2.2-17.6l17.3-10
				c7.8-4.5,21.5-4,30.6,1.3l3.7,2.3C744.9,238.4,745.9,246.3,738,250.8z"/>
			<path id="XMLID_10_" class="st91" d="M737.2,250.6l-16.8,9.7c-7.6,4.4-20.9,3.8-29.7-1.2l-3.4-2.1c-8.8-5.1-9.8-12.8-2.1-17.2
				l16.8-9.7c7.6-4.4,20.9-3.8,29.7,1.2l3.4,2.1C743.8,238.5,744.8,246.2,737.2,250.6z"/>
			<path id="XMLID_9_" class="st92" d="M736.3,250.4l-16.4,9.5c-7.4,4.3-20.3,3.7-28.9-1.2l-3-1.9c-8.6-4.9-9.5-12.4-2.1-16.7
				l16.4-9.5c7.4-4.3,20.3-3.7,28.9,1.2l3,1.9C742.8,238.6,743.7,246.1,736.3,250.4z"/>
			<path id="XMLID_8_" class="st93" d="M735.4,250.2l-15.9,9.2c-7.2,4.2-19.8,3.6-28.1-1.2l-2.7-1.7c-8.3-4.8-9.2-12-2-16.2
				l15.9-9.2c7.2-4.2,19.8-3.6,28.1,1.2l2.7,1.7C741.7,238.8,742.6,246,735.4,250.2z"/>
			<path id="XMLID_7_" class="st94" d="M734.6,249.9l-15.4,8.9c-7,4-19.2,3.5-27.2-1.1l-2.3-1.5c-8.1-4.7-8.9-11.7-2-15.7l15.4-8.9
				c7-4,19.2-3.5,27.2,1.1l2.3,1.5C740.7,238.9,741.5,245.9,734.6,249.9z"/>
			<path id="XMLID_6_" class="st95" d="M733.7,249.7l-15,8.6c-6.8,3.9-18.6,3.4-26.4-1.1l-2-1.3c-7.8-4.5-8.7-11.3-1.9-15.2l15-8.6
				c6.8-3.9,18.6-3.4,26.4,1.1l2,1.3C739.6,239,740.5,245.8,733.7,249.7z"/>
			<path id="XMLID_4_" class="st96" d="M732.8,249.5l-14.5,8.4c-6.6,3.8-18,3.3-25.6-1.1l-1.6-1.1c-7.6-4.4-8.4-11-1.8-14.8
				l14.5-8.4c6.6-3.8,18-3.3,25.6,1.1l1.6,1.1C738.6,239.1,739.4,245.7,732.8,249.5z"/>
		</g>
		<linearGradient id="XMLID_184_" gradientUnits="userSpaceOnUse" x1="712.1776" y1="248.182" x2="700.0923" y2="248.182">
			<stop  offset="0" style="stop-color:#3998FF"/>
			<stop  offset="1" style="stop-color:#00CFFF"/>
		</linearGradient>
		<path id="XMLID_2450_" class="st108" d="M745.3,241.2L745.3,241.2l-0.2-8.7l-69.1,5.1l0.1,8.4c0,0.2,0,0,0,0.2v0h0
			c0.2,1.4,1.3,2.8,3.2,3.9l20,11.7c3.9,2.3,9.8,2.5,13.2,0.5l30.5-17.6C744.8,243.9,745.5,242.6,745.3,241.2z"/>
		<linearGradient id="XMLID_185_" gradientUnits="userSpaceOnUse" x1="699.1054" y1="234.9857" x2="838.2098" y2="239.201">
			<stop  offset="0" style="stop-color:#00FFFF"/>
			<stop  offset="1" style="stop-color:#3998FF"/>
		</linearGradient>
		<path id="XMLID_2449_" class="st109" d="M742.9,236.5l-30.5,17.6c-3.4,2-9.3,1.7-13.2-0.5l-20-11.7c-3.9-2.3-4.3-5.7-0.9-7.6
			l30.5-17.6c3.4-2,9.3-1.7,13.2,0.5l20,11.7C745.9,231.1,746.3,234.5,742.9,236.5z"/>
	</g>
	<g id="_x31_6_2_">
		<g id="XMLID_2445_">
			<linearGradient id="XMLID_186_" gradientUnits="userSpaceOnUse" x1="708.7905" y1="235.9694" x2="700.4163" y2="235.9694">
				<stop  offset="0" style="stop-color:#3998FF"/>
				<stop  offset="1" style="stop-color:#00CFFF"/>
			</linearGradient>
			<path id="XMLID_2447_" class="st110" d="M728.6,228.4l-1.5,0.5c-0.5-0.5-1.1-1-1.9-1.4v0c-4.1-2.4-10.2-2.6-13.8-0.6l-14.4,8.4
				l-4.4,1.3v3.5l0,0c0.1,1.5,1.2,3.2,3.4,4.4c4.1,2.4,10.2,2.6,13.8,0.6l16.4-9.5c1.6-0.9,2.4-2.1,2.4-3.4l0,0V228.4z"/>
			<linearGradient id="XMLID_187_" gradientUnits="userSpaceOnUse" x1="801.7928" y1="255.0063" x2="709.866" y2="232.3284">
				<stop  offset="3.200000e-007" style="stop-color:#3FECFF"/>
				<stop  offset="1" style="stop-color:#FFFFFF"/>
			</linearGradient>
			<path id="XMLID_2446_" class="st111" d="M726.2,232.1l-16.4,9.5c-3.5,2.1-9.7,1.8-13.8-0.6l0,0c-4.1-2.4-4.5-6-1-8l16.4-9.5
				c3.5-2.1,9.7-1.8,13.8,0.6l0,0C729.3,226.4,729.7,230,726.2,232.1z"/>
		</g>
		<linearGradient id="XMLID_188_" gradientUnits="userSpaceOnUse" x1="725.8188" y1="228.3463" x2="709.1838" y2="228.3463">
			<stop  offset="0" style="stop-color:#3998FF"/>
			<stop  offset="1" style="stop-color:#00CFFF"/>
		</linearGradient>
		<path id="XMLID_2444_" class="st112" d="M723.4,225c3.2,1.9,3.2,4.9,0,6.8c-3.2,1.9-8.5,1.9-11.8,0c-3.2-1.9-3.2-4.9,0-6.8
			C714.9,223.1,720.1,223.1,723.4,225z"/>
	</g>
</g>
</svg>
