<?xml version="1.0" encoding="utf-8"?>
<!-- Generator: Adobe Illustrator 19.0.0, SVG Export Plug-In . SVG Version: 6.00 Build 0)  -->
<svg version="1.1" id="Layer_1" xmlns="http://www.w3.org/2000/svg" xmlns:xlink="http://www.w3.org/1999/xlink" x="0px" y="0px"
	 viewBox="0 0 2000 2000" style="enable-background:new 0 0 2000 2000;" xml:space="preserve">
<style type="text/css">
	.st0{fill:#FFFFFF;}
	.st1{fill:#F1F2F2;}
	.st2{font-family:'MyriadPro-Regular';}
	.st3{font-size:99.0777px;}
</style>
<g>
	<path class="st0" d="M1097,782.9l8.7-16v45.5V828v13.3c0,43.2-35.1,78.3-78.3,78.3H734.7v-28.9c0-43.2,35.1-78.3,78.3-78.3h234.2
		C1068,812.4,1087.1,801.1,1097,782.9z M791.6,963.2c-29.6,0-53.6,24-53.6,53.6s24,53.6,53.6,53.6c29.6,0,53.6-24,53.6-53.6
		S821.2,963.2,791.6,963.2z M848.6,590.1c-60.2,0-109.2,48.1-110.5,108c0,0.7-0.1,1.4-0.1,2.2v0.4v40.8v66.1l12.4-22.8
		c14.2-25.9,41.4-42,70.9-42l17.8-1.3h312.3c61.1,0,110.6-49.5,110.6-110.6v-40.8H848.6z"/>
	<g>
		<g>
			<path class="st0" d="M304.4,1211.4H172.2v29.4H275v29.3H172.2v58.7h-29.3v-146.8h14.7h14.7h132.2V1211.4z"/>
			<path class="st0" d="M493.6,1328.9h-29.3v-57.4l-72.8-89.5h37.9l50.4,61.9l50.4-61.9h37.9l-74.3,91.3V1328.9z"/>
			<path class="st0" d="M684.2,1217.1v111.7h-29.3v-146.8h35.6l113.7,111.8v-111.8h29.3v146.8h-35.6L684.2,1217.1z"/>
			<path class="st0" d="M942.5,1182.1h7.3h73.5c15.7,0,29.5,5.7,41.5,17.2c11.5,12,17.2,25.8,17.2,41.6v29.3
				c0,15.7-5.7,29.5-17.2,41.5c-12,11.5-25.8,17.2-41.5,17.2h-73.5h-7.3h-22.1v-146.8H942.5z M1023.3,1211.4h-73.5v88.1h73.5
				c8.1,0,15-2.9,20.7-8.6c5.7-5.7,8.6-12.7,8.6-20.7v-29.3c0-8.1-2.9-15.1-8.6-20.8C1038.3,1214.3,1031.4,1211.4,1023.3,1211.4z"/>
			<path class="st0" d="M1169,1270.2v-29.3c0-15.7,5.7-29.6,17.2-41.6c12-11.5,25.8-17.2,41.5-17.2h53.9c15.7,0,29.5,5.7,41.6,17.2
				c11.4,12,17.1,25.8,17.1,41.6v29.3c0,15.7-5.7,29.5-17.1,41.5c-12,11.5-25.9,17.2-41.6,17.2h-53.9c-15.7,0-29.5-5.7-41.5-17.2
				C1174.7,1299.7,1169,1285.9,1169,1270.2z M1198.3,1240.8v29.3c0,8.1,2.9,15,8.6,20.7c5.7,5.7,12.7,8.6,20.7,8.6h53.9
				c8.1,0,15-2.9,20.7-8.6c5.7-5.7,8.6-12.7,8.6-20.7v-29.3c0-8.1-2.9-15.1-8.6-20.8c-5.7-5.7-12.7-8.6-20.7-8.6h-53.9
				c-8.1,0-15,2.9-20.7,8.6C1201.2,1225.8,1198.3,1232.7,1198.3,1240.8z"/>
			<path class="st0" d="M1456.6,1279.9v48.9h-29.3v-146.8h103.9c9,0,17.2,2.2,24.6,6.6c7.4,4.4,13.3,10.3,17.7,17.8
				c4.4,7.4,6.6,15.6,6.6,24.6c0,9.6-2.5,18.4-7.5,26.2c-5,7.8-11.6,13.7-19.9,17.9l28.6,53.4H1548l-26-48.4H1456.6z M1456.6,1211.4
				v39.2h74.6c5.4,0,10-1.9,13.9-5.7s5.7-8.4,5.7-13.9c0-5.4-1.9-10-5.7-13.9c-3.8-3.8-8.4-5.7-13.9-5.7H1456.6z"/>
			<path class="st0" d="M1701.7,1328.9h-33.3l79-146.8h30.8l79,146.8h-33.3l-61-113.4L1701.7,1328.9z"/>
		</g>
	</g>
</g>
<text transform="matrix(1 0 0 1 488.644 1449.9418)" class="st1 st2 st3">Technology   Consulting</text>
<rect x="999.5" y="1375.3" class="st1" width="4.1" height="91.4"/>
</svg>
