<?xml version="1.0" encoding="utf-8"?>
<!-- Generator: Adobe Illustrator 19.0.0, SVG Export Plug-In . SVG Version: 6.00 Build 0)  -->
<svg version="1.1" xmlns="http://www.w3.org/2000/svg" xmlns:xlink="http://www.w3.org/1999/xlink" x="0px" y="0px"
	 viewBox="0 0 3000 2100" style="enable-background:new 0 0 3000 2100;" xml:space="preserve">
<style type="text/css">
	.st0{clip-path:url(#SVGID_2_);fill:url(#SVGID_3_);}
	.st1{fill-rule:evenodd;clip-rule:evenodd;fill:#3DABF9;}
	.st2{fill-rule:evenodd;clip-rule:evenodd;fill:#102B6E;}
	.st3{clip-path:url(#SVGID_5_);fill:url(#SVGID_6_);}
	.st4{fill-rule:evenodd;clip-rule:evenodd;fill:#FFFFFF;}
	.st5{fill:#9ED8F5;}
	.st6{fill-rule:evenodd;clip-rule:evenodd;fill:#B7EBFF;}
	.st7{fill:#000446;}
	.st8{fill-rule:evenodd;clip-rule:evenodd;fill:#6D6E9B;}
	.st9{fill-rule:evenodd;clip-rule:evenodd;fill:#1677FF;}
	.st10{fill:#F4B1B1;}
	.st11{fill-rule:evenodd;clip-rule:evenodd;fill:#FD9900;}
	.st12{fill-rule:evenodd;clip-rule:evenodd;fill:#9ED8F5;}
	.st13{fill-rule:evenodd;clip-rule:evenodd;fill:#1A80E1;}
	.st14{fill-rule:evenodd;clip-rule:evenodd;fill:#000446;}
	.st15{fill-rule:evenodd;clip-rule:evenodd;fill:#F4B1B1;}
	.st16{fill:#663300;}
	.st17{fill-rule:evenodd;clip-rule:evenodd;fill:#464878;}
	.st18{fill-rule:evenodd;clip-rule:evenodd;fill:#ED8082;}
	.st19{fill-rule:evenodd;clip-rule:evenodd;fill:#092978;}
	.st20{fill-rule:evenodd;clip-rule:evenodd;fill:#CB4700;}
	.st21{fill-rule:evenodd;clip-rule:evenodd;fill:#A53A00;}
	.st22{fill-rule:evenodd;clip-rule:evenodd;fill:#8B3202;}
	.st23{fill-rule:evenodd;clip-rule:evenodd;fill:#FF0066;}
	.st24{fill-rule:evenodd;clip-rule:evenodd;fill:#89C5FF;}
	.st25{fill-rule:evenodd;clip-rule:evenodd;fill:#4598E7;}
	.st26{fill-rule:evenodd;clip-rule:evenodd;fill:#297FCE;}
	.st27{fill-rule:evenodd;clip-rule:evenodd;fill:#D84C00;}
	.st28{fill-rule:evenodd;clip-rule:evenodd;fill:#F9707A;}
	.st29{fill:#CB4700;}
	.st30{fill-rule:evenodd;clip-rule:evenodd;fill:#022FA0;}
	.st31{clip-path:url(#SVGID_8_);fill:url(#SVGID_9_);}
	.st32{clip-path:url(#SVGID_11_);fill:url(#SVGID_12_);}
</style>
<g id="Layer_2">
	<g>
		<defs>
			<path id="SVGID_1_" d="M1435.4,307.4c-128.2,44-250,138.1-345.9,225.9C889.7,716.2,859.8,754.6,613.3,908.1
				c-143.7,89.5-256.9,165.1-312.8,266.3c-156.8,284.2,30,591.2,421.3,591.2c15.9,0,1590.7,0,1590.7,0s187.1,3.9,323.6-148
				C3098.9,1102.7,2331.4,0,1435.4,307.4"/>
		</defs>
		<clipPath id="SVGID_2_">
			<use xlink:href="#SVGID_1_"  style="overflow:visible;"/>
		</clipPath>
		<linearGradient id="SVGID_3_" gradientUnits="userSpaceOnUse" x1="1621.3125" y1="3069.5386" x2="1621.3864" y2="-779.4439">
			<stop  offset="0" style="stop-color:#D54699"/>
			<stop  offset="7.681686e-002" style="stop-color:#DB5FA7"/>
			<stop  offset="0.2413" style="stop-color:#E690C2"/>
			<stop  offset="0.405" style="stop-color:#EFB8D8"/>
			<stop  offset="0.5648" style="stop-color:#F6D7E9"/>
			<stop  offset="0.7196" style="stop-color:#FBEDF5"/>
			<stop  offset="0.8673" style="stop-color:#FEFAFC"/>
			<stop  offset="1" style="stop-color:#FFFFFF"/>
		</linearGradient>
		<rect x="143.8" y="0" class="st0" width="2955.1" height="1769.5"/>
	</g>
	<path class="st1" d="M2573.7,878.1H1448.2c-27.6,0-42.9,23.6-50.2,50.2L1187.3,1696c-7.3,26.6,22.6,50.2,50.2,50.2h1163.6
		c27.6,0,44.1-23.3,50.2-50.2l172.6-767.7C2629.9,901.4,2601.3,878.1,2573.7,878.1"/>
	<path class="st2" d="M2540.5,878.1H1415c-27.6,0-42.9,23.6-50.2,50.2L1154.1,1696c-7.3,26.6,22.6,50.2,50.2,50.2h1163.6
		c27.6,0,44.1-23.3,50.2-50.2l172.6-767.7C2596.7,901.4,2568.1,878.1,2540.5,878.1"/>
	<g>
		<defs>
			<path id="SVGID_4_" d="M2527.6,918.5h-1103c-8,0-12.3,6.8-14.5,14.5l-196.6,689c-2.2,7.6,6.5,14.5,14.5,14.5h1140
				c7.9,0,12.7-6.7,14.5-14.5l159.6-689C2543.9,925.2,2535.6,918.5,2527.6,918.5"/>
		</defs>
		<clipPath id="SVGID_5_">
			<use xlink:href="#SVGID_4_"  style="overflow:visible;"/>
		</clipPath>
		<linearGradient id="SVGID_6_" gradientUnits="userSpaceOnUse" x1="1665.7385" y1="2257.2585" x2="1922.306" y2="1070.7675">
			<stop  offset="0" style="stop-color:#1E9DF8"/>
			<stop  offset="1" style="stop-color:#B9E4FF"/>
		</linearGradient>
		<rect x="1211.4" y="918.5" class="st3" width="1332.5" height="717.9"/>
	</g>
	<path class="st4" d="M2029.2,661.2c90.6,0,181.4,0,272.1,0c90.7,0,181.5,0,272.3,0c-24.5,102.2-48.9,204.4-73.3,306.5
		c-24.4,102.1-48.8,204.3-73.2,306.4c-90.8,0-181.6,0-272.3,0c-90.6,0-181.4,0-272.1,0c24.5-102.1,48.8-204.3,73.2-306.4
		C1980.4,865.6,2004.8,763.4,2029.2,661.2"/>
	<path class="st5" d="M2070.6,1091.7c-19.1,0-38.2,0-57.3,0c-1.9,0-4,0.9-5.7,2.1l0,0c-1.6,1.3-2.8,3.1-3.3,5.1
		c-4.6,19.1-9.1,38.2-13.7,57.2c-0.4,2-0.1,3.8,0.9,5.1c1,1.3,2.6,2.1,4.6,2.1c19,0,38.1,0,57.2,0c2.1,0,4-0.8,5.7-2.1
		c0,0,0,0,0-0.1c1.6-1.3,2.9-3.1,3.3-5.1c4.6-19.1,9.1-38.1,13.7-57.2c0.5-2,0.1-3.8-0.9-5.1l0,0
		C2074.2,1092.6,2072.6,1091.7,2070.6,1091.7 M2015.4,1083.1c19.1,0,38.2,0,57.3,0c4.4,0,7.9,1.8,10.1,4.7c0,0,0,0,0.1,0
		c2.1,2.9,3,6.9,1.9,11.3c-4.6,19.1-9.1,38.2-13.7,57.2c-1,4.4-3.8,8.4-7.3,11.3c0,0,0,0,0-0.1c-3.7,2.9-8.1,4.7-12.4,4.7
		c-19.1,0-38.2,0-57.3,0c-4.4,0-7.9-1.8-10.2-4.7c-2.1-2.9-3-6.9-1.9-11.3c4.6-19.1,9.1-38.1,13.7-57.2c1-4.4,3.8-8.4,7.3-11.3l0,0
		C2006.6,1084.8,2011.1,1083.1,2015.4,1083.1z"/>
	<path class="st6" d="M2505,708.1c-26.1,0-52.2,0-78.2,0c-26.1,0-52.2,0-78.3,0c-7.3,30.5-14.5,60.9-21.8,91.3
		c-7.3,30.4-14.5,60.8-21.8,91.2c26.1,0,52.2,0,78.3,0c26,0,52.1,0,78.2,0c7.3-30.4,14.5-60.8,21.8-91.2
		C2490.5,769,2497.8,738.6,2505,708.1"/>
	<path class="st7" d="M2392.8,804.6c0,0-31-0.4-47.1,13.5c-6.4,6.1-25.4,42-33.4,72.6c24.2,0,48.4,0,72.5,0c24.2,0,48.4,0,72.6,0
		c7.6-36.7,2.2-66.4-2.6-73.2c-3.1-5.2-23.4-14.3-36.2-12.7c0,0-0.6,17.2-13.4,18.4C2391.4,822.4,2393.5,811,2392.8,804.6"/>
	<path class="st8" d="M2420.3,803.4c-1.4,4.4-2.8,8.6-4.1,12.9c-7.3,24.8-14.6,49.6-21.8,74.3c3,0,6,0,9,0
		c8.2-16.6,16.5-33.2,24.7-49.9c-2.1-3.3-4.2-6.6-6.3-9.9c2.8-2.5,5.5-4.9,8.3-7.4c0.3-6,0.7-12,1.1-18.1
		C2428.9,804.7,2425.8,803.4,2420.3,803.4"/>
	<path class="st8" d="M2390.2,803.4c-0.1,3.9-0.3,7.8-0.4,11.7c-1.8,25.2-3.6,50.4-5.4,75.6c-3,0-5.8,0-8.7,0
		c-2.1-16.1-4-32.2-6-48.4c3.4-3.7,6.8-7.4,10.3-11.1c-2-2.1-3.9-4.3-5.9-6.4c1.8-6.4,3.7-12.9,5.5-19.3
		C2381.9,804.9,2387.9,803.4,2390.2,803.4"/>
	<path class="st4" d="M2423.4,803.4c-2.1,16.9-15,54.7-26.5,87.3c-4.7,0-9.4,0-14.1,0c1.5-33.5,3.7-75.5,5.3-87.3
		C2397.1,801.7,2408.2,800.1,2423.4,803.4"/>
	<path class="st9" d="M2398.6,885.6c-0.6,1.7-1.2,3.4-1.7,5.1c-4.8,0-9.6,0-14.4,0c0.1-2.5,0.2-5.1,0.3-7.7
		c5-15.1,10-30.2,15.1-45.3c-0.5-2.4-0.9-4.8-1.4-7.2c2.6-2.5,5-5,7.5-7.5c1.3,2.6,2.6,5.1,3.9,7.6c-1.7,2.3-3.2,4.7-4.8,7
		C2401.6,853.6,2400.2,869.6,2398.6,885.6"/>
	<path class="st10" d="M2396.4,784c1.4,2.9,0.1,7.7-0.9,11.2c-1,3.2-1.7,6.5-2.7,9.7c-0.2,0.4-0.3,0.9-0.4,1.2
		c0.6,6.4-0.6,16.3,12.9,17c12.8-1.2,13.4-18.4,13.4-18.4c-0.1-1.2,0-2.3,0.3-3.6c0.2-1.2,0.6-2.2,1.1-3.4c0.4-0.8,1.7-3,1.2-2.8
		C2413,791.2,2404.7,787.6,2396.4,784"/>
	<path class="st10" d="M2447.4,745.1c0,0,1.9,47.6-22.2,53.9c0,0-20.7,5-27.6-14c0,0-14-10.9-2.6-19.9c0,0,3.9-2.6,6.6,0
		c0.3-6.6,0.6-13.2,0.8-19.9c6.1-4.5,12.2-9.1,18.4-13.7c5.2,2.3,10.6,4.7,15.8,7C2440.2,740.7,2443.8,742.9,2447.4,745.1"/>
	<path class="st7" d="M2399.5,766.3c0.1,0.6,1.7,10.5,2.6,10.3c1.2-0.2,1.5-3.3,1.7-4.2c3.3-15,10.9-11.5,20.9-9.3
		c7.2,1.6,14.7,3.3,21.1-0.1c7.4-3.9,13-13.2,8.7-20.9c-4.5-8-17.4-14.2-22.6-15.7c-5.2-1.4-22.3-2.3-29.4,11.8
		c-12.7,3.9-16.2,29.5-8.7,28.8c1.6-0.1,4.4-1.8,5.3-0.1c-0.2-0.1-0.3-0.3-0.4-0.4C2398.8,766.5,2399.2,766.4,2399.5,766.3"/>
	<path class="st5" d="M2102.1,959.7c-19.1,0-38.2,0-57.2,0c-2,0-4.1,0.8-5.7,2.1l0,0c-1.6,1.3-2.8,3.1-3.3,5.1
		c-4.6,19.1-9.1,38.2-13.7,57.2c-0.5,2-0.1,3.8,0.9,5.1c1,1.3,2.6,2.1,4.6,2.1c19.1,0,38.2,0,57.3,0c2,0,4-0.8,5.6-2.1l0,0
		c1.7-1.3,2.9-3.1,3.4-5.1c4.6-19.1,9.1-38.1,13.7-57.2c0.5-2,0.1-3.8-0.9-5.1l0,0C2105.8,960.5,2104.2,959.7,2102.1,959.7
		 M2047,951c19,0,38.1,0,57.2,0c4.4,0,7.9,1.8,10.1,4.7c0,0,0,0,0.1,0c2.2,2.9,3,6.9,2,11.2c-4.6,19.1-9.1,38.2-13.7,57.2
		c-1,4.4-3.8,8.4-7.4,11.3l0,0c-3.6,2.9-8,4.7-12.4,4.7c-19.1,0-38.2,0-57.3,0c-4.4,0-7.9-1.8-10.2-4.7c-2.1-2.9-3-6.9-1.9-11.3
		c4.6-19.1,9.1-38.1,13.7-57.2c1-4.4,3.8-8.3,7.3-11.2l0,0C2038.1,952.8,2042.6,951,2047,951z"/>
	<path class="st11" d="M2052,1000.5c19.5-14.9,39-29.8,58.6-44.7c4.6-3.5,10.4-3.3,13,0.4c2.6,3.7,1,9.6-3.6,13.1
		c-22.5,17.1-44.9,34.2-67.2,51.2c-0.1,0.1-0.1,0.1-0.2,0.1c-4.6,3.3-10.4,2.9-12.8-0.9c-6.5-10.1-12.9-20.2-19.3-30.3
		c-2.5-3.9-0.6-9.7,3.9-13.1c4.6-3.4,10.4-2.9,12.9,0.9C2042.2,985,2047.1,992.8,2052,1000.5"/>
	<path class="st12" d="M2169.5,957c25.7,0,51.3,0,77,0c3.1,0,5,2.5,4.4,5.6l0,0c-0.8,3.1-3.9,5.6-7,5.6c-25.7,0-51.3,0-77,0
		c-3,0-5-2.5-4.2-5.6l0,0C2163.4,959.5,2166.4,957,2169.5,957"/>
	<path class="st12" d="M2162.4,986.8c22.9,0,45.7,0,68.6,0s45.7,0,68.5,0c3.1,0,5,2.5,4.3,5.6l0,0c-0.8,3.1-3.9,5.6-7,5.6
		c-22.9,0-45.7,0-68.5,0c-22.9,0-45.7,0-68.6,0c-3,0-5-2.5-4.2-5.6l0,0C2156.3,989.3,2159.4,986.8,2162.4,986.8"/>
	<path class="st12" d="M2329.3,986.8c15.8,0,31.5,0,47.2,0c3,0,5,2.5,4.3,5.6l0,0c-0.8,3.1-3.9,5.6-7,5.6c-15.7,0-31.4,0-47.2,0
		c-3.1,0-5-2.5-4.2-5.6l0,0C2323.1,989.3,2326.2,986.8,2329.3,986.8"/>
	<path class="st12" d="M2155.5,1015.4c11.4,0,22.9,0,34.3,0c3.1,0,5,2.5,4.3,5.6l0,0c-0.8,3.1-3.9,5.6-6.9,5.6
		c-11.5,0-22.9,0-34.3,0c-3,0-5-2.5-4.2-5.6l0,0C2149.4,1018,2152.5,1015.4,2155.5,1015.4"/>
	<path class="st12" d="M2213.2,1015.4c40.2,0,80.4,0,120.7,0c3,0,5,2.5,4.2,5.6l0,0c-0.7,3.1-3.8,5.6-6.9,5.6
		c-40.2,0-80.5,0-120.7,0c-3.1,0-5-2.5-4.3-5.6l0,0C2207,1018,2210.1,1015.4,2213.2,1015.4"/>
	<path class="st12" d="M2357.3,1015.4c18.2,0,36.5,0,54.8,0c3,0,5,2.5,4.2,5.6l0,0c-0.7,3.1-3.9,5.6-6.9,5.6c-18.3,0-36.5,0-54.7,0
		c-3.1,0-5-2.5-4.4-5.6l0,0C2351,1018,2354.1,1015.4,2357.3,1015.4"/>
	<path class="st11" d="M2019.2,1137.8c19.5-14.9,39-29.8,58.6-44.7c4.6-3.4,10.4-3.2,13,0.5c2.6,3.7,1,9.6-3.6,13.1
		c-22.5,17.1-44.9,34.2-67.3,51.2c-0.1,0.1-0.1,0.1-0.1,0.1c-4.6,3.3-10.4,2.9-12.9-0.9c-6.4-10.1-12.9-20.2-19.2-30.3
		c-2.5-3.9-0.6-9.7,3.9-13.1c4.6-3.4,10.4-3,12.8,0.9C2009.3,1122.4,2014.3,1130.1,2019.2,1137.8"/>
	<path class="st12" d="M2136.7,1094.4c25.7,0,51.3,0,77,0c3.1,0,5,2.5,4.3,5.6l0,0c-0.7,3.1-3.8,5.6-6.9,5.6c-25.7,0-51.3,0-77,0
		c-3,0-5-2.5-4.2-5.6l0,0C2130.6,1096.9,2133.6,1094.4,2136.7,1094.4"/>
	<path class="st12" d="M2129.5,1124.1c22.9,0,45.7,0,68.6,0s45.7,0,68.6,0c3.1,0,5,2.5,4.2,5.6l0,0c-0.7,3.1-3.8,5.6-6.9,5.6
		c-22.9,0-45.7,0-68.5,0c-22.9,0-45.7,0-68.6,0c-3,0-5-2.5-4.2-5.6l0,0C2123.5,1126.6,2126.5,1124.1,2129.5,1124.1"/>
	<path class="st12" d="M2296.5,1124.1c15.8,0,31.4,0,47.2,0c3,0,5,2.5,4.2,5.6l0,0c-0.7,3.1-3.9,5.6-6.9,5.6c-15.7,0-31.4,0-47.2,0
		c-3.1,0-5-2.5-4.3-5.6l0,0C2290.3,1126.6,2293.4,1124.1,2296.5,1124.1"/>
	<path class="st12" d="M2122.7,1152.7c11.4,0,22.9,0,34.3,0c3.1,0,5,2.5,4.3,5.6l0,0c-0.8,3.1-3.9,5.6-6.9,5.6
		c-11.5,0-22.9,0-34.3,0c-3,0-5-2.5-4.2-5.6l0,0C2116.6,1155.3,2119.7,1152.7,2122.7,1152.7"/>
	<path class="st12" d="M2180.4,1152.7c40.2,0,80.4,0,120.7,0c3,0,5,2.5,4.2,5.6l0,0c-0.7,3.1-3.8,5.6-6.9,5.6
		c-40.2,0-80.5,0-120.7,0c-3.1,0-5-2.5-4.3-5.6l0,0C2174.2,1155.3,2177.3,1152.7,2180.4,1152.7"/>
	<path class="st12" d="M2324.4,1152.7c18.2,0,36.5,0,54.8,0c3,0,5,2.5,4.2,5.6l0,0c-0.7,3.1-3.9,5.6-6.9,5.6c-18.3,0-36.5,0-54.7,0
		c-3.1,0-5-2.5-4.4-5.6l0,0C2318.2,1155.3,2321.3,1152.7,2324.4,1152.7"/>
	<path class="st12" d="M2080.3,763.1c25.6,0,51.3,0,77,0c3.1,0,5,2.5,4.4,5.6l0,0c-0.8,3.1-3.9,5.6-7,5.6c-25.7,0-51.3,0-77,0
		c-3,0-5-2.5-4.3-5.6l0,0C2074.1,765.6,2077.3,763.1,2080.3,763.1"/>
	<path class="st12" d="M2073.2,792.8c22.9,0,45.7,0,68.6,0c22.9,0,45.7,0,68.6,0c3,0,5,2.5,4.3,5.6l0,0c-0.8,3.1-3.9,5.6-7,5.6
		c-22.8,0-45.7,0-68.5,0s-45.7,0-68.6,0c-3,0-5-2.5-4.3-5.6l0,0C2067.1,795.3,2070.2,792.8,2073.2,792.8"/>
	<path class="st12" d="M2066.4,821.5c11.4,0,22.8,0,34.3,0c3.1,0,5,2.5,4.3,5.6l0,0c-0.8,3.1-3.8,5.6-6.9,5.6c-11.5,0-22.9,0-34.3,0
		c-3,0-5-2.5-4.3-5.6l0,0C2060.2,824,2063.4,821.5,2066.4,821.5"/>
	<path class="st12" d="M2124.1,821.5c40.2,0,80.4,0,120.6,0c3.1,0,5,2.5,4.4,5.6l0,0c-0.8,3.1-3.9,5.6-7,5.6c-40.2,0-80.4,0-120.7,0
		c-3,0-5-2.5-4.2-5.6l0,0C2117.9,824,2121,821.5,2124.1,821.5"/>
	<path class="st12" d="M2059.6,850.1c22.9,0,45.7,0,68.6,0s45.7,0,68.6,0c3,0,5,2.5,4.3,5.6l0,0c-0.8,3.1-3.9,5.6-7,5.6
		c-22.8,0-45.7,0-68.5,0c-22.9,0-45.7,0-68.6,0c-3,0-5-2.5-4.3-5.6l0,0C2053.3,852.6,2056.5,850.1,2059.6,850.1"/>
	<path class="st12" d="M2226.5,850.1c15.8,0,31.4,0,47.3,0c3,0,5,2.5,4.3,5.6l0,0c-0.8,3.1-3.9,5.6-7,5.6c-15.8,0-31.5,0-47.2,0
		c-3.1,0-5-2.5-4.2-5.6l0,0C2220.3,852.6,2223.4,850.1,2226.5,850.1"/>
	<path class="st12" d="M2052.4,880.2c25.6,0,51.3,0,77,0c3.1,0,5,2.5,4.3,5.6l0,0c-0.7,3.1-3.9,5.6-7,5.6c-25.6,0-51.3,0-77,0
		c-3,0-5-2.5-4.2-5.6l0,0C2046.1,882.7,2049.3,880.2,2052.4,880.2"/>
	<path class="st1" d="M2420.1,1685.6H908.1v40c0,22,18,40,40,40h1432.1c22,0,40-18,40-40V1685.6z"/>
	<path class="st13" d="M1568.4,1685.6H417.3v40c0,22,18,40,40,40h1071.1c22,0,40-18,40-40V1685.6z"/>
	<path class="st2" d="M1116.3,1716.8h-344c-4.2,0-7.6,3.4-7.6,7.6v0c0,4.2,3.4,7.6,7.6,7.6h344c4.2,0,7.6-3.4,7.6-7.6v0
		C1123.9,1720.2,1120.5,1716.8,1116.3,1716.8"/>
	<path class="st2" d="M2383.9,1700.6c-9.1,0-16.4,9.2-16.4,20.6c0,11.4,7.4,20.6,16.4,20.6s16.4-9.2,16.4-20.6
		C2400.3,1709.8,2393,1700.6,2383.9,1700.6"/>
	<rect x="1877.9" y="1714.5" class="st2" width="206.4" height="22.4"/>
	<rect x="1805" y="1714.5" class="st2" width="52.7" height="22.4"/>
	<rect x="2298.2" y="1714.4" class="st2" width="10.5" height="51.2"/>
	<rect x="2276.5" y="1714.4" class="st2" width="10.5" height="51.2"/>
	<rect x="2254.8" y="1714.4" class="st2" width="10.5" height="51.2"/>
	<rect x="2233.1" y="1714.4" class="st2" width="10.5" height="51.2"/>
	<rect x="2211.3" y="1714.4" class="st2" width="10.5" height="51.2"/>
	<rect x="2189.6" y="1714.4" class="st2" width="10.5" height="51.2"/>
	<rect x="2167.9" y="1714.4" class="st2" width="10.5" height="51.2"/>
	<rect x="2167.9" y="1714.4" class="st2" width="10.5" height="51.2"/>
	<rect x="2146.2" y="1714.4" class="st2" width="10.5" height="51.2"/>
	<rect x="2146.2" y="1714.4" class="st2" width="10.5" height="51.2"/>
	<rect x="2124.5" y="1714.4" class="st2" width="10.5" height="51.2"/>
	<path class="st14" d="M696,1013.1c-32.2,15,5.4,42.1-0.3,83.9c-4.6,33.9,41.4,151.9,71.9,156c20.9,2.8,36.2-3.7,28.5-24.3
		c-9.6-26-36.3-103-40.2-113.2c-1.7-11.7-24.8-127.7-37.2-133.8C698.8,971.5,709.8,1006.6,696,1013.1"/>
	<path class="st15" d="M798.6,1248.9c5.1,3.1,25.4,15.5,27.7,20.8c1.2,2.7,0.2,2.9-1.3,3.5c-1.3,0.5-7.5-2.3-6.3-0.7
		c2.7,3.6,8.5,12-17.8,15.9c-8.9,1.3-19.8-2.5-23.7-20.5c-2.3-10.7-5.1-11-10.4-19.8c3.8-2.5,16.6-7.7,29.3-4.8L798.6,1248.9z"/>
	<path class="st16" d="M765.7,1685.6H662.1c-4.9,0-8.9-3.7-9.5-8.3c-0.1-0.7-0.1-1.3-0.1-2l4.2-54.4c0,0,4.3-2,10.3-3.4
		c3.6-0.8,6.6-3.4,7.7-7c0.1-0.3,0.1-0.5,0.2-0.8c2.4-10.5,17.5-13.8,20.3-3.6c0.4,1.3,0.7,2.6,0.9,3.8c0.1,0.3,0.1,0.6,0.2,0.9
		c0.4,2.2,0.8,4.2,1,6l0,0.1c0.6,4.5,0.5,7.4,0.5,7.4c1.4,1.7,2.7,3.5,4,5.1c0.7,0.8,1.3,1.7,1.9,2.5c1.4,1.8,2.7,3.5,4,5.1
		c0.6,0.8,1.2,1.5,1.8,2.3c1.4,1.8,2.9,3.5,4.3,5.1c0.6,0.7,1.3,1.4,1.9,2.1c5.3,5.6,10.7,9.5,17.1,10.3
		c11.2,1.5,29.6,2.8,38.4,19.3c0.2,0.3,0.3,0.7,0.4,1C773.1,1681.3,770.1,1685.6,765.7,1685.6"/>
	<path class="st7" d="M765.7,1685.6H662.1c-4.9,0-8.9-3.7-9.5-8.3h119.1C773.1,1681.3,770.1,1685.6,765.7,1685.6"/>
	<path class="st14" d="M677,966.3h-79.1c-19.1,0-46.7,9.6-58.3,23.2c-16.6,19.5-10.8,246.2-5.7,276.5l5.8,4.1
		c0,121.2-16.2,246.2-10.1,362.1l47.9,0.6l60.4-306.9l30.7-53.1l49.8-4l13.5-1.8L717,981.8C706,972.5,692.3,966.3,677,966.3"/>
	<path class="st17" d="M677,966.3h-13.1l-1.7,19.4L651,1164l44.6-141.1l-14.9-14.9l11.1-11.1l-11.1-30.4
		C679.5,966.3,678.2,966.3,677,966.3"/>
	<path class="st14" d="M587.9,1037.7c7.8-16.3,1.8-48.2-14.8-55.4c-4.4-1.9-14-6.2-22-1.7c-20.6,11.6-56.6,82.3-73.7,153.9
		c-20.9,87.6-18.8,168.5,21.4,152.4c9.7-3.4,22-72.7,41.5-138C556.2,1095,580.8,1052.3,587.9,1037.7"/>
	<path class="st17" d="M612.8,966.3l4.2,17.5L651,1164l-62.5-139l12.8-16.6l-12.5-9.6l7.5-32.3C600,965.6,608.9,966.3,612.8,966.3"
		/>
	<path class="st4" d="M669.1,966.3c5.2,39.3-13.6,154.7-18.1,197.7c-1.4-3.4-38.2-167.4-41.8-197.7H645
		C653.1,966.3,662.2,965.3,669.1,966.3"/>
	<path class="st15" d="M690.1,927.2c2.8,18.5-18.4,32.5-32.8,31.3v8.4l0.7,1c5,13.1-9.1,21.4-13.8,25.9c-4.3-3.3-27.2-9.5-27.7-27.6
		h0.9v-31.7c-1-0.3-2.1-0.8-3.2-1.4c-3.2-1.9-4.4-6.6-3.6-11.5c0.8-4.9,7.6-1.6,7.6-1.6h0c-5.9-14.4-13.4-26.9,1.7-34.9
		c15.1-8,45.6-7.4,45.6-7.4l18.3-1.9C679,883.8,688.3,915,690.1,927.2"/>
	<path class="st18" d="M630.3,944.4c6.4,17.2,12.5,23.6,27,25.6v-11.7C651.8,957.7,638.2,953,630.3,944.4"/>
	<polygon class="st14" points="723.4,1257.2 628.3,1256.8 646.3,1633.8 706.5,1633.7 	"/>
	<path class="st16" d="M594.1,1679.3c-0.9,15.1-54.4,9.9-63,5.4c-3.3-1.7-4.7-5.1-4.9-9.2c-0.4-6.5,2-14.9,4.1-21.4
		c3.4-10.6,3-10.4,5.3-17.7c0,0-0.6-11.8,16.9-16.3c17.5-4.5,24,24.9,27,30.6c2.7,5.2,13.4,12.3,14.5,25.1
		C594.2,1676.8,594.2,1678,594.1,1679.3"/>
	<path class="st7" d="M593.4,1684.5c-1.1,9.8-53.7,8.8-62.3,4.3c-3.3-1.7-4.7-8.3-4.9-12.4c5.6,2.8,15.5,6.4,30.4,6.6
		c18.2,0.3,31.3-3,37.5-6.4C594.2,1677.8,593.5,1683.3,593.4,1684.5"/>
	<path class="st14" d="M630.2,895.7c-5.6,5.2-5.5,11.9-1.5,25.4c1.2,4,3,7-3,3.3c-2.8-1.7-7.4-4.1-9.2-3c-4,2.6-2.9,9-0.2,11.4
		c1.2,1,3.5,2.7,3.5,2.7s-7.7,2-14.8-3.7c-7.1-5.7-28.1-24-24-48.8c5.4-33.1,44.1-37.6,66.7-52.5c35.6-23.4,58.8,16.1,48.7,39.3
		C684.6,897.2,644.5,882.3,630.2,895.7"/>
	<path class="st19" d="M508.6,1319.5c0,0,0.8-20.2-4.8-22.6c-5.6-2.4-26.8-0.2-26.8-0.2s-5.8,1.4-6.3,9c-0.5,7.6-0.5,13.8-0.5,13.8
		h7.2c0,0-0.6-11.2,0.7-12.7c1.3-1.6,21.1-0.5,21.1-0.5s2.7,0.1,2.8,5.8c0.1,5.7,0,7.5,0,7.5H508.6z"/>
	<rect x="532.4" y="1316" class="st20" width="48.6" height="198.2"/>
	<polygon class="st21" points="533.8,1316 422.3,1319.2 422,1514.2 533.8,1514.2 	"/>
	<path class="st22" d="M425.2,1319.2h-1.4l-1.5,17.1l-0.3,178h111.8v-60.2C472.2,1549.2,432.3,1402.5,425.2,1319.2"/>
	<path class="st15" d="M505.5,1300.2c-0.8,0.3-4.1-7.2-3.7-5.1l3.7,18.5c0,0-5.1,1.5-7.8-1c-2.7-2.5-2.7-2.5-2.7-2.5l0.6,6.3
		c0,0-2.7,1.8-4.6-0.7c-1.9-2.4-4.3-0.7-4.3-0.7l-2.2,3.4c-4.9-0.3-4.6-6.4-7.5-2.2c-1.8,2.6-3.3,2.6-4.7-1.1
		c-1.3-3.6-1.4-9.1-1.5-9.4c-1.3-9.1,0.4-23.1,5.4-27.3c3.3-2.8,16.5-1.9,20.6-0.2C499.3,1279.2,517,1295.6,505.5,1300.2"/>
	<path class="st23" d="M660.7,1088.6c-3.8,29.3-7.9,59-9.7,75.4c-6.5-25.4-12.5-53.5-18-79l6.7-68.6l-5.1-10.6l9.5-10.9l9.5,11.1
		l-5.3,10.3L660.7,1088.6z"/>
	<rect x="563.2" y="1065.5" class="st17" width="34.4" height="6.6"/>
	<path class="st14" d="M1218,1013.1c-32.2,15,5.4,42.1-0.3,83.9c-4.6,33.9,41.4,151.9,71.9,156c20.9,2.8,36.2-3.7,28.5-24.3
		c-9.6-26-36.3-103-40.2-113.2c-1.7-11.7-24.8-127.7-37.2-133.8C1220.8,971.5,1231.8,1006.6,1218,1013.1"/>
	<path class="st16" d="M1289.5,1685.6H1186c-4.9,0-8.9-3.7-9.5-8.3c-0.1-0.7-0.1-1.3-0.1-2l4.2-54.4c0,0,4.3-2,10.3-3.4
		c3.6-0.8,6.6-3.4,7.7-7c0.1-0.3,0.1-0.5,0.2-0.8c2.4-10.5,17.5-13.8,20.3-3.6c0.4,1.3,0.7,2.6,0.9,3.8c0.1,0.3,0.1,0.6,0.2,0.9
		c0.4,2.2,0.8,4.2,1,6l0,0.1c0.6,4.5,0.5,7.4,0.5,7.4c1.4,1.7,2.7,3.5,4,5.1c0.7,0.8,1.3,1.7,1.9,2.5c1.4,1.8,2.7,3.5,4,5.1
		c0.6,0.8,1.2,1.5,1.8,2.3c1.4,1.8,2.9,3.5,4.3,5.1c0.6,0.7,1.3,1.4,1.9,2.1c5.3,5.6,10.7,9.5,17.1,10.3
		c11.2,1.5,29.6,2.8,38.4,19.3c0.2,0.3,0.3,0.7,0.4,1C1296.9,1681.3,1293.9,1685.6,1289.5,1685.6"/>
	<path class="st7" d="M1289.5,1685.6H1186c-4.9,0-8.9-3.7-9.5-8.3h119.1C1296.9,1681.3,1293.9,1685.6,1289.5,1685.6"/>
	<path class="st14" d="M1200.8,966.3h-79.1c-19.1,0-46.7,9.6-58.3,23.2c-16.6,19.5-10.8,246.2-5.7,276.5l5.8,4.1
		c0,121.2-16.2,246.2-10.1,362.1l47.9,0.6l60.4-306.9l31.6-43l49.8-4l13.5-1.8l-15.6-295.3C1229.8,972.5,1216.2,966.3,1200.8,966.3"
		/>
	<path class="st17" d="M1200.8,966.3h-13.1l-1.7,19.4l-11.1,178.3l44.6-141.1l-14.9-14.9l11.1-11.1l-11.1-30.4
		C1203.3,966.3,1202.1,966.3,1200.8,966.3"/>
	<path class="st14" d="M1111.7,1037.7c7.8-16.3,1.8-48.2-14.8-55.4c-4.4-1.9-14-6.2-22-1.7c-20.6,11.6-56.6,82.3-73.7,153.9
		c-20.9,87.6-18.8,168.5,21.4,152.4c9.7-3.4,22-72.7,41.5-138C1080.1,1095,1104.7,1052.3,1111.7,1037.7"/>
	<path class="st17" d="M1136.6,966.3l4.2,17.5l34.1,180.1l-62.5-139l12.8-16.6l-12.5-9.6l7.5-32.3
		C1123.9,965.6,1132.8,966.3,1136.6,966.3"/>
	<path class="st4" d="M1193,966.3c5.2,39.3-13.6,154.7-18.1,197.7c-1.4-3.4-38.2-167.4-41.8-197.7h35.8
		C1176.9,966.3,1186.1,965.3,1193,966.3"/>
	<path class="st15" d="M1214,927.2c2.8,18.5-18.4,32.5-32.8,31.3v8.4l0.7,1c5,13.1-9.1,21.4-13.8,25.9c-4.3-3.3-27.2-9.5-27.7-27.6
		h0.9v-31.7c-1-0.3-2.1-0.8-3.2-1.4c-3.2-1.9-4.4-6.6-3.6-11.5c0.8-4.9,7.6-1.6,7.6-1.6h0c-5.9-14.4-13.4-26.9,1.7-34.9
		c15.1-8,45.6-7.4,45.6-7.4l18.3-1.9C1202.9,883.8,1212.1,915,1214,927.2"/>
	<path class="st18" d="M1154.2,944.4c6.4,17.2,12.5,23.6,27,25.6v-11.7C1175.6,957.7,1162.1,953,1154.2,944.4"/>
	<polygon class="st14" points="1247.2,1257.2 1152.1,1256.8 1170.1,1633.8 1230.4,1633.7 	"/>
	<path class="st16" d="M1118,1679.3c-0.9,15.1-54.4,9.9-63,5.4c-3.3-1.7-4.7-5.1-5-9.2c-0.4-6.5,2-14.9,4.1-21.4
		c3.4-10.6,3-10.4,5.3-17.7c0,0-0.6-11.8,16.9-16.3c17.5-4.5,24,24.9,27,30.6c2.7,5.2,13.4,12.3,14.5,25.1
		C1118,1676.8,1118,1678,1118,1679.3"/>
	<path class="st7" d="M1117.3,1684.5c-1.1,9.8-53.7,8.8-62.3,4.3c-3.3-1.7-4.7-8.3-5-12.4c5.6,2.8,15.5,6.4,30.4,6.6
		c18.2,0.3,31.3-3,37.5-6.4C1118,1677.8,1117.4,1683.3,1117.3,1684.5"/>
	<path class="st14" d="M1154.1,895.7c-5.6,5.2-5.5,11.9-1.5,25.4c1.2,4,3,7-3,3.3c-2.8-1.7-7.4-4.1-9.2-3c-4,2.6-2.9,9-0.2,11.4
		c1.2,1,3.5,2.7,3.5,2.7c-23.7,0.5-36.4-33.3-33.3-52.4c7.2-43.7,52.9-45,72.4-38.9c4.6,1.5,17.6,4.2,21,6.5
		c2.8,1.9,13.8-1.1,17.6,1.9c4.2,3.3,0.9,12.6-1,17.1C1209,897.4,1168.4,882.3,1154.1,895.7"/>
	<path class="st19" d="M1032.5,1319.5c0,0,0.8-20.2-4.8-22.6c-5.6-2.4-26.8-0.2-26.8-0.2s-5.8,1.4-6.3,9c-0.5,7.6-0.5,13.8-0.5,13.8
		h7.2c0,0-0.6-11.2,0.7-12.7c1.3-1.6,21.1-0.5,21.1-0.5s2.7,0.1,2.8,5.8c0.1,5.7,0,7.5,0,7.5H1032.5z"/>
	<rect x="1056.2" y="1316" class="st24" width="48.6" height="198.2"/>
	<polygon class="st25" points="1057.7,1316 946.1,1319.2 945.9,1514.2 1057.7,1514.2 	"/>
	<path class="st26" d="M949,1319.2h-1.4l-1.5,17.1l-0.3,178h111.8v-60.2C996,1549.2,956.1,1402.5,949,1319.2"/>
	<path class="st15" d="M1029.3,1300.2c-0.8,0.3-4.1-7.2-3.7-5.1l3.7,18.5c0,0-5.1,1.5-7.8-1c-2.7-2.5-2.7-2.5-2.7-2.5l0.6,6.3
		c0,0-2.7,1.8-4.6-0.7c-1.9-2.4-4.3-0.7-4.3-0.7l-2.2,3.4c-4.9-0.3-4.6-6.4-7.5-2.2c-1.8,2.6-3.3,2.6-4.7-1.1
		c-1.3-3.6-1.4-9.1-1.5-9.4c-1.3-9.1,0.4-23.1,5.4-27.3c3.3-2.8,16.5-1.9,20.6-0.2C1023.2,1279.2,1040.8,1295.6,1029.3,1300.2"/>
	<path class="st27" d="M1184.5,1088.6c-3.8,29.3-7.9,59-9.7,75.4c-6.5-25.4-12.5-53.5-18-79l6.7-68.6l-5.1-10.6l9.5-10.9l9.5,11.1
		l-5.3,10.3L1184.5,1088.6z"/>
	<rect x="1087.1" y="1065.5" class="st17" width="34.4" height="6.6"/>
	<path class="st15" d="M1319.4,1245.8c5.1,3.1,25.4,15.5,27.7,20.8c1.2,2.7,0.2,2.9-1.3,3.5c-1.3,0.5-4.4,0.2-6.3-0.7
		c-3.9-1.9-7.5-3.4-9.5-4.8c2.3,14.5,10.3,24.6,17.6,37.1c3,5.1,0.6,10.8-5.8,4.7c-5.2-5-11.9-14.1-11.9-14.1l4.8,19
		c0.9,5.1-4.4,3.3-6,0.5c-2.5-4.6-8.8-18.4-8.8-18.4l0.3,12.8c0.1,4.9-4.5,0.8-5-0.7c-1.3-3.4-4.1-14.9-4.1-14.9l0,5.8
		c0,6.6-6.2-0.3-6.1-2.2c0-0.4-6-25.2-7-29.5c-2.3-10.7-5.1-11-10.4-19.8c3.8-2.5,16.6-7.7,29.3-4.8L1319.4,1245.8z"/>
	<path class="st28" d="M1792.2,1198.8c-15.9,34.9-34.7,79-80.4,85.8c-37,5.5-184.4-33.6-189.4-66.4c-5-32.8,17.7-38.1,17.7-38.1
		s145.5,35.7,155.4,32.5c7.5-2.4,42.7-47.7,65-67.8C1765.2,1140.4,1799,1183.8,1792.2,1198.8"/>
	<path class="st28" d="M1804.3,1128h86.5c20.9,0,51.1,10.3,63.8,25c18.2,21,11.1,255.5,5.5,288.2l-6.3,4.4c0,62.6,4.4,127,8.2,190.8
		h-90l-24.8-120.7l-31.9-68.8l-54.4-4.3l-14.8-1.9l14.4-296C1772.5,1134.7,1787.4,1128,1804.3,1128"/>
	<path class="st28" d="M1901.7,1205c-8.6-17.6-2-52,16.2-59.7c4.8-2,15.3-6.7,24.1-1.8c49.6,27.4,77.3,124.6,120,193.2
		c6.1,33.2,8.3,70.6-41.8,50.1C1965.4,1364.4,1909.9,1221.7,1901.7,1205"/>
	<path class="st4" d="M1812.8,1128c-5.7,42.4,14.9,166.8,19.8,213.1c1.5-3.6,41.8-180.4,45.7-213.1h-39.1
		C1830.4,1128,1820.4,1127,1812.8,1128"/>
	<path class="st15" d="M1789.9,1085.9c-3,19.9,20.1,35.1,35.9,33.7v9.1l-0.8,1.1c-5.5,14.1,10,23.1,15.1,28
		c4.7-3.5,29.8-10.3,30.3-29.8h-1v-34.2c1.1-0.3,2.3-0.8,3.5-1.5c3.5-2.1,4.8-7.2,3.9-12.4c-0.9-5.2-8.3-1.7-8.3-1.7
		c6.4-15.6,14.6-29-1.9-37.6c-16.5-8.6-49.9-8-49.9-8l-20-2C1802,1039,1791.9,1072.7,1789.9,1085.9"/>
	<path class="st18" d="M1855.3,1104.4c-7,18.6-13.7,25.4-29.5,27.6v-12.6C1831.8,1118.8,1846.6,1113.7,1855.3,1104.4"/>
	<polygon class="st28" points="1753.5,1441.6 1857.5,1441.2 1848.2,1636.4 1762.8,1636.4 	"/>
	<path class="st14" d="M1799.9,1041.1c15.8,2.6,43.2-0.6,55.5,10.8c6.1,5.6,6,12.9,1.6,27.4c-1.3,4.3-3.3,7.6,3.3,3.6
		c3-1.8,8.1-4.5,10.1-3.2c4.4,2.8,3.1,9.7,0.2,12.3c-1.3,1.1-3.9,2.9-3.9,2.9s8.5,2.2,16.2-4c31.8-25.3,37.3-70.2,2-91.8
		c-21.4-13.1-49.4-8.4-56.6-28.8C1773.2,966.6,1759.8,1024.6,1799.9,1041.1"/>
	<path class="st29" d="M1505,1117.9l-20.5,66.6l594,192.5c24.2,7.8,51.8,2.4,59.2-21.7c7.4-24.1-11.5-46.4-35.9-53.9L1505,1117.9z"
		/>
	<path class="st30" d="M1508.1,1110.5l-22.5,73.2c-2.8,9.1,2.4,18.8,11.5,21.6c9.1,2.7,18.9-2.5,21.7-11.6l22.5-73.2
		c2.8-9.1-2.4-18.8-11.5-21.6C1520.7,1096.1,1511,1101.4,1508.1,1110.5"/>
	<g>
		<defs>
			<path id="SVGID_7_" d="M764,795.8c23.8-11.7,45.2-33.1,61.6-52.5c34.3-40.5,39.1-48.7,83.3-84.7c25.7-21,45.9-38.5,54.2-59.6
				c23.4-59.2-20.5-114.2-96.6-104.5c-3.1,0.4-309.3,39.6-309.3,39.6s-36.5,3.9-59.3,36.8C420.7,682.5,597.4,877.9,764,795.8"/>
		</defs>
		<clipPath id="SVGID_8_">
			<use xlink:href="#SVGID_7_"  style="overflow:visible;"/>
		</clipPath>
		
			<linearGradient id="SVGID_9_" gradientUnits="userSpaceOnUse" x1="499.6862" y1="837.3623" x2="499.7007" y2="82.7688" gradientTransform="matrix(-0.9919 0.127 -0.127 -0.9919 1261.0369 1030.4053)">
			<stop  offset="0" style="stop-color:#D54699"/>
			<stop  offset="7.681686e-002" style="stop-color:#DB5FA7"/>
			<stop  offset="0.2413" style="stop-color:#E690C2"/>
			<stop  offset="0.405" style="stop-color:#EFB8D8"/>
			<stop  offset="0.5648" style="stop-color:#F6D7E9"/>
			<stop  offset="0.7196" style="stop-color:#FBEDF5"/>
			<stop  offset="0.8673" style="stop-color:#FEFAFC"/>
			<stop  offset="1" style="stop-color:#FFFFFF"/>
		</linearGradient>
		<polygon class="st31" points="978.8,479.3 404.1,552.9 448.1,897 1022.8,823.4 		"/>
	</g>
	<g>
		<defs>
			<path id="SVGID_10_" d="M910.8,871.6c46.5-68,117.9-114.6,199.6-130.3c81.7-15.7,165.6,1.1,234.6,47
				c69,45.9,116.3,116.2,132.2,196.7c15.9,80.5-1.2,163.2-47.7,231.2c-46.5,68-117.9,114.6-199.6,130.3
				c-81.7,15.7-165.6-1.1-234.6-47c-69-45.9-116.3-116.2-132.2-196.7C847.2,1022.3,864.3,939.6,910.8,871.6 M1103.1,704.2
				c-91.7,17.6-171.8,69.9-224,146.2c-52.2,76.4-71.4,169.2-53.5,259.6c17.8,90.4,70.9,169.4,148.4,220.9
				c77.5,51.5,171.6,70.4,263.3,52.8c91.7-17.6,171.8-69.9,224-146.3c52.2-76.3,71.4-169.2,53.5-259.6
				c-17.8-90.4-70.9-169.4-148.4-220.9C1288.9,705.5,1194.8,686.6,1103.1,704.2z"/>
		</defs>
		<clipPath id="SVGID_11_">
			<use xlink:href="#SVGID_10_"  style="overflow:visible;"/>
		</clipPath>
		<linearGradient id="SVGID_12_" gradientUnits="userSpaceOnUse" x1="1232.3932" y1="1399.2985" x2="1095.8228" y2="619.8541">
			<stop  offset="0" style="stop-color:#022FA0"/>
			<stop  offset="0.6782" style="stop-color:#197BDD"/>
			<stop  offset="1" style="stop-color:#24A1FB"/>
		</linearGradient>
		<rect x="807.7" y="686.6" class="st32" width="724.9" height="714.6"/>
	</g>
	<path class="st15" d="M1529.5,1180.6c2.3,0.1,4.6,2,4.9,2.7c0.3,0.6,3.6,9.7,3.6,9.7l20-9.9c0,0,3.3,4-0.6,7.6
		c-3.9,3.6-10.6,12.6-10.6,12.6l17.4-10c0,0,2.8,2.4,0.7,5.4c-2.2,2.9-10.6,12.1-10.6,12.1l17.3-6.7c0,0-3.6,5.9-8,9
		c-4.4,3.1-6.3,5.1-6.3,5.1l15.7-3.1c0,0-12.6,9-13.1,9.2c-15.2,6.5-27.3,2.7-33.1-10.5C1524.9,1209.8,1526.8,1180.5,1529.5,1180.6"
		/>
	<path class="st15" d="M2080.6,1374.4c-0.9-1.9-3.4-3.2-4.1-3.2c-0.6,0-9.6,0.4-9.6,0.4l1.4-20.3c0,0-4.7-1.3-6.4,3.2
		c-1.7,4.5-7.1,13.4-7.1,13.4l2.4-18.2c0,0-3.1-1.5-4.9,1.4c-1.7,2.9-6.6,13.2-6.6,13.2l-0.5-16.9c0,0-3.8,5.2-4.9,9.9
		c-1.1,4.8-2.2,7.1-2.2,7.1l-2.9-14.3c0,0-3-0.3-3.7,2.8c-0.9,3.8-1.5,14.2-1.5,14.5c-0.2,15.1,7.2,25,20.7,25.1
		C2054.9,1392.7,2081.7,1376.6,2080.6,1374.4"/>
</g>
<g id="Layer_1">
</g>
</svg>
