<?xml version="1.0" encoding="utf-8"?>
<!-- Generator: Adobe Illustrator 19.0.0, SVG Export Plug-In . SVG Version: 6.00 Build 0)  -->
<svg version="1.1" xmlns="http://www.w3.org/2000/svg" xmlns:xlink="http://www.w3.org/1999/xlink" x="0px" y="0px"
	 viewBox="0 0 500 500" style="enable-background:new 0 0 500 500;" xml:space="preserve">
<style type="text/css">
	.st0{fill:#E0E0E0;}
	.st1{fill:#F5F5F5;}
	.st2{fill:none;stroke:#E0E0E0;stroke-width:5.000000e-002;stroke-miterlimit:10;}
	.st3{fill:#EBEBEB;}
	.st4{fill:#FFFFFF;}
	.st5{display:none;}
	.st6{display:inline;fill:#EBEBEB;}
	.st7{fill:#263238;}
	.st8{fill-rule:evenodd;clip-rule:evenodd;fill:url(#SVGID_1_);}
	.st9{fill-rule:evenodd;clip-rule:evenodd;fill:url(#SVGID_2_);}
	.st10{fill-rule:evenodd;clip-rule:evenodd;fill:url(#SVGID_3_);}
	.st11{fill:none;stroke:#4E585D;stroke-width:5.000000e-002;stroke-miterlimit:10;}
	.st12{fill:#E8505B;}
	.st13{opacity:0.6;}
	.st14{opacity:0.3;}
	.st15{fill:#455A64;}
	.st16{fill:#FFBE9D;}
	.st17{fill:#EB996E;}
	.st18{fill:url(#XMLID_491_);}
	.st19{fill:url(#XMLID_492_);}
	.st20{fill:url(#XMLID_493_);}
	.st21{fill:#FAFAFA;}
	.st22{fill:url(#SVGID_4_);}
	.st23{fill:url(#SVGID_5_);}
	.st24{fill:url(#SVGID_6_);}
	.st25{fill:url(#SVGID_7_);}
	.st26{fill:url(#SVGID_8_);}
</style>
<g id="Background_Complete">
	<g id="XMLID_1_">
		<g id="XMLID_2_">
			<g id="XMLID_3_">
				<path class="st0" d="M116.8,176.7c1.5-0.9,3-1.6,4.7-2l1-4.6l7.8-0.1l1.1,4.6c1.6,0.4,3.2,1,4.7,1.9l3.9-2.6l5.6,5.4l-2.4,4
					c0.9,1.5,1.6,3,2,4.7l4.6,1l0.1,7.8l-4.6,1.1c-0.4,1.6-1,3.2-1.9,4.7l2.6,3.9l-5.4,5.6l-4-2.4c-1.5,0.9-3,1.6-4.7,2l-1,4.6
					l-7.8,0.1l-1.1-4.6c-1.6-0.4-3.2-1-4.7-1.9l-3.9,2.6l-5.6-5.4l2.4-4c-0.9-1.5-1.6-3-2-4.7l-4.6-1l-0.1-7.8l4.6-1.1
					c0.4-1.6,1-3.2,1.9-4.7l-2.6-3.9l5.4-5.6L116.8,176.7L116.8,176.7z M120.9,187c-3.2,3.3-3.1,8.6,0.2,11.8
					c3.3,3.2,8.6,3.1,11.8-0.2c3.2-3.3,3.1-8.6-0.2-11.8C129.4,183.6,124.1,183.7,120.9,187z"/>
			</g>
		</g>
		<g id="XMLID_4_">
			<g id="XMLID_5_">
				<g id="XMLID_6_">
					<path class="st0" d="M120.9,187c0,0,0.4-0.6,1.6-1.4c1.1-0.7,3-1.5,5.5-1.3c1.2,0.1,2.5,0.5,3.7,1.3c1.2,0.8,2.3,1.9,3,3.4
						c0.4,0.7,0.6,1.5,0.8,2.3c0.2,0.8,0.2,1.7,0,2.6c-0.2,1.7-1,3.5-2.3,4.8c-1.3,1.3-3,2.2-4.7,2.5c-0.9,0.2-1.7,0.2-2.6,0
						c-0.8-0.1-1.6-0.3-2.4-0.7c-1.5-0.6-2.7-1.7-3.5-2.9c-0.8-1.2-1.3-2.5-1.4-3.7c-0.3-2.4,0.4-4.4,1.1-5.5
						C120.3,187.5,120.9,187,120.9,187c0,0-0.5,0.5-1.1,1.7c-0.6,1.1-1.3,3-0.9,5.4c0.2,1.1,0.6,2.4,1.4,3.5
						c0.8,1.1,1.9,2.1,3.3,2.7c0.7,0.3,1.5,0.5,2.3,0.6c0.8,0.1,1.6,0.1,2.4-0.1c1.6-0.3,3.2-1.1,4.5-2.4c1.2-1.3,2-2.9,2.2-4.6
						c0.1-0.8,0.1-1.6,0-2.4c-0.1-0.8-0.4-1.5-0.7-2.2c-0.6-1.4-1.7-2.5-2.8-3.2c-1.1-0.8-2.4-1.2-3.5-1.3c-2.3-0.3-4.2,0.4-5.3,1.1
						C121.4,186.5,121,187.1,120.9,187z"/>
				</g>
			</g>
		</g>
		<g id="XMLID_7_">
			<g id="XMLID_8_">
				<g id="XMLID_9_">
					<path class="st0" d="M116.8,176.7c0,0-0.1,0-0.3-0.1c-0.2-0.1-0.4-0.3-0.8-0.4c-0.7-0.4-1.7-1-3-1.8l0.1,0
						c-1.4,1.4-3.2,3.3-5.4,5.6l0-0.2c0.8,1.2,1.7,2.5,2.6,3.9l0,0.1l0,0.1c-0.8,1.4-1.4,3-1.8,4.7l0,0.1l-0.1,0
						c-1.4,0.4-3,0.7-4.6,1.1l0.1-0.2c0,2.5,0.1,5.1,0.2,7.8l-0.2-0.2c1.4,0.3,3,0.6,4.6,1l0.1,0l0,0.1c0.4,1.5,1.1,3.1,2,4.6
						l0.1,0.1l-0.1,0.1c-0.8,1.2-1.6,2.6-2.4,4l0-0.3c1.8,1.7,3.7,3.5,5.6,5.4l-0.3,0c1.2-0.8,2.6-1.7,3.9-2.6l0.1-0.1l0.1,0.1
						c1.4,0.8,3,1.4,4.7,1.8l0.1,0l0,0.1c0.4,1.4,0.7,3,1.1,4.6l-0.2-0.2c2.5,0,5.1-0.1,7.8-0.1l-0.2,0.2c0.3-1.5,0.6-3,1-4.6l0-0.1
						l0.1,0c1.5-0.4,3.1-1.1,4.6-2l0,0l0.1-0.1l0.1,0.1c1.4,0.8,2.7,1.6,4,2.4l-0.3,0c1.8-1.9,3.6-3.8,5.4-5.6l0,0.3
						c-0.9-1.3-1.7-2.6-2.6-3.9l-0.1-0.1l0.1-0.1c0.8-1.5,1.4-3.1,1.8-4.7l0-0.1l0.1,0c1.5-0.4,3.1-0.8,4.6-1.1l-0.2,0.2
						c0-2.7-0.1-5.3-0.1-7.8l0.2,0.2c-1.6-0.3-3.1-0.6-4.6-1l-0.1,0l0-0.1c-0.5-1.7-1.1-3.2-2-4.6l-0.1-0.1l0.1-0.1
						c0.8-1.4,1.7-2.7,2.4-4l0,0.2c-2-1.9-3.8-3.7-5.6-5.4l0.2,0c-1.4,0.9-2.7,1.8-3.9,2.6l-0.1,0.1l-0.1-0.1
						c-1.6-0.9-3.1-1.5-4.7-1.9l-0.1,0l0-0.1c-0.4-1.7-0.8-3.2-1.1-4.6l0.1,0.1c-3,0-5.6,0.1-7.8,0.1l0.1-0.1
						c-0.4,1.8-0.7,3.4-1,4.6l0,0l0,0c-1.7,0.5-2.8,1-3.6,1.4c-0.4,0.2-0.6,0.3-0.8,0.4C116.9,176.6,116.8,176.7,116.8,176.7
						c0,0,0.1-0.1,0.3-0.2c0.2-0.1,0.4-0.3,0.8-0.5c0.7-0.4,1.9-1,3.6-1.4l-0.1,0.1c0.3-1.3,0.6-2.8,0.9-4.6l0-0.1l0.1,0
						c2.2,0,4.8-0.1,7.8-0.2l0.1,0l0,0.1c0.4,1.4,0.7,2.9,1.1,4.6l-0.1-0.1c1.6,0.4,3.2,1,4.8,1.9l-0.2,0c1.3-0.8,2.6-1.7,3.9-2.6
						l0.1-0.1l0.1,0.1c1.8,1.7,3.6,3.5,5.6,5.4l0.1,0.1l-0.1,0.1c-0.8,1.3-1.6,2.6-2.4,4l0-0.2c0.9,1.4,1.6,3,2.1,4.7l-0.2-0.2
						c1.5,0.3,3,0.6,4.6,1l0.2,0l0,0.2c0,2.5,0.1,5.1,0.1,7.8l0,0.2l-0.2,0c-1.5,0.4-3,0.7-4.6,1.1l0.2-0.2c-0.4,1.7-1,3.3-1.9,4.8
						l0-0.2c0.9,1.3,1.7,2.6,2.6,3.9l0.1,0.2l-0.1,0.1c-1.8,1.8-3.6,3.7-5.4,5.6l-0.1,0.1l-0.2-0.1c-1.3-0.8-2.7-1.6-4-2.4l0.2,0
						l0,0c-1.5,0.9-3.1,1.6-4.7,2l0.2-0.2c-0.3,1.6-0.7,3.2-1,4.6l0,0.2l-0.2,0c-2.7,0-5.3,0.1-7.8,0.1l-0.2,0l0-0.2
						c-0.4-1.6-0.8-3.1-1.1-4.6l0.2,0.2c-1.7-0.4-3.4-1.1-4.8-1.9l0.2,0c-1.4,0.9-2.7,1.8-3.9,2.6l-0.1,0.1l-0.1-0.1
						c-1.9-1.9-3.8-3.7-5.6-5.4l-0.1-0.1l0.1-0.1c0.9-1.4,1.7-2.8,2.4-4l0,0.2c-0.9-1.5-1.6-3.2-2-4.7l0.2,0.1
						c-1.6-0.3-3.2-0.7-4.6-1l-0.1,0l0-0.2c0-2.7-0.1-5.3-0.1-7.8l0-0.1l0.1,0c1.6-0.4,3.2-0.8,4.6-1.1l-0.1,0.1
						c0.4-1.8,1.1-3.4,1.9-4.8l0,0.1c-0.9-1.4-1.8-2.8-2.6-4l-0.1-0.1l0.1-0.1c2.2-2.3,4.1-4.2,5.4-5.6l0,0l0.1,0
						c1.3,0.8,2.3,1.4,3,1.8c0.3,0.2,0.6,0.4,0.8,0.5C116.7,176.6,116.8,176.7,116.8,176.7z"/>
				</g>
			</g>
		</g>
	</g>
	<g id="XMLID_10_">
		<g id="XMLID_11_">
			<g id="XMLID_12_">
				<path class="st1" d="M345.7,232c0.9-0.5,1.8-0.9,2.8-1.2l0.6-2.8l4.7-0.1l0.7,2.7c1,0.2,1.9,0.6,2.8,1.1l2.4-1.5l3.4,3.2
					l-1.5,2.4c0.5,0.9,0.9,1.8,1.2,2.8l2.8,0.6l0.1,4.7l-2.7,0.7c-0.2,1-0.6,1.9-1.1,2.8l1.5,2.4l-3.2,3.4l-2.4-1.5
					c-0.9,0.5-1.8,0.9-2.8,1.2l-0.6,2.8l-4.7,0.1l-0.7-2.7c-1-0.2-1.9-0.6-2.8-1.1l-2.4,1.5l-3.4-3.2l1.5-2.4
					c-0.5-0.9-0.9-1.8-1.2-2.8l-2.8-0.6l-0.1-4.7l2.7-0.7c0.2-1,0.6-1.9,1.1-2.8l-1.5-2.4l3.2-3.4L345.7,232L345.7,232z
					 M348.2,238.2c-1.9,2-1.9,5.2,0.1,7.1c2,1.9,5.2,1.9,7.1-0.1c1.9-2,1.9-5.2-0.1-7.1C353.3,236.2,350.1,236.2,348.2,238.2z"/>
			</g>
		</g>
		<g id="XMLID_13_">
			<g id="XMLID_14_">
				<g id="XMLID_15_">
					<path class="st1" d="M348.2,238.2c0,0,0.3-0.4,0.9-0.8c0.7-0.4,1.8-0.9,3.3-0.8c0.7,0.1,1.5,0.3,2.2,0.8c0.7,0.5,1.4,1.1,1.8,2
						c0.2,0.4,0.4,0.9,0.5,1.4c0.1,0.5,0.1,1,0,1.5c-0.1,1-0.6,2.1-1.4,2.9c-0.8,0.8-1.8,1.3-2.8,1.5c-0.5,0.1-1,0.1-1.5,0
						c-0.5-0.1-1-0.2-1.4-0.4c-0.9-0.4-1.6-1-2.1-1.7c-0.5-0.7-0.8-1.5-0.9-2.2c-0.2-1.5,0.2-2.6,0.7-3.3
						C347.8,238.5,348.2,238.2,348.2,238.2c0,0-0.3,0.3-0.7,1c-0.4,0.7-0.8,1.8-0.6,3.2c0.1,0.7,0.4,1.4,0.9,2.1
						c0.5,0.7,1.2,1.3,2,1.6c0.4,0.2,0.9,0.3,1.3,0.4c0.5,0.1,1,0.1,1.5,0c1-0.2,1.9-0.7,2.7-1.4c0.7-0.8,1.2-1.7,1.3-2.7
						c0.1-0.5,0.1-1,0-1.5c-0.1-0.5-0.2-0.9-0.4-1.3c-0.4-0.8-1-1.5-1.7-1.9c-0.7-0.5-1.4-0.7-2.1-0.8c-1.4-0.2-2.5,0.3-3.2,0.7
						C348.5,237.9,348.2,238.3,348.2,238.2z"/>
				</g>
			</g>
		</g>
		<g id="XMLID_16_">
			<g id="XMLID_17_">
				<g id="XMLID_18_">
					<path class="st1" d="M345.7,232c0,0-0.1,0-0.2-0.1c-0.1-0.1-0.3-0.2-0.5-0.3c-0.4-0.2-1-0.6-1.8-1.1l0.1,0
						c-0.8,0.9-1.9,2-3.2,3.4l0-0.1c0.5,0.7,1,1.5,1.6,2.4l0,0l0,0c-0.5,0.8-0.8,1.8-1.1,2.8l0,0.1l-0.1,0c-0.9,0.2-1.8,0.4-2.7,0.7
						l0.1-0.1c0,1.5,0.1,3,0.1,4.7l-0.1-0.1c0.9,0.2,1.8,0.4,2.8,0.6l0.1,0l0,0.1c0.3,0.9,0.7,1.9,1.2,2.8l0,0.1l0,0.1
						c-0.5,0.7-1,1.6-1.5,2.4l0-0.2c1.1,1,2.2,2.1,3.4,3.2l-0.2,0c0.7-0.5,1.5-1,2.4-1.5l0.1,0l0.1,0c0.8,0.5,1.8,0.9,2.8,1.1l0.1,0
						l0,0.1c0.2,0.9,0.4,1.8,0.7,2.7l-0.1-0.1c1.5,0,3.1-0.1,4.7-0.1l-0.1,0.1c0.2-0.9,0.4-1.8,0.6-2.8l0-0.1l0.1,0
						c0.9-0.3,1.9-0.7,2.8-1.2l0,0l0.1,0l0.1,0c0.8,0.5,1.6,1,2.4,1.5l-0.2,0c1.1-1.1,2.2-2.3,3.2-3.4l0,0.2c-0.5-0.8-1-1.6-1.5-2.4
						l0-0.1l0-0.1c0.5-0.9,0.9-1.8,1.1-2.8l0-0.1l0.1,0c0.9-0.2,1.8-0.4,2.7-0.7l-0.1,0.1c0-1.6-0.1-3.1-0.1-4.7l0.1,0.1
						c-0.9-0.2-1.9-0.4-2.8-0.6l-0.1,0l0-0.1c-0.3-1-0.7-1.9-1.2-2.8l0-0.1l0-0.1c0.5-0.8,1-1.6,1.5-2.4l0,0.1
						c-1.2-1.1-2.3-2.2-3.4-3.2l0.1,0c-0.8,0.5-1.6,1.1-2.4,1.5l-0.1,0l-0.1,0c-0.9-0.5-1.9-0.9-2.8-1.1l-0.1,0l0-0.1
						c-0.2-1-0.5-1.9-0.7-2.7l0.1,0.1c-1.8,0-3.3,0-4.7,0.1l0.1-0.1c-0.2,1.1-0.4,2-0.6,2.8l0,0l0,0c-1,0.3-1.7,0.6-2.1,0.8
						c-0.2,0.1-0.4,0.2-0.5,0.3C345.7,232,345.7,232,345.7,232c0,0,0.1,0,0.2-0.1c0.1-0.1,0.3-0.2,0.5-0.3c0.4-0.2,1.1-0.6,2.1-0.9
						l0,0c0.2-0.8,0.3-1.7,0.6-2.8l0-0.1l0.1,0c1.3,0,2.9-0.1,4.7-0.1l0.1,0l0,0.1c0.2,0.8,0.4,1.7,0.7,2.7l-0.1-0.1
						c0.9,0.2,1.9,0.6,2.9,1.1l-0.1,0c0.7-0.5,1.5-1,2.4-1.6l0.1,0l0.1,0.1c1.1,1,2.2,2.1,3.4,3.2l0.1,0.1l0,0.1
						c-0.5,0.8-1,1.6-1.5,2.4l0-0.1c0.5,0.9,0.9,1.8,1.2,2.8l-0.1-0.1c0.9,0.2,1.8,0.4,2.8,0.6l0.1,0l0,0.1c0,1.5,0.1,3.1,0.1,4.7
						l0,0.1l-0.1,0c-0.9,0.2-1.8,0.4-2.7,0.7l0.1-0.1c-0.2,1-0.6,2-1.1,2.9l0-0.1c0.5,0.8,1,1.6,1.5,2.4l0.1,0.1l-0.1,0.1
						c-1.1,1.1-2.1,2.2-3.2,3.4l-0.1,0.1l-0.1-0.1c-0.8-0.5-1.6-1-2.4-1.5l0.1,0l0,0c-0.9,0.5-1.9,1-2.8,1.2l0.1-0.1
						c-0.2,0.9-0.4,1.9-0.6,2.8l0,0.1l-0.1,0c-1.6,0-3.2,0.1-4.7,0.1l-0.1,0l0-0.1c-0.2-0.9-0.5-1.9-0.7-2.7l0.1,0.1
						c-1-0.3-2-0.7-2.9-1.1l0.1,0c-0.8,0.5-1.6,1.1-2.4,1.5l-0.1,0.1l-0.1-0.1c-1.2-1.1-2.3-2.2-3.4-3.2l-0.1-0.1l0.1-0.1
						c0.5-0.8,1-1.7,1.5-2.4l0,0.1c-0.6-0.9-1-1.9-1.2-2.8l0.1,0.1c-1-0.2-1.9-0.4-2.8-0.6l-0.1,0l0-0.1c0-1.6,0-3.2-0.1-4.7l0-0.1
						l0.1,0c1-0.2,1.9-0.5,2.7-0.7l-0.1,0.1c0.3-1.1,0.7-2,1.1-2.8l0,0.1c-0.6-0.9-1.1-1.6-1.5-2.4l0,0l0,0c1.3-1.4,2.4-2.5,3.3-3.3
						l0,0l0,0c0.8,0.5,1.4,0.8,1.8,1.1c0.2,0.1,0.3,0.2,0.5,0.3C345.6,232,345.7,232,345.7,232z"/>
				</g>
			</g>
		</g>
	</g>
	<g id="XMLID_19_">
		<g id="XMLID_20_">
			<g id="XMLID_21_">
				<path class="st1" d="M382.3,60.6c1.1-0.7,2.3-1.2,3.6-1.6l0.7-3.6l6-0.1l0.9,3.5c1.3,0.3,2.5,0.8,3.6,1.4l3-2l4.3,4.2l-1.9,3.1
					c0.7,1.1,1.2,2.3,1.6,3.6l3.6,0.7l0.1,6l-3.5,0.9c-0.3,1.3-0.8,2.5-1.4,3.6l2,3l-4.2,4.3l-3.1-1.9c-1.1,0.7-2.3,1.2-3.6,1.6
					l-0.7,3.6l-6,0.1l-0.9-3.5c-1.3-0.3-2.5-0.8-3.6-1.4l-3,2l-4.3-4.2l1.9-3.1c-0.7-1.1-1.2-2.3-1.6-3.6l-3.6-0.7l-0.1-6l3.5-0.9
					c0.3-1.3,0.8-2.5,1.4-3.6l-2-3l4.2-4.3L382.3,60.6L382.3,60.6z M385.5,68.7c-2.5,2.6-2.4,6.6,0.2,9.1c2.6,2.5,6.6,2.4,9.1-0.2
					c2.5-2.6,2.4-6.6-0.2-9.1C392.1,66,388,66.1,385.5,68.7z"/>
			</g>
		</g>
		<g id="XMLID_22_">
			<g id="XMLID_23_">
				<g id="XMLID_24_">
					<path class="st1" d="M385.5,68.7c0,0,0.3-0.5,1.2-1.1c0.8-0.6,2.3-1.2,4.2-1c0.9,0.1,1.9,0.4,2.9,1c0.9,0.6,1.8,1.5,2.3,2.6
						c0.3,0.6,0.5,1.2,0.6,1.8c0.1,0.6,0.1,1.3,0,2c-0.2,1.3-0.8,2.7-1.8,3.7c-1,1-2.3,1.7-3.7,1.9c-0.7,0.1-1.3,0.1-2,0
						c-0.6-0.1-1.3-0.3-1.8-0.5c-1.1-0.5-2-1.3-2.7-2.2c-0.6-0.9-1-1.9-1.1-2.8c-0.3-1.9,0.3-3.4,0.8-4.2
						C385.1,69,385.5,68.7,385.5,68.7c0,0-0.4,0.4-0.9,1.3c-0.5,0.9-1,2.3-0.7,4.1c0.1,0.9,0.5,1.8,1.1,2.7c0.6,0.8,1.5,1.6,2.6,2.1
						c0.5,0.2,1.1,0.4,1.7,0.5c0.6,0.1,1.2,0.1,1.9,0c1.3-0.2,2.5-0.9,3.4-1.8c0.9-1,1.5-2.2,1.7-3.5c0.1-0.6,0.1-1.3,0-1.9
						c-0.1-0.6-0.3-1.2-0.5-1.7c-0.5-1.1-1.3-1.9-2.2-2.5c-0.9-0.6-1.8-0.9-2.7-1c-1.8-0.2-3.2,0.3-4.1,0.9
						C385.9,68.2,385.6,68.7,385.5,68.7z"/>
				</g>
			</g>
		</g>
		<g id="XMLID_25_">
			<g id="XMLID_26_">
				<g id="XMLID_27_">
					<path class="st1" d="M382.3,60.6c0,0-0.1,0-0.2-0.1c-0.1-0.1-0.3-0.2-0.6-0.3c-0.5-0.3-1.3-0.8-2.3-1.4l0.1,0
						c-1.1,1.1-2.5,2.6-4.1,4.3l0-0.1c0.6,0.9,1.3,1.9,2,3l0,0.1l0,0.1c-0.6,1.1-1.1,2.3-1.4,3.6l0,0.1l-0.1,0
						c-1.1,0.3-2.3,0.6-3.5,0.9l0.1-0.1c0,1.9,0.1,3.9,0.1,6l-0.1-0.1c1.1,0.2,2.3,0.5,3.6,0.7l0.1,0l0,0.1c0.3,1.2,0.8,2.4,1.6,3.6
						l0,0.1l0,0.1c-0.6,1-1.2,2-1.9,3.1l0-0.2c1.4,1.3,2.8,2.7,4.3,4.2l-0.2,0c0.9-0.6,2-1.3,3-2l0.1-0.1l0.1,0.1
						c1.1,0.6,2.3,1.1,3.6,1.4l0.1,0l0,0.1c0.3,1.1,0.6,2.3,0.9,3.5l-0.2-0.1c1.9,0,3.9-0.1,6-0.1l-0.2,0.1c0.2-1.1,0.5-2.3,0.7-3.6
						l0-0.1l0.1,0c1.2-0.3,2.4-0.9,3.5-1.5l0,0l0.1-0.1l0.1,0.1c1,0.6,2.1,1.3,3.1,1.9l-0.2,0c1.4-1.5,2.8-2.9,4.2-4.3l0,0.2
						c-0.7-1-1.3-2-2-3l-0.1-0.1l0.1-0.1c0.6-1.1,1.1-2.4,1.4-3.6l0-0.1l0.1,0c1.2-0.3,2.4-0.6,3.5-0.9l-0.1,0.2
						c0-2.1-0.1-4.1-0.1-6l0.1,0.2c-1.2-0.3-2.4-0.5-3.6-0.7l-0.1,0l0-0.1c-0.4-1.3-0.9-2.5-1.5-3.6l-0.1-0.1l0.1-0.1
						c0.6-1.1,1.3-2.1,1.9-3.1l0,0.2c-1.5-1.5-3-2.9-4.3-4.2l0.2,0c-1.1,0.7-2.1,1.4-3,2l-0.1,0l-0.1,0c-1.2-0.7-2.4-1.1-3.6-1.4
						l-0.1,0l0-0.1c-0.3-1.3-0.6-2.4-0.9-3.5l0.1,0.1c-2.3,0-4.3,0.1-6,0.1l0.1-0.1c-0.3,1.4-0.6,2.6-0.8,3.6l0,0l0,0
						c-1.3,0.4-2.2,0.8-2.7,1.1c-0.3,0.1-0.5,0.3-0.6,0.3C382.4,60.6,382.3,60.7,382.3,60.6c0,0,0.1-0.1,0.2-0.1
						c0.1-0.1,0.3-0.2,0.6-0.4c0.6-0.3,1.5-0.7,2.7-1.1l0,0c0.2-1,0.4-2.1,0.7-3.6l0-0.1l0.1,0c1.7,0,3.7-0.1,6-0.1l0.1,0l0,0.1
						c0.3,1.1,0.6,2.2,0.9,3.5l-0.1-0.1c1.2,0.3,2.4,0.8,3.7,1.4l-0.1,0c1-0.6,2-1.3,3-2l0.1-0.1l0.1,0.1c1.4,1.3,2.8,2.7,4.3,4.2
						l0.1,0.1l-0.1,0.1c-0.6,1-1.2,2-1.9,3.1l0-0.2c0.7,1.1,1.2,2.3,1.6,3.6l-0.1-0.1c1.2,0.2,2.4,0.5,3.6,0.7l0.1,0l0,0.1
						c0,2,0.1,4,0.1,6l0,0.1l-0.1,0c-1.2,0.3-2.3,0.6-3.5,0.9l0.1-0.1c-0.3,1.3-0.8,2.5-1.4,3.7l0-0.2c0.7,1,1.3,2,2,3l0.1,0.1
						l-0.1,0.1c-1.4,1.4-2.8,2.9-4.2,4.3l-0.1,0.1l-0.1-0.1c-1-0.6-2.1-1.3-3.1-1.9l0.2,0l0,0c-1.2,0.7-2.4,1.2-3.6,1.6l0.1-0.1
						c-0.3,1.2-0.5,2.4-0.7,3.6l0,0.1l-0.1,0c-2.1,0-4.1,0.1-6,0.1l-0.1,0l0-0.1c-0.3-1.2-0.6-2.4-0.9-3.5l0.1,0.1
						c-1.3-0.3-2.6-0.8-3.7-1.5l0.2,0c-1.1,0.7-2.1,1.4-3,2l-0.1,0.1l-0.1-0.1c-1.5-1.5-3-2.9-4.3-4.2l-0.1-0.1l0.1-0.1
						c0.7-1.1,1.3-2.1,1.9-3.1l0,0.2c-0.7-1.2-1.2-2.4-1.6-3.6l0.1,0.1c-1.2-0.3-2.5-0.5-3.6-0.7l-0.1,0l0-0.1c0-2.1-0.1-4.1-0.1-6
						l0-0.1l0.1,0c1.2-0.3,2.4-0.6,3.5-0.9l-0.1,0.1c0.3-1.4,0.9-2.6,1.5-3.7l0,0.1c-0.7-1.1-1.4-2.1-2-3l0-0.1L375,63
						c1.7-1.8,3.1-3.2,4.2-4.3l0,0l0,0c1,0.6,1.8,1.1,2.3,1.4c0.3,0.2,0.4,0.3,0.6,0.4C382.3,60.6,382.3,60.6,382.3,60.6z"/>
				</g>
			</g>
		</g>
	</g>
	<g id="XMLID_28_">
		<g id="XMLID_29_">
			<g id="XMLID_30_">
				<path class="st1" d="M284.2,87.3c0.9-0.5,1.8-0.9,2.8-1.2l0.6-2.8l4.7-0.1l0.7,2.7c1,0.2,1.9,0.6,2.8,1.1l2.4-1.5l3.4,3.2
					l-1.5,2.4c0.5,0.9,0.9,1.8,1.2,2.8l2.8,0.6l0.1,4.7l-2.7,0.7c-0.2,1-0.6,1.9-1.1,2.8l1.5,2.4l-3.2,3.4l-2.4-1.5
					c-0.9,0.5-1.8,0.9-2.8,1.2l-0.6,2.8l-4.7,0.1l-0.7-2.7c-1-0.2-1.9-0.6-2.8-1.1l-2.4,1.5l-3.4-3.2l1.5-2.4
					c-0.5-0.9-0.9-1.8-1.2-2.8l-2.8-0.6l-0.1-4.7l2.7-0.7c0.2-1,0.6-1.9,1.1-2.8l-1.5-2.4l3.2-3.4L284.2,87.3L284.2,87.3z
					 M286.7,93.5c-1.9,2-1.9,5.2,0.1,7.1c2,1.9,5.2,1.9,7.1-0.1c1.9-2,1.9-5.2-0.1-7.1C291.8,91.5,288.6,91.5,286.7,93.5z"/>
			</g>
		</g>
		<g id="XMLID_31_">
			<g id="XMLID_32_">
				<g id="XMLID_33_">
					<path class="st1" d="M286.7,93.5c0,0,0.3-0.4,0.9-0.8c0.7-0.4,1.8-0.9,3.3-0.8c0.7,0.1,1.5,0.3,2.2,0.8c0.7,0.5,1.4,1.1,1.8,2
						c0.2,0.4,0.4,0.9,0.5,1.4c0.1,0.5,0.1,1,0,1.5c-0.1,1-0.6,2.1-1.4,2.9c-0.8,0.8-1.8,1.3-2.8,1.5c-0.5,0.1-1,0.1-1.5,0
						c-0.5-0.1-1-0.2-1.4-0.4c-0.9-0.4-1.6-1-2.1-1.7c-0.5-0.7-0.8-1.5-0.9-2.2c-0.2-1.5,0.2-2.6,0.7-3.3
						C286.4,93.8,286.7,93.5,286.7,93.5c0,0-0.3,0.3-0.7,1c-0.4,0.7-0.8,1.8-0.6,3.2c0.1,0.7,0.4,1.4,0.9,2.1c0.5,0.7,1.2,1.3,2,1.6
						c0.4,0.2,0.9,0.3,1.3,0.4c0.5,0.1,1,0.1,1.5,0c1-0.2,1.9-0.7,2.7-1.4c0.7-0.8,1.2-1.7,1.3-2.7c0.1-0.5,0.1-1,0-1.5
						c-0.1-0.5-0.2-0.9-0.4-1.3c-0.4-0.8-1-1.5-1.7-1.9c-0.7-0.5-1.4-0.7-2.1-0.8c-1.4-0.2-2.5,0.3-3.2,0.7
						C287,93.2,286.7,93.5,286.7,93.5z"/>
				</g>
			</g>
		</g>
		<g id="XMLID_34_">
			<g id="XMLID_35_">
				<g id="XMLID_36_">
					<path class="st1" d="M284.2,87.3c0,0-0.1,0-0.2-0.1c-0.1-0.1-0.3-0.2-0.5-0.3c-0.4-0.2-1-0.6-1.8-1.1l0.1,0
						c-0.8,0.9-1.9,2-3.2,3.4l0-0.1c0.5,0.7,1,1.5,1.6,2.4l0,0l0,0c-0.5,0.8-0.8,1.8-1.1,2.8l0,0.1l-0.1,0c-0.9,0.2-1.8,0.4-2.7,0.7
						l0.1-0.1c0,1.5,0.1,3,0.1,4.7l-0.1-0.1c0.9,0.2,1.8,0.4,2.8,0.6l0.1,0l0,0.1c0.3,0.9,0.7,1.9,1.2,2.8l0,0.1l0,0.1
						c-0.5,0.7-1,1.6-1.5,2.4l0-0.2c1.1,1,2.2,2.1,3.4,3.2l-0.2,0c0.7-0.5,1.5-1,2.4-1.5l0.1,0l0.1,0c0.8,0.5,1.8,0.9,2.8,1.1l0.1,0
						l0,0.1c0.2,0.9,0.4,1.8,0.7,2.7l-0.1-0.1c1.5,0,3.1-0.1,4.7-0.1l-0.1,0.1c0.2-0.9,0.4-1.8,0.6-2.8l0-0.1l0.1,0
						c0.9-0.3,1.9-0.7,2.8-1.2l0,0l0.1,0l0.1,0c0.8,0.5,1.6,1,2.4,1.5l-0.2,0c1.1-1.1,2.2-2.3,3.2-3.4l0,0.2c-0.5-0.8-1-1.6-1.5-2.4
						l0-0.1l0-0.1c0.5-0.9,0.9-1.8,1.1-2.8l0-0.1l0.1,0c0.9-0.2,1.8-0.4,2.7-0.7l-0.1,0.1c0-1.6-0.1-3.1-0.1-4.7l0.1,0.1
						c-0.9-0.2-1.9-0.4-2.8-0.6l-0.1,0l0-0.1c-0.3-1-0.7-1.9-1.2-2.8l0-0.1l0-0.1c0.5-0.8,1-1.6,1.5-2.4l0,0.1
						c-1.2-1.1-2.3-2.2-3.4-3.2l0.1,0c-0.8,0.5-1.6,1.1-2.4,1.5l-0.1,0l-0.1,0c-0.9-0.5-1.9-0.9-2.8-1.1l-0.1,0l0-0.1
						c-0.2-1-0.5-1.9-0.7-2.7l0.1,0.1c-1.8,0-3.3,0-4.7,0.1l0.1-0.1c-0.2,1.1-0.4,2-0.6,2.8l0,0l0,0c-1,0.3-1.7,0.6-2.1,0.8
						c-0.2,0.1-0.4,0.2-0.5,0.3C284.3,87.3,284.2,87.3,284.2,87.3c0,0,0.1,0,0.2-0.1c0.1-0.1,0.3-0.2,0.5-0.3
						c0.4-0.2,1.1-0.6,2.1-0.9l0,0c0.2-0.8,0.3-1.7,0.6-2.8l0-0.1l0.1,0c1.3,0,2.9-0.1,4.7-0.1l0.1,0l0,0.1c0.2,0.8,0.4,1.7,0.7,2.7
						l-0.1-0.1c0.9,0.2,1.9,0.6,2.9,1.1l-0.1,0c0.7-0.5,1.5-1,2.4-1.6l0.1,0l0.1,0.1c1.1,1,2.2,2.1,3.4,3.2l0.1,0.1l0,0.1
						c-0.5,0.8-1,1.6-1.5,2.4l0-0.1c0.5,0.9,0.9,1.8,1.2,2.8l-0.1-0.1c0.9,0.2,1.8,0.4,2.8,0.6l0.1,0l0,0.1c0,1.5,0.1,3.1,0.1,4.7
						l0,0.1l-0.1,0c-0.9,0.2-1.8,0.4-2.7,0.7l0.1-0.1c-0.2,1-0.6,2-1.1,2.9l0-0.1c0.5,0.8,1,1.6,1.5,2.4l0.1,0.1l-0.1,0.1
						c-1.1,1.1-2.1,2.2-3.2,3.4l-0.1,0.1l-0.1-0.1c-0.8-0.5-1.6-1-2.4-1.5l0.1,0l0,0c-0.9,0.5-1.9,1-2.8,1.2l0.1-0.1
						c-0.2,0.9-0.4,1.9-0.6,2.8l0,0.1l-0.1,0c-1.6,0-3.2,0.1-4.7,0.1l-0.1,0l0-0.1c-0.2-0.9-0.5-1.9-0.7-2.7l0.1,0.1
						c-1-0.3-2-0.7-2.9-1.1l0.1,0c-0.8,0.5-1.6,1.1-2.4,1.5l-0.1,0.1l-0.1-0.1c-1.2-1.1-2.3-2.2-3.4-3.2l-0.1-0.1l0.1-0.1
						c0.5-0.8,1-1.7,1.5-2.4l0,0.1c-0.6-0.9-1-1.9-1.2-2.8l0.1,0.1c-1-0.2-1.9-0.4-2.8-0.6l-0.1,0l0-0.1c0-1.6,0-3.2-0.1-4.7l0-0.1
						l0.1,0c1-0.2,1.9-0.5,2.7-0.7l-0.1,0.1c0.3-1.1,0.7-2,1.1-2.9l0,0.1c-0.6-0.9-1.1-1.6-1.5-2.4l0,0l0,0c1.3-1.4,2.4-2.5,3.3-3.3
						l0,0l0,0c0.8,0.5,1.4,0.8,1.8,1.1c0.2,0.1,0.3,0.2,0.5,0.3C284.2,87.2,284.2,87.3,284.2,87.3z"/>
				</g>
			</g>
		</g>
	</g>
	<g id="XMLID_37_">
		<g id="XMLID_38_">
			<g id="XMLID_39_">
				<path class="st1" d="M70.3,169.6c0.9-0.5,1.8-0.9,2.8-1.2l0.6-2.8l4.7-0.1l0.7,2.7c1,0.2,1.9,0.6,2.8,1.1l2.4-1.5l3.4,3.2
					l-1.5,2.4c0.5,0.9,0.9,1.8,1.2,2.8l2.8,0.6l0.1,4.7l-2.7,0.7c-0.2,1-0.6,1.9-1.1,2.8l1.5,2.4l-3.2,3.4l-2.4-1.5
					c-0.9,0.5-1.8,0.9-2.8,1.2l-0.6,2.8l-4.7,0.1l-0.7-2.7c-1-0.2-1.9-0.6-2.8-1.1l-2.4,1.5l-3.4-3.2l1.5-2.4
					c-0.5-0.9-0.9-1.8-1.2-2.8l-2.8-0.6l-0.1-4.7l2.7-0.7c0.2-1,0.6-1.9,1.1-2.8l-1.5-2.4l3.2-3.4L70.3,169.6L70.3,169.6z
					 M72.8,175.8c-1.9,2-1.9,5.2,0.1,7.1c2,1.9,5.2,1.9,7.1-0.1c1.9-2,1.9-5.2-0.1-7.1C77.9,173.8,74.7,173.8,72.8,175.8z"/>
			</g>
		</g>
		<g id="XMLID_40_">
			<g id="XMLID_41_">
				<g id="XMLID_42_">
					<path class="st1" d="M72.8,175.8c0,0,0.3-0.4,0.9-0.8c0.7-0.4,1.8-0.9,3.3-0.8c0.7,0.1,1.5,0.3,2.2,0.8c0.7,0.5,1.4,1.1,1.8,2
						c0.2,0.4,0.4,0.9,0.5,1.4c0.1,0.5,0.1,1,0,1.5c-0.1,1-0.6,2.1-1.4,2.9c-0.8,0.8-1.8,1.3-2.8,1.5c-0.5,0.1-1,0.1-1.5,0
						c-0.5-0.1-1-0.2-1.4-0.4c-0.9-0.4-1.6-1-2.1-1.7c-0.5-0.7-0.8-1.5-0.9-2.2c-0.2-1.5,0.2-2.6,0.7-3.3
						C72.5,176.1,72.8,175.8,72.8,175.8c0,0-0.3,0.3-0.7,1c-0.4,0.7-0.8,1.8-0.6,3.2c0.1,0.7,0.4,1.4,0.9,2.1c0.5,0.7,1.2,1.3,2,1.6
						c0.4,0.2,0.9,0.3,1.3,0.4c0.5,0.1,1,0.1,1.5,0c1-0.2,1.9-0.7,2.7-1.4c0.7-0.8,1.2-1.7,1.3-2.7c0.1-0.5,0.1-1,0-1.5
						c-0.1-0.5-0.2-0.9-0.4-1.3c-0.4-0.8-1-1.5-1.7-1.9c-0.7-0.5-1.4-0.7-2.1-0.8c-1.4-0.2-2.5,0.3-3.2,0.7
						C73.1,175.5,72.8,175.8,72.8,175.8z"/>
				</g>
			</g>
		</g>
		<g id="XMLID_43_">
			<g id="XMLID_44_">
				<g id="XMLID_45_">
					<path class="st1" d="M70.3,169.6c0,0-0.1,0-0.2-0.1c-0.1-0.1-0.3-0.2-0.5-0.3c-0.4-0.2-1-0.6-1.8-1.1l0.1,0
						c-0.8,0.9-1.9,2-3.2,3.4l0-0.1c0.5,0.7,1,1.5,1.6,2.4l0,0l0,0c-0.5,0.8-0.8,1.8-1.1,2.8l0,0.1l-0.1,0c-0.9,0.2-1.8,0.4-2.7,0.7
						l0.1-0.1c0,1.5,0.1,3,0.1,4.7l-0.1-0.1c0.9,0.2,1.8,0.4,2.8,0.6l0.1,0l0,0.1c0.3,0.9,0.7,1.9,1.2,2.8l0,0.1l0,0.1
						c-0.5,0.7-1,1.6-1.5,2.4l0-0.2c1.1,1,2.2,2.1,3.4,3.2l-0.2,0c0.7-0.5,1.5-1,2.4-1.5l0.1,0l0.1,0c0.8,0.5,1.8,0.9,2.8,1.1l0.1,0
						l0,0.1c0.2,0.9,0.4,1.8,0.7,2.7l-0.1-0.1c1.5,0,3.1-0.1,4.7-0.1l-0.1,0.1c0.2-0.9,0.4-1.8,0.6-2.8l0-0.1l0.1,0
						c0.9-0.3,1.9-0.7,2.8-1.2l0,0l0.1,0l0.1,0c0.8,0.5,1.6,1,2.4,1.5l-0.2,0c1.1-1.1,2.2-2.3,3.2-3.4l0,0.2c-0.5-0.8-1-1.6-1.5-2.4
						l0-0.1l0-0.1c0.5-0.9,0.9-1.8,1.1-2.8l0-0.1l0.1,0c0.9-0.2,1.8-0.4,2.7-0.7l-0.1,0.1c0-1.6-0.1-3.1-0.1-4.7l0.1,0.1
						c-0.9-0.2-1.9-0.4-2.8-0.6l-0.1,0l0-0.1c-0.3-1-0.7-1.9-1.2-2.8l0-0.1l0-0.1c0.5-0.8,1-1.6,1.5-2.4l0,0.1
						c-1.2-1.1-2.3-2.2-3.4-3.2l0.1,0c-0.8,0.5-1.6,1.1-2.4,1.5l-0.1,0l-0.1,0c-0.9-0.5-1.9-0.9-2.8-1.1l-0.1,0l0-0.1
						c-0.2-1-0.5-1.9-0.7-2.7l0.1,0.1c-1.8,0-3.3,0-4.7,0.1l0.1-0.1c-0.2,1.1-0.4,2-0.6,2.8l0,0l0,0c-1,0.3-1.7,0.6-2.1,0.8
						c-0.2,0.1-0.4,0.2-0.5,0.3C70.4,169.6,70.3,169.6,70.3,169.6c0,0,0.1,0,0.2-0.1c0.1-0.1,0.3-0.2,0.5-0.3
						c0.4-0.2,1.1-0.6,2.1-0.9l0,0c0.2-0.8,0.3-1.7,0.6-2.8l0-0.1l0.1,0c1.3,0,2.9-0.1,4.7-0.1l0.1,0l0,0.1c0.2,0.8,0.4,1.7,0.7,2.7
						l-0.1-0.1c0.9,0.2,1.9,0.6,2.9,1.1l-0.1,0c0.7-0.5,1.5-1,2.4-1.6l0.1,0l0.1,0.1c1.1,1,2.2,2.1,3.4,3.2l0.1,0.1l0,0.1
						c-0.5,0.8-1,1.6-1.5,2.4l0-0.1c0.5,0.9,0.9,1.8,1.2,2.8l-0.1-0.1c0.9,0.2,1.8,0.4,2.8,0.6l0.1,0l0,0.1c0,1.5,0.1,3.1,0.1,4.7
						l0,0.1l-0.1,0c-0.9,0.2-1.8,0.4-2.7,0.7l0.1-0.1c-0.2,1-0.6,2-1.1,2.9l0-0.1c0.5,0.8,1,1.6,1.5,2.4l0.1,0.1l-0.1,0.1
						c-1.1,1.1-2.1,2.2-3.2,3.4l-0.1,0.1l-0.1-0.1c-0.8-0.5-1.6-1-2.4-1.5l0.1,0l0,0c-0.9,0.5-1.9,1-2.8,1.2l0.1-0.1
						c-0.2,0.9-0.4,1.9-0.6,2.8l0,0.1l-0.1,0c-1.6,0-3.2,0.1-4.7,0.1l-0.1,0l0-0.1c-0.2-0.9-0.5-1.9-0.7-2.7l0.1,0.1
						c-1-0.3-2-0.7-2.9-1.1l0.1,0c-0.8,0.5-1.6,1.1-2.4,1.5l-0.1,0.1l-0.1-0.1c-1.2-1.1-2.3-2.2-3.4-3.2l-0.1-0.1l0.1-0.1
						c0.5-0.8,1-1.7,1.5-2.4l0,0.1c-0.6-0.9-1-1.9-1.2-2.8l0.1,0.1c-1-0.2-1.9-0.4-2.8-0.6l-0.1,0l0-0.1c0-1.6,0-3.2-0.1-4.7l0-0.1
						l0.1,0c1-0.2,1.9-0.5,2.7-0.7l-0.1,0.1c0.3-1.1,0.7-2,1.1-2.9l0,0.1c-0.6-0.9-1.1-1.6-1.5-2.4l0,0l0,0c1.3-1.4,2.4-2.5,3.3-3.3
						l0,0l0,0c0.8,0.5,1.4,0.8,1.8,1.1c0.2,0.1,0.3,0.2,0.5,0.3C70.3,169.6,70.3,169.6,70.3,169.6z"/>
				</g>
			</g>
		</g>
	</g>
	<g>
		<g id="XMLID_47_">
			<g id="XMLID_48_">
				<path class="st2" d="M92.2,242.2c2.8-1.7,5.8-3,8.8-3.8l1.8-8.8l14.8-0.3l2.1,8.7c3.1,0.8,6.1,1.9,9,3.5l7.5-4.9l10.6,10.3
					l-4.6,7.6c1.7,2.8,3,5.8,3.8,8.8l8.8,1.8l0.3,14.8l-8.7,2.1c-0.8,3.1-1.9,6.1-3.5,9l4.9,7.5l-10.3,10.6l-7.6-4.6
					c-2.8,1.7-5.8,3-8.8,3.8l-1.8,8.8l-14.8,0.3l-2.1-8.7c-3.1-0.8-6.1-1.9-9-3.5l-7.5,4.9l-10.6-10.3l4.6-7.6
					c-1.7-2.8-3-5.8-3.8-8.8l-8.8-1.8l-0.3-14.8l8.7-2.1c0.8-3.1,1.9-6.1,3.5-9l-4.9-7.5l10.3-10.6L92.2,242.2L92.2,242.2z
					 M100,261.9c-6.1,6.3-5.9,16.4,0.4,22.4c6.3,6.1,16.3,5.9,22.4-0.4c6.1-6.3,5.9-16.4-0.4-22.4
					C116.2,255.4,106.1,255.6,100,261.9z"/>
			</g>
		</g>
		<g id="XMLID_49_">
			<g id="XMLID_50_">
				<g id="XMLID_51_">
					<path class="st3" d="M100,261.9c0,0,0.8-1.2,3-2.6c2.1-1.4,5.7-2.9,10.4-2.4c2.3,0.3,4.8,1,7,2.5c2.2,1.5,4.4,3.6,5.7,6.4
						c0.7,1.4,1.2,2.9,1.4,4.5c0.3,1.6,0.3,3.2,0.1,4.9c-0.4,3.3-2,6.6-4.4,9.1c-2.5,2.5-5.7,4.2-9,4.7c-1.6,0.3-3.3,0.3-4.9,0.1
						c-1.6-0.2-3.1-0.6-4.5-1.3c-2.8-1.2-5-3.3-6.6-5.5c-1.6-2.2-2.4-4.7-2.7-6.9c-0.6-4.6,0.8-8.3,2.1-10.4
						C98.9,262.8,100,261.9,100,261.9c0.1,0.1-1,1-2.2,3.2c-1.2,2.1-2.5,5.8-1.8,10.2c0.4,2.2,1.2,4.5,2.7,6.6
						c1.5,2.1,3.7,4,6.3,5.1c1.3,0.6,2.8,1,4.3,1.2c1.5,0.2,3.1,0.2,4.6-0.1c3.1-0.5,6.1-2.1,8.5-4.5c2.3-2.4,3.8-5.5,4.2-8.6
						c0.2-1.6,0.2-3.1-0.1-4.6c-0.2-1.5-0.7-2.9-1.3-4.2c-1.2-2.6-3.2-4.7-5.4-6.1c-2.1-1.5-4.5-2.2-6.7-2.5
						c-4.4-0.6-8,0.8-10.1,2.1C101,260.9,100.1,262,100,261.9z"/>
				</g>
			</g>
		</g>
		<g id="XMLID_52_">
			<g id="XMLID_53_">
				<g id="XMLID_54_">
					<path class="st3" d="M92.2,242.2c0,0-0.2-0.1-0.5-0.3c-0.4-0.2-0.8-0.5-1.5-0.8c-1.3-0.8-3.3-1.9-5.8-3.4l0.2,0
						c-2.6,2.7-6.1,6.3-10.2,10.7l0-0.3c1.5,2.3,3.2,4.8,4.9,7.5l0.1,0.1l-0.1,0.1c-1.5,2.6-2.7,5.6-3.5,8.9l0,0.2l-0.2,0
						c-2.7,0.7-5.6,1.4-8.7,2.2l0.2-0.3c0.1,4.7,0.2,9.6,0.3,14.8l-0.3-0.3c2.7,0.6,5.7,1.2,8.8,1.8l0.2,0l0.1,0.2
						c0.8,2.9,2.1,5.9,3.8,8.7l0.1,0.2l-0.1,0.2c-1.4,2.4-3,5-4.6,7.6l-0.1-0.5c3.3,3.2,7,6.7,10.7,10.3l-0.5,0
						c2.3-1.5,4.9-3.2,7.5-4.9l0.2-0.1l0.2,0.1c2.6,1.5,5.7,2.7,8.9,3.5l0.3,0.1l0.1,0.3c0.7,2.7,1.4,5.7,2.1,8.7l-0.4-0.3
						c4.7-0.1,9.7-0.2,14.8-0.3l-0.4,0.4c0.6-2.8,1.2-5.7,1.8-8.8l0.1-0.3l0.3-0.1c2.9-0.8,5.9-2.1,8.7-3.8l0,0l0.2-0.1l0.2,0.1
						c2.6,1.6,5.1,3.1,7.6,4.6l-0.6,0.1c3.5-3.6,6.9-7.1,10.3-10.6l-0.1,0.6c-1.6-2.5-3.3-5-4.9-7.5l-0.1-0.2l0.1-0.2
						c1.6-2.8,2.7-5.8,3.5-8.9l0.1-0.3l0.3-0.1c2.9-0.7,5.8-1.4,8.7-2.1l-0.3,0.4c-0.1-5-0.2-10-0.2-14.8l0.3,0.4
						c-3-0.6-5.9-1.2-8.8-1.8l-0.2-0.1l-0.1-0.2c-0.9-3.1-2.2-6.1-3.8-8.8l-0.1-0.2l0.1-0.2c1.6-2.6,3.1-5.2,4.6-7.6l0.1,0.5
						c-3.7-3.6-7.3-7-10.6-10.3l0.4,0c-2.6,1.7-5.1,3.3-7.5,4.9l-0.2,0.1l-0.2-0.1c-3-1.7-6-2.8-8.9-3.5l-0.2,0l0-0.2
						c-0.8-3.2-1.5-6-2.1-8.7l0.3,0.2c-5.7,0.1-10.6,0.1-14.8,0.2l0.2-0.2c-0.8,3.5-1.4,6.4-1.9,8.7l0,0.1l-0.1,0
						c-3.1,0.9-5.3,1.9-6.8,2.6c-0.7,0.4-1.2,0.6-1.6,0.8C92.3,242.2,92.2,242.2,92.2,242.2c0,0,0.2-0.1,0.5-0.3
						c0.3-0.2,0.9-0.5,1.6-0.9c1.4-0.8,3.6-1.8,6.8-2.7l-0.1,0.1c0.5-2.4,1.1-5.3,1.8-8.8l0-0.2l0.2,0c4.2-0.1,9.1-0.2,14.8-0.3
						l0.2,0l0.1,0.2c0.7,2.7,1.4,5.5,2.2,8.7l-0.2-0.2c3,0.7,6,1.9,9.1,3.5l-0.3,0c2.4-1.6,4.8-3.2,7.5-4.9l0.2-0.2l0.2,0.2
						c3.4,3.2,6.9,6.6,10.7,10.3l0.2,0.2l-0.2,0.3c-1.5,2.5-3,5-4.6,7.6l0-0.4c1.7,2.7,3,5.7,3.9,8.9l-0.3-0.3
						c2.9,0.6,5.8,1.2,8.8,1.8l0.3,0.1l0,0.3c0.1,4.8,0.2,9.7,0.3,14.8l0,0.3l-0.3,0.1c-2.9,0.7-5.7,1.4-8.7,2.1l0.3-0.3
						c-0.8,3.1-2,6.2-3.6,9.1l0-0.5c1.6,2.5,3.3,5,4.9,7.5l0.2,0.3l-0.2,0.3c-3.4,3.5-6.8,7-10.3,10.6l-0.3,0.3l-0.3-0.2
						c-2.5-1.5-5.1-3.1-7.6-4.6l0.5,0l0,0c-2.9,1.7-6,3-8.9,3.9l0.3-0.3c-0.6,3-1.2,6-1.8,8.8l-0.1,0.4l-0.4,0
						c-5.1,0.1-10.1,0.2-14.8,0.3l-0.4,0l-0.1-0.3c-0.7-3-1.5-6-2.1-8.7l0.3,0.3c-3.3-0.8-6.4-2.1-9.1-3.6l0.4,0
						c-2.6,1.7-5.2,3.4-7.5,4.9l-0.3,0.2l-0.2-0.2c-3.7-3.6-7.3-7.1-10.6-10.3l-0.2-0.2l0.2-0.3c1.6-2.7,3.2-5.3,4.6-7.6l0,0.4
						c-1.8-2.9-3.1-6-3.9-8.9l0.3,0.3c-3.1-0.6-6-1.3-8.7-1.8l-0.3-0.1l0-0.3c-0.1-5.2-0.2-10.1-0.2-14.8l0-0.3l0.3-0.1
						c3-0.7,6-1.4,8.7-2.1l-0.2,0.2c0.8-3.3,2.1-6.4,3.6-9l0,0.3c-1.8-2.7-3.4-5.2-4.9-7.5l-0.1-0.2l0.1-0.1
						c4.2-4.3,7.7-7.9,10.3-10.6l0.1-0.1l0.1,0.1c2.4,1.5,4.3,2.7,5.6,3.5c0.6,0.4,1.1,0.7,1.4,0.9C92,242.1,92.2,242.2,92.2,242.2z
						"/>
				</g>
			</g>
		</g>
	</g>
	<g id="XMLID_46_">
		<g id="XMLID_55_">
			<g id="XMLID_56_">
				<path class="st0" d="M347.2,93c2.2,0,4.4,0.4,6.4,1l4.2-4.3l8.5,5.2l-1.9,5.7c1.5,1.5,2.8,3.3,3.8,5.2l6-0.1l2.4,9.7l-5.4,2.7
					c0,2.2-0.4,4.4-1,6.4l4.3,4.2l-5.2,8.5l-5.7-1.9c-1.5,1.5-3.3,2.8-5.2,3.8l0.1,6l-9.7,2.4l-2.7-5.4c-2.2,0-4.4-0.4-6.4-1
					l-4.2,4.3l-8.5-5.2l1.9-5.7c-1.5-1.5-2.8-3.3-3.8-5.2l-6,0.1l-2.4-9.7l5.4-2.7c0-2.2,0.4-4.4,1-6.4l-4.3-4.2l5.2-8.5l5.7,1.9
					c1.5-1.5,3.3-2.8,5.2-3.8l-0.1-6l9.7-2.4L347.2,93L347.2,93z M344.6,107c-5.7,1.4-9.2,7.2-7.8,12.9c1.4,5.7,7.2,9.2,12.9,7.8
					c5.7-1.4,9.2-7.2,7.8-12.9C356.1,109.1,350.3,105.6,344.6,107z"/>
			</g>
		</g>
		<g id="XMLID_57_">
			<g id="XMLID_58_">
				<g id="XMLID_59_">
					<path class="st0" d="M344.6,107c0,0,0.9-0.4,2.6-0.4c1.7,0,4.3,0.4,6.8,2.3c1.2,1,2.4,2.3,3.1,3.9c0.7,1.7,1.2,3.6,0.9,5.7
						c-0.1,1-0.4,2.1-0.8,3.1c-0.4,1-1,2-1.7,2.8c-1.4,1.7-3.5,3-5.8,3.6c-2.3,0.5-4.7,0.4-6.8-0.5c-1-0.4-2-1-2.8-1.7
						c-0.8-0.7-1.5-1.5-2.1-2.3c-1.2-1.7-1.7-3.7-1.8-5.5c-0.1-1.8,0.3-3.5,0.9-4.9c1.3-2.9,3.4-4.4,4.9-5.2
						C343.6,107.1,344.6,107,344.6,107c0,0.1-0.9,0.2-2.4,1c-1.4,0.8-3.5,2.4-4.6,5.1c-0.6,1.4-0.9,3-0.8,4.7
						c0.1,1.7,0.6,3.6,1.8,5.2c0.5,0.8,1.2,1.6,2,2.2c0.8,0.7,1.7,1.2,2.7,1.6c2,0.8,4.2,1,6.4,0.5c2.2-0.6,4.1-1.8,5.5-3.4
						c0.7-0.8,1.2-1.7,1.6-2.7c0.4-0.9,0.7-1.9,0.8-2.9c0.2-1.9-0.2-3.8-0.8-5.4c-0.7-1.6-1.8-2.9-2.9-3.8c-2.3-1.9-4.8-2.4-6.5-2.4
						C345.5,106.8,344.6,107.1,344.6,107z"/>
				</g>
			</g>
		</g>
		<g id="XMLID_60_">
			<g id="XMLID_61_">
				<g id="XMLID_62_">
					<path class="st0" d="M347.2,93c0,0-0.1-0.1-0.2-0.3c-0.1-0.2-0.3-0.6-0.5-1c-0.5-0.9-1.2-2.3-2.1-4l0.1,0.1
						c-2.5,0.6-5.7,1.4-9.6,2.4L335,90c0,1.8,0.1,3.8,0.1,6l0,0.1l-0.1,0.1c-1.8,1-3.5,2.2-5.2,3.8l-0.1,0.1l-0.1,0
						c-1.8-0.6-3.7-1.2-5.7-1.9l0.3-0.1c-1.6,2.7-3.3,5.5-5.1,8.5l0-0.3c1.3,1.3,2.8,2.7,4.3,4.2l0.1,0.1l0,0.1
						c-0.6,1.9-0.9,4.1-1,6.3l0,0.2l-0.1,0.1c-1.7,0.8-3.5,1.8-5.4,2.7l0.1-0.3c0.7,3,1.6,6.3,2.4,9.7l-0.3-0.2c1.9,0,3.9-0.1,6-0.1
						l0.2,0l0.1,0.2c1,1.8,2.3,3.6,3.8,5.2l0.1,0.1l-0.1,0.2c-0.6,1.8-1.2,3.7-1.9,5.7l-0.1-0.4c2.7,1.6,5.6,3.4,8.5,5.2l-0.4,0
						c1.3-1.4,2.7-2.8,4.2-4.3l0.1-0.1l0.2,0.1c2,0.6,4.1,0.9,6.3,1l0,0l0.2,0l0.1,0.2c0.9,1.8,1.8,3.6,2.7,5.4l-0.3-0.2
						c3.3-0.8,6.5-1.6,9.7-2.4l-0.2,0.3c0-2-0.1-4-0.1-6l0-0.2l0.2-0.1c1.9-1,3.6-2.3,5.2-3.8l0.1-0.1l0.2,0.1
						c1.9,0.6,3.8,1.3,5.7,1.9l-0.3,0.1c1.8-2.9,3.5-5.7,5.2-8.5l0,0.3c-1.5-1.4-2.9-2.8-4.3-4.2l-0.1-0.1l0-0.2
						c0.6-2.1,0.9-4.2,1-6.3l0-0.2l0.1-0.1c1.8-0.9,3.6-1.8,5.4-2.7l-0.1,0.3c-0.8-3.4-1.6-6.6-2.3-9.7l0.2,0.2
						c-2.1,0-4.1,0.1-6,0.1l-0.1,0l-0.1-0.1c-1.1-2-2.4-3.7-3.8-5.2l-0.1-0.1l0-0.1c0.7-2.1,1.3-3.9,1.9-5.7l0.1,0.2
						c-3.3-2-6.1-3.7-8.5-5.2l0.2,0c-1.7,1.7-3.1,3.1-4.2,4.3l0,0l-0.1,0c-2.1-0.6-3.7-0.8-4.8-0.9c-0.5,0-0.9-0.1-1.2-0.1
						C347.3,93,347.2,93,347.2,93c0,0,0.1,0,0.4,0c0.3,0,0.7,0,1.2,0c1.1,0.1,2.7,0.3,4.8,0.9l-0.1,0c1.1-1.2,2.5-2.6,4.1-4.4
						l0.1-0.1l0.1,0.1c2.4,1.4,5.2,3.1,8.5,5.1l0.1,0.1l0,0.1c-0.6,1.8-1.2,3.6-1.9,5.7l0-0.2c1.4,1.5,2.8,3.2,3.9,5.3l-0.2-0.1
						c1.9,0,3.9-0.1,6-0.1l0.2,0l0,0.2c0.8,3.1,1.5,6.3,2.4,9.7l0,0.2l-0.2,0.1c-1.7,0.9-3.5,1.8-5.4,2.7l0.1-0.2
						c0,2.1-0.4,4.3-1,6.5l-0.1-0.3c1.4,1.4,2.9,2.8,4.3,4.2l0.2,0.2l-0.1,0.2c-1.7,2.8-3.4,5.6-5.2,8.5l-0.1,0.2l-0.2-0.1
						c-1.9-0.6-3.8-1.3-5.7-1.9l0.3-0.1c-1.6,1.5-3.3,2.8-5.3,3.9l0.2-0.3c0,2,0.1,4,0.1,6l0,0.2l-0.2,0.1c-3.2,0.8-6.4,1.6-9.7,2.4
						l-0.2,0.1l-0.1-0.2c-0.9-1.8-1.8-3.6-2.7-5.4l0.3,0.2l0,0c-2.3,0-4.5-0.4-6.5-1l0.3-0.1c-1.4,1.5-2.9,3-4.2,4.3l-0.2,0.2
						l-0.2-0.1c-2.9-1.8-5.8-3.5-8.5-5.2l-0.2-0.1l0.1-0.2c0.7-2,1.3-3.9,1.9-5.7l0.1,0.3c-1.6-1.6-2.9-3.5-3.9-5.3l0.3,0.2
						c-2.1,0-4.1,0.1-6,0.1l-0.2,0l-0.1-0.2c-0.8-3.4-1.6-6.6-2.4-9.7l-0.1-0.2l0.2-0.1c1.9-0.9,3.7-1.8,5.4-2.7l-0.1,0.2
						c0-2.3,0.4-4.5,1-6.5l0.1,0.3c-1.5-1.5-3-2.9-4.3-4.2l-0.1-0.1l0.1-0.2c1.8-3,3.5-5.8,5.2-8.5l0.1-0.1l0.2,0.1
						c2,0.7,3.9,1.3,5.7,1.9l-0.2,0c1.7-1.6,3.5-2.9,5.3-3.9l-0.1,0.2c0-2.2-0.1-4.2-0.1-6l0-0.1l0.1,0c3.9-0.9,7.2-1.7,9.7-2.3
						l0.1,0l0,0.1c0.8,1.7,1.5,3.1,1.9,4c0.2,0.4,0.4,0.8,0.5,1C347.1,92.9,347.2,93,347.2,93z"/>
				</g>
			</g>
		</g>
	</g>
	<g>
		<g id="XMLID_64_">
			<g id="XMLID_65_">
				<g id="XMLID_66_">
					<path class="st3" d="M375.1,282.5c0,0,0.9-0.4,2.6-0.4c1.7,0,4.4,0.4,6.8,2.3c1.2,1,2.4,2.3,3.1,4c0.7,1.7,1.2,3.7,0.9,5.7
						c-0.1,1-0.4,2.1-0.8,3.1c-0.4,1-1,2-1.7,2.8c-1.4,1.8-3.5,3.1-5.8,3.7c-2.3,0.6-4.8,0.4-6.9-0.5c-1-0.4-2-1-2.8-1.7
						c-0.8-0.7-1.6-1.5-2.1-2.4c-1.2-1.7-1.7-3.7-1.8-5.5c-0.1-1.8,0.3-3.6,0.9-5c1.3-2.9,3.4-4.5,5-5.2
						C374.1,282.6,375.1,282.5,375.1,282.5c0,0.1-0.9,0.3-2.4,1.1c-1.5,0.8-3.5,2.4-4.7,5.2c-0.6,1.4-1,3-0.8,4.8
						c0.1,1.7,0.7,3.6,1.8,5.2c0.5,0.8,1.2,1.6,2,2.2c0.8,0.7,1.7,1.2,2.7,1.6c2,0.8,4.3,1,6.5,0.5c2.2-0.6,4.2-1.8,5.5-3.4
						c0.7-0.8,1.2-1.7,1.6-2.7c0.4-0.9,0.7-1.9,0.8-2.9c0.2-2-0.2-3.9-0.8-5.5c-0.7-1.6-1.8-2.9-2.9-3.9c-2.3-1.9-4.9-2.4-6.6-2.4
						C376,282.3,375.1,282.6,375.1,282.5z"/>
				</g>
			</g>
		</g>
		<g id="XMLID_67_">
			<g id="XMLID_68_">
				<g id="XMLID_69_">
					<path class="st3" d="M377.7,268.4c0,0-0.1-0.1-0.2-0.3c-0.1-0.2-0.3-0.6-0.5-1c-0.5-0.9-1.2-2.3-2.1-4l0.1,0.1
						c-2.5,0.6-5.8,1.5-9.7,2.4l0.1-0.2c0,1.8,0.1,3.9,0.1,6.1l0,0.1l-0.1,0.1c-1.8,1-3.6,2.3-5.2,3.9l-0.1,0.1l-0.1,0
						c-1.8-0.6-3.7-1.2-5.8-1.9l0.3-0.1c-1.6,2.7-3.4,5.6-5.2,8.6l0-0.3c1.4,1.3,2.8,2.7,4.4,4.2l0.1,0.1l0,0.1
						c-0.6,1.9-0.9,4.1-1,6.4l0,0.2l-0.1,0.1c-1.7,0.8-3.5,1.8-5.4,2.7l0.1-0.3c0.8,3.1,1.6,6.4,2.4,9.8l-0.3-0.2
						c1.9,0,4-0.1,6.1-0.1l0.2,0l0.1,0.2c1,1.8,2.3,3.6,3.8,5.2l0.1,0.1l-0.1,0.2c-0.6,1.8-1.3,3.8-1.9,5.8l-0.1-0.4
						c2.7,1.6,5.6,3.4,8.6,5.2l-0.4,0c1.3-1.4,2.8-2.9,4.2-4.4l0.1-0.1l0.2,0.1c2,0.6,4.2,0.9,6.4,1l0,0l0.2,0l0.1,0.2
						c0.9,1.8,1.8,3.6,2.7,5.4l-0.3-0.2c3.3-0.8,6.5-1.6,9.8-2.4l-0.2,0.3c0-2-0.1-4.1-0.1-6.1l0-0.2l0.2-0.1c1.9-1,3.7-2.3,5.2-3.8
						l0.1-0.1l0.2,0.1c1.9,0.7,3.9,1.3,5.8,1.9l-0.3,0.1c1.8-2.9,3.5-5.8,5.2-8.6l0,0.4c-1.5-1.4-2.9-2.8-4.4-4.2l-0.1-0.1l0-0.2
						c0.6-2.1,1-4.3,1-6.4l0-0.2l0.1-0.1c1.9-0.9,3.7-1.8,5.4-2.7l-0.1,0.3c-0.8-3.4-1.6-6.7-2.4-9.8l0.2,0.2
						c-2.1,0-4.1,0.1-6.1,0.1l-0.1,0l-0.1-0.1c-1.1-2-2.4-3.8-3.8-5.2l-0.1-0.1l0-0.1c0.7-2.1,1.3-4,1.9-5.8l0.1,0.2
						c-3.3-2-6.1-3.8-8.6-5.2l0.2,0c-1.7,1.7-3.1,3.2-4.2,4.3l0,0l-0.1,0c-2.1-0.6-3.7-0.8-4.8-1c-0.5,0-0.9-0.1-1.2-0.1
						C377.8,268.4,377.7,268.4,377.7,268.4c0,0,0.1,0,0.4,0c0.3,0,0.7,0,1.2,0c1.1,0.1,2.7,0.3,4.9,0.9l-0.1,0
						c1.1-1.2,2.5-2.6,4.2-4.4l0.1-0.1l0.1,0.1c2.4,1.5,5.3,3.2,8.6,5.2l0.1,0.1l0,0.1c-0.6,1.8-1.2,3.7-1.9,5.8l0-0.2
						c1.4,1.5,2.8,3.2,3.9,5.3l-0.2-0.1c1.9,0,3.9-0.1,6.1-0.1l0.2,0l0,0.2c0.8,3.1,1.6,6.3,2.4,9.7l0,0.2l-0.2,0.1
						c-1.8,0.9-3.6,1.8-5.4,2.7l0.1-0.2c0,2.2-0.4,4.4-1,6.5l-0.1-0.3c1.4,1.4,2.9,2.8,4.4,4.2l0.2,0.2l-0.1,0.2
						c-1.7,2.8-3.4,5.7-5.2,8.6l-0.1,0.2l-0.2-0.1c-1.9-0.6-3.8-1.3-5.8-1.9l0.3-0.1c-1.6,1.5-3.4,2.8-5.3,3.9l0.2-0.3
						c0,2,0.1,4,0.1,6.1l0,0.2l-0.2,0.1c-3.2,0.8-6.5,1.6-9.8,2.4l-0.2,0.1l-0.1-0.2c-0.9-1.8-1.8-3.6-2.7-5.4l0.3,0.2l0,0
						c-2.3,0-4.5-0.4-6.5-1l0.3-0.1c-1.4,1.5-2.9,3-4.2,4.4l-0.2,0.2l-0.2-0.1c-3-1.8-5.9-3.6-8.6-5.2l-0.2-0.1l0.1-0.2
						c0.7-2,1.3-4,1.9-5.8l0.1,0.3c-1.6-1.7-2.9-3.5-3.9-5.3l0.3,0.2c-2.1,0-4.2,0.1-6.1,0.1l-0.2,0l-0.1-0.2
						c-0.8-3.4-1.6-6.7-2.4-9.8l-0.1-0.2l0.2-0.1c1.9-0.9,3.7-1.9,5.4-2.7l-0.1,0.2c0-2.3,0.4-4.6,1-6.5l0.1,0.3
						c-1.5-1.5-3-2.9-4.4-4.2l-0.1-0.1l0.1-0.2c1.8-3,3.6-5.9,5.2-8.6l0.1-0.2l0.2,0.1c2,0.7,4,1.3,5.8,1.9l-0.2,0
						c1.7-1.6,3.5-2.9,5.3-3.9l-0.1,0.2c0-2.2-0.1-4.2-0.1-6.1l0-0.1l0.1,0c4-1,7.3-1.7,9.8-2.3l0.1,0l0,0.1c0.9,1.8,1.5,3.1,2,4.1
						c0.2,0.4,0.4,0.8,0.5,1.1C377.6,268.2,377.7,268.3,377.7,268.4z"/>
				</g>
			</g>
		</g>
	</g>
	<g id="XMLID_63_">
		<g id="XMLID_70_">
			<g id="XMLID_71_">
				<g id="XMLID_72_">
					<g id="XMLID_73_">
						<g id="XMLID_74_">
							<g id="XMLID_75_">
								<polygon id="XMLID_76_" class="st1" points="56.2,450.4 56.2,481.3 101.3,481.3 151.1,481.3 151.1,450.4 								"/>
							</g>
						</g>
					</g>
				</g>
			</g>
			<g id="XMLID_77_">
				<g id="XMLID_78_">
					<g id="XMLID_79_">
						<g id="XMLID_80_">
							<g id="XMLID_81_">
								<polygon id="XMLID_82_" class="st0" points="52.2,441.8 52.2,450.4 154.4,450.4 154.4,441.8 101.3,441.8 								"/>
							</g>
						</g>
					</g>
				</g>
			</g>
			<g id="XMLID_83_">
				<g id="XMLID_84_">
					<g id="XMLID_85_">
						<g id="XMLID_86_">
							<g id="XMLID_87_">
								<polygon id="XMLID_88_" class="st0" points="103.3,481.3 151.1,481.3 151.1,450.4 154.4,450.4 154.4,441.8 101.3,441.8 
									101.3,449.6 								"/>
							</g>
						</g>
					</g>
				</g>
			</g>
			<g id="XMLID_89_">
				<g id="XMLID_90_">
					<g id="XMLID_91_">
						<g id="XMLID_92_">
							<g id="XMLID_93_">
								<rect id="XMLID_94_" x="69.5" y="455.4" class="st0" width="19.2" height="4.6"/>
							</g>
						</g>
					</g>
				</g>
			</g>
			<g id="XMLID_95_">
				<g id="XMLID_96_">
					<g id="XMLID_97_">
						<g id="XMLID_98_">
							<g id="XMLID_99_">
								<rect id="XMLID_489_" x="67" y="465.9" class="st4" width="24.7" height="9.8"/>
							</g>
						</g>
					</g>
				</g>
			</g>
		</g>
	</g>
	<g id="XMLID_100_">
		<g id="XMLID_101_">
			<g id="XMLID_102_">
				<g id="XMLID_103_">
					<g id="XMLID_104_">
						<g id="XMLID_105_">
							<g id="XMLID_106_">
								<polygon id="XMLID_107_" class="st1" points="70.8,411 70.8,441.9 115.9,441.9 165.7,441.9 165.7,411 								"/>
							</g>
						</g>
					</g>
				</g>
			</g>
			<g id="XMLID_108_">
				<g id="XMLID_109_">
					<g id="XMLID_110_">
						<g id="XMLID_111_">
							<g id="XMLID_112_">
								<polygon id="XMLID_113_" class="st0" points="66.8,402.4 66.8,411 169,411 169,402.4 115.9,402.4 								"/>
							</g>
						</g>
					</g>
				</g>
			</g>
			<g id="XMLID_114_">
				<g id="XMLID_115_">
					<g id="XMLID_116_">
						<g id="XMLID_117_">
							<g id="XMLID_118_">
								<polygon id="XMLID_119_" class="st0" points="117.9,441.9 165.7,441.9 165.7,411 169,411 169,402.4 115.9,402.4 
									115.9,410.2 								"/>
							</g>
						</g>
					</g>
				</g>
			</g>
			<g id="XMLID_120_">
				<g id="XMLID_121_">
					<g id="XMLID_122_">
						<g id="XMLID_123_">
							<g id="XMLID_124_">
								<rect id="XMLID_125_" x="84.1" y="416" class="st0" width="19.2" height="4.6"/>
							</g>
						</g>
					</g>
				</g>
			</g>
			<g id="XMLID_126_">
				<g id="XMLID_127_">
					<g id="XMLID_128_">
						<g id="XMLID_129_">
							<g id="XMLID_130_">
								<rect id="XMLID_240_" x="81.6" y="426.4" class="st4" width="24.7" height="9.8"/>
							</g>
						</g>
					</g>
				</g>
			</g>
		</g>
	</g>
</g>
<g id="Background_Simple" class="st5">
	<path id="XMLID_131_" class="st6" d="M379.9,97.8c0.5,11.4-6.3,22-16,28c-9.7,6-22.7,6.4-32.7,0.9c-11.3-6.2-18.6-18.9-30.9-22.6
		c-9.4-2.8-19.6,0.2-29.3-1.7c-18.1-3.7-28.5-26-22.7-43.6c5.8-17.6,23.9-29.1,42.3-31c18.4-1.9,36.8,4.5,52.9,13.7
		c10.4,5.9,20.2,13.1,27.3,22.7C377.9,73.8,382,86,379.9,97.8"/>
	<path id="XMLID_132_" class="st6" d="M292.2,307c-14.5-10.8-34.4-9.5-52.2-6.6c-17.8,2.8-36.8,6.5-53.4-0.7
		c-13.9-6.1-23.7-19.2-30.1-33c-6.4-13.8-10-28.7-15.5-42.9c-5.6-14.2-13.5-28.1-26.2-36.5c-12.7-8.4-36.6-10.8-48.3-1.2l0,0
		c-10,5.3-17.9,14-22.2,24.5c-6.8,16.9-12.3,42.2-11.7,56.3c1.9,43.5,14.8,84.7,42.4,118.4c22.9,28,68,40.1,104.1,43.1
		c36.1,3,73.2-9.1,100.5-32.9c12.9-11.2,23.9-25.5,27.6-42.3C310.8,336.5,305.9,317.2,292.2,307z"/>
	<path id="XMLID_133_" class="st6" d="M383.6,282.9c-7.7-6.2-20.5-11.1-33.3-8.8c-0.7,0.1-1.3,0.2-2,0.4c0,0-0.1,0-0.1,0l0,0
		c-1.5,0.4-3,0.9-4.4,1.6c-5,2.4-10.5,5.6-14,9.8c-4.9,5.9-7.6,13.8-7.6,21.4c0.1,11.2,9,20.6,19.1,25.5c9.8,4.7,21.3,6.1,31.5,2.5
		c10.2-3.6,18.7-12.7,20.2-23.4C394.5,301.7,391.7,289.4,383.6,282.9z"/>
</g>
<g id="Floor">
	<g id="XMLID_134_">
		<g id="XMLID_135_">
			<path id="XMLID_136_" class="st7" d="M480.7,481.3c0,0.1-103.3,0.3-230.6,0.3c-127.4,0-230.7-0.1-230.7-0.3
				c0-0.1,103.3-0.3,230.7-0.3C377.4,481,480.7,481.1,480.7,481.3z"/>
		</g>
	</g>
</g>
<g id="Processing">
	<g>
		<g id="XMLID_138_">
			<g id="XMLID_139_">
				<linearGradient id="SVGID_1_" gradientUnits="userSpaceOnUse" x1="52.5762" y1="102.94" x2="169.5163" y2="102.94">
					<stop  offset="0" style="stop-color:#E8505B"/>
					<stop  offset="1" style="stop-color:#A605F7"/>
				</linearGradient>
				<path class="st8" d="M86.2,61.4c3.7-2.2,7.7-3.9,11.8-5.1l2.5-11.6l19.6-0.3l2.8,11.5c4.1,1,8.1,2.6,11.9,4.7l9.9-6.5L158.8,68
					l-6.2,10.1c2.2,3.7,3.9,7.7,5.1,11.8l11.6,2.5l0.3,19.6l-11.5,2.8c-1,4.1-2.6,8.1-4.7,11.9l6.5,9.9L146,150.6l-10.1-6.2
					c-3.7,2.2-7.7,3.9-11.8,5.1l-2.5,11.6l-19.6,0.3l-2.8-11.5c-4.1-1-8.1-2.6-11.9-4.7l-9.9,6.5l-14.1-13.7l6.2-10.1
					c-2.2-3.7-3.9-7.7-5.1-11.8l-11.6-2.5l-0.3-19.6l11.5-2.8c1-4.1,2.6-8.1,4.7-11.9l-6.5-9.9l13.7-14.1L86.2,61.4L86.2,61.4z"/>
			</g>
		</g>
		<g id="XMLID_140_">
			<g id="XMLID_141_">
				<g id="XMLID_142_">
					<path id="XMLID_143_" class="st4" d="M122.6,97.2c-0.1,0,0-1.5-0.6-4.1c-0.3-1.3-0.9-2.8-1.9-4.5c-1-1.6-2.4-3.3-4.3-4.8
						c-1.9-1.4-4.3-2.6-7.1-3.1c-2.8-0.5-5.9-0.4-8.8,0.7c-1.5,0.5-2.9,1.3-4.2,2.3c-0.7,0.5-1.3,1.1-1.9,1.6
						c-0.6,0.6-1.2,1.2-1.6,1.9c-2.1,2.7-3.2,6.3-3.3,9.9c0,3.6,1.2,7.2,3.3,9.9c0.5,0.7,1.1,1.3,1.6,1.9c0.6,0.6,1.2,1.1,1.9,1.6
						c1.3,1,2.8,1.8,4.2,2.3c3,1.1,6.1,1.2,8.8,0.7c2.8-0.5,5.2-1.7,7.1-3.1c1.9-1.4,3.3-3.1,4.3-4.8c1-1.6,1.6-3.2,1.9-4.5
						C122.7,98.7,122.5,97.1,122.6,97.2c0,0,0,0.1,0,0.3c0,0.2,0,0.5,0,0.8c0,0.4,0,0.8-0.1,1.3c-0.1,0.5-0.1,1.1-0.3,1.8
						c-0.3,1.3-0.9,2.9-1.8,4.6c-1,1.7-2.4,3.4-4.3,4.9c-1.9,1.5-4.4,2.7-7.2,3.3c-2.8,0.5-6,0.4-9.1-0.7c-1.5-0.5-3-1.3-4.4-2.3
						c-0.7-0.5-1.3-1.1-2-1.7c-0.6-0.6-1.2-1.3-1.7-2c-2.1-2.8-3.3-6.5-3.4-10.2c0-3.7,1.2-7.4,3.4-10.2c0.5-0.7,1.1-1.4,1.7-2
						c0.6-0.6,1.3-1.2,2-1.7c1.4-1,2.8-1.8,4.4-2.3c3-1.1,6.2-1.2,9-0.7c2.8,0.5,5.3,1.8,7.2,3.3c1.9,1.5,3.4,3.2,4.3,4.9
						c1,1.7,1.6,3.3,1.8,4.6c0.2,0.7,0.3,1.3,0.3,1.8c0.1,0.5,0.1,1,0.1,1.3c0,0.3,0,0.6,0,0.8C122.6,97.1,122.6,97.2,122.6,97.2z"
						/>
				</g>
			</g>
			<g id="XMLID_144_">
				<g id="XMLID_145_">
					
						<ellipse id="XMLID_146_" transform="matrix(-0.7071 -0.7071 0.7071 -0.7071 130.8362 289.4582)" class="st4" cx="125.4" cy="117.6" rx="11.4" ry="0.3"/>
				</g>
			</g>
		</g>
	</g>
	<g id="XMLID_137_">
		<g>
			<g id="XMLID_148_">
				<linearGradient id="SVGID_2_" gradientUnits="userSpaceOnUse" x1="177.2862" y1="189.018" x2="327.3878" y2="189.018">
					<stop  offset="0" style="stop-color:#E8505B"/>
					<stop  offset="1" style="stop-color:#A605F7"/>
				</linearGradient>
				<path class="st9" d="M220.4,135.7c4.8-2.9,9.9-5,15.1-6.5l3.2-14.9l25.2-0.4l3.6,14.8c5.3,1.3,10.4,3.3,15.3,6.1l12.8-8.3
					l18.1,17.6l-7.9,13c2.9,4.8,5,9.9,6.5,15.1l14.9,3.2l0.4,25.2l-14.8,3.6c-1.3,5.3-3.3,10.4-6.1,15.3l8.3,12.8l-17.6,18.1
					l-13-7.9c-4.8,2.9-9.9,5-15.1,6.5l-3.2,14.9l-25.2,0.4l-3.6-14.8c-5.3-1.3-10.4-3.3-15.3-6.1l-12.8,8.3l-18.1-17.6l7.9-13
					c-2.9-4.8-5-9.9-6.5-15.1l-14.9-3.2l-0.4-25.2l14.8-3.6c1.3-5.3,3.3-10.4,6.1-15.3l-8.3-12.8l17.6-18.1L220.4,135.7L220.4,135.7
					z"/>
			</g>
		</g>
		<g>
			<g id="XMLID_149_">
				<g id="XMLID_150_">
					<path id="XMLID_151_" class="st4" d="M243.8,215.3c0,0,0.1,0,0.3,0c0.2,0,0.5,0,0.9,0c0.8,0,1.9,0,3.3,0c2.9,0,7.1,0,12.4-0.1
						l-0.2,0.2c-0.1-2.1-0.1-4.5-0.2-7.1l0-0.1l0.1-0.1c3.5-1.6,7.2-4,10.6-7.2c1.7-1.6,3.2-3.5,4.4-5.7c1.3-2.1,2.1-4.6,2.4-7.2
						c0.6-5.2-0.6-11-3.8-15.8c-3.2-4.8-8-8.8-13.8-11c-4.3-1.6-8.9-1.8-13.2-0.9c-4.3,0.8-8.3,2.7-11.5,5.3c-3.2,2.6-5.5,6-6.9,9.6
						c-0.3,0.9-0.7,1.8-0.9,2.7c-0.2,0.9-0.4,1.8-0.7,2.7c-0.3,1.8-0.5,3.6-0.5,5.3c0,1.7,0.3,3.4,0.6,5c0.4,1.6,1,3.1,1.6,4.5
						c1.3,2.8,3.1,5.1,5,6.9c3.7,3.7,7.5,5.8,10.3,7.1l0.1,0l0,0.1c-0.1,1.9-0.2,3.4-0.3,4.4c0,0.5-0.1,0.9-0.1,1.1
						C243.8,215.1,243.8,215.3,243.8,215.3c0,0,0-0.1,0-0.4c0-0.3,0-0.6,0-1.1c0-1,0.1-2.5,0.2-4.5l0.1,0.1c-2.8-1.2-6.7-3.3-10.5-7
						c-1.9-1.9-3.7-4.2-5.1-7c-0.7-1.4-1.3-2.9-1.7-4.5c-0.4-1.6-0.6-3.3-0.7-5.1c0-1.8,0.1-3.6,0.5-5.4c0.2-0.9,0.4-1.8,0.7-2.8
						c0.2-0.9,0.6-1.8,0.9-2.7c1.4-3.6,3.8-7.1,7.1-9.8c3.3-2.7,7.3-4.6,11.7-5.4c4.4-0.9,9.1-0.7,13.5,0.9
						c5.9,2.2,10.8,6.3,14,11.2c1.6,2.5,2.8,5.2,3.4,7.9c0.2,0.7,0.3,1.4,0.4,2.1c0.1,0.7,0.2,1.4,0.2,2.1c0,0.7,0.1,1.4,0.1,2.1
						c-0.1,0.7-0.1,1.4-0.2,2c-0.4,2.7-1.2,5.2-2.5,7.4c-1.3,2.2-2.8,4.1-4.5,5.8c-3.4,3.3-7.1,5.6-10.7,7.3l0.1-0.2
						c0,2.6,0.1,4.9,0.1,7.1l0,0.2l-0.2,0c-5.3,0-9.5-0.1-12.5-0.1c-1.4,0-2.5,0-3.3,0c-0.4,0-0.6,0-0.8,0
						C243.9,215.3,243.8,215.3,243.8,215.3z"/>
				</g>
			</g>
			<g id="XMLID_152_">
				<g id="XMLID_153_">
					<ellipse id="XMLID_154_" class="st4" cx="252.2" cy="220" rx="8.7" ry="0.3"/>
				</g>
			</g>
			<g id="XMLID_155_">
				<g id="XMLID_156_">
					<path id="XMLID_157_" class="st4" d="M255.3,226.5c0,0.1-1.4,0.4-3.1,0.4c-1.7-0.1-3.1-0.4-3-0.6c0-0.1,1.4,0,3.1,0
						C253.9,226.4,255.3,226.4,255.3,226.5z"/>
				</g>
			</g>
			<g id="XMLID_158_">
				<g id="XMLID_159_">
					<path id="XMLID_160_" class="st4" d="M247.3,215.3c0,0,0-0.1,0-0.3c0-0.2,0-0.5,0-0.8c0-0.8,0-1.9,0-3.2
						c0.1-2.8,0.2-6.9,0.3-11.8c0.1-2.5,0.1-5.2,0.2-8.2c0-0.7,0-1.5-0.3-2.1c-0.2-0.7-0.9-1.2-1.5-1c-0.7,0.1-1.1,0.8-1.3,1.5
						c-0.2,0.7-0.1,1.5,0.3,2.2c0.7,1.4,2.2,2.4,3.9,2.6c1.6,0.2,3.4-0.5,4.5-1.8c1.2-1.3,1.8-3,1.9-4.8c0-0.9-0.1-1.8-0.5-2.6
						c-0.4-0.7-1.4-1.2-2.1-0.9c-0.8,0.3-1.1,1.3-1,2.1c0.1,0.9,0.6,1.6,1.2,2.3c1.1,1.4,2.5,2.6,4.2,3.2c0.8,0.3,1.7,0.4,2.5,0.3
						c0.8-0.1,1.6-0.5,2.3-1c0.7-0.5,1.2-1.2,1.4-1.9c0.3-0.7,0.2-1.6-0.1-2.2c-0.3-0.7-1-1.2-1.7-1.2c-0.7,0-1.4,0.5-1.8,1.1
						c-0.8,1.2-0.8,2.8-1.1,4.3c-0.3,2.9-0.5,5.6-0.7,8.1c-0.3,5-0.6,9-0.8,11.8c-0.1,1.4-0.2,2.4-0.2,3.2c0,0.3,0,0.6-0.1,0.8
						c0,0.2,0,0.3,0,0.3c0,0,0-0.1,0-0.3c0-0.2,0-0.5,0-0.8c0-0.8,0.1-1.8,0.1-3.2c0.1-2.8,0.3-6.8,0.6-11.8
						c0.2-2.5,0.4-5.2,0.7-8.2c0.1-0.7,0.2-1.5,0.3-2.2c0.1-0.8,0.3-1.6,0.8-2.2c0.5-0.7,1.2-1.2,2.2-1.3c0.9,0,1.8,0.6,2.1,1.4
						c0.4,0.8,0.5,1.8,0.2,2.6c-0.3,0.9-0.9,1.6-1.6,2.1c-0.7,0.5-1.6,0.9-2.5,1.1c-0.9,0.1-1.9,0-2.7-0.3c-1.8-0.6-3.2-1.9-4.4-3.4
						c-0.6-0.7-1.2-1.6-1.3-2.6c-0.1-1,0.3-2.2,1.3-2.6c1.1-0.4,2.2,0.2,2.7,1.1c0.5,0.9,0.6,1.9,0.6,2.9c-0.1,1.9-0.8,3.8-2,5.2
						c-1.2,1.4-3.1,2.2-4.9,2c-1.8-0.2-3.5-1.3-4.2-2.9c-0.4-0.8-0.6-1.7-0.3-2.5c0.2-0.8,0.8-1.6,1.7-1.8c0.5-0.1,0.9,0,1.3,0.3
						c0.4,0.3,0.6,0.6,0.7,1c0.3,0.8,0.3,1.5,0.3,2.3c-0.1,2.9-0.2,5.7-0.3,8.2c-0.2,5-0.3,9-0.4,11.8c-0.1,1.4-0.1,2.4-0.1,3.2
						c0,0.3,0,0.6-0.1,0.8C247.4,215.2,247.3,215.3,247.3,215.3z"/>
				</g>
			</g>
			<g id="XMLID_161_">
				<g id="XMLID_162_">
					<ellipse id="XMLID_163_" class="st4" cx="252.4" cy="223.2" rx="7" ry="0.3"/>
				</g>
			</g>
		</g>
	</g>
	<g id="XMLID_147_">
		<g>
			<g id="XMLID_165_">
				<g id="XMLID_166_">
					<linearGradient id="SVGID_3_" gradientUnits="userSpaceOnUse" x1="358.376" y1="210.2135" x2="455.984" y2="210.2135">
						<stop  offset="0" style="stop-color:#E8505B"/>
						<stop  offset="1" style="stop-color:#A605F7"/>
					</linearGradient>
					<path class="st10" d="M385.9,176c3.1-1.9,6.3-3.4,9.7-4.4l1.9-9.7l16.3-0.5l2.5,9.6c3.4,0.8,6.8,2.1,10,3.8l8.2-5.5l11.9,11.2
						l-5,8.5c1.9,3.1,3.4,6.3,4.4,9.7l9.7,1.9l0.5,16.3l-9.6,2.5c-0.8,3.4-2.1,6.8-3.8,10l5.5,8.2l-11.2,11.9l-8.5-5
						c-3.1,1.9-6.3,3.4-9.7,4.4l-1.9,9.7l-16.3,0.5l-2.5-9.6c-3.4-0.8-6.8-2.1-10-3.8l-8.2,5.5L367.9,240l5-8.5
						c-1.9-3.1-3.4-6.3-4.4-9.7l-9.7-1.9l-0.5-16.3l9.6-2.5c0.8-3.4,2.1-6.8,3.8-10l-5.5-8.2l11.2-11.9L385.9,176L385.9,176z"/>
				</g>
			</g>
		</g>
		<g id="XMLID_164_">
			<g id="XMLID_167_">
				<g id="XMLID_168_">
					<path id="XMLID_169_" class="st4" d="M429.1,227.8c0,0-0.3,0-0.8,0.1c-0.6,0-1.3,0-2.3,0c-2,0-4.9,0-8.4,0.1
						c-7.1,0-16.8,0-27.6,0.1c-0.7,0-1.3,0-2,0l-0.3,0l0-0.3c0-10.3,0.1-19.5,0.1-26.3c0-3.3,0.1-6,0.1-7.9c0-0.9,0-1.6,0-2.1
						c0-0.5,0-0.7,0.1-0.7s0,0.3,0.1,0.7c0,0.5,0,1.2,0,2.1c0,1.9,0,4.6,0.1,7.9c0,6.7,0,16,0.1,26.3l-0.3-0.3c0.6,0,1.3,0,2,0
						c10.8,0,20.5,0.1,27.6,0.1c3.5,0,6.3,0.1,8.4,0.1c0.9,0,1.7,0,2.3,0C428.8,227.8,429.1,227.8,429.1,227.8z"/>
				</g>
			</g>
			<g id="XMLID_170_">
				<g id="XMLID_171_">
					<path id="XMLID_172_" class="st4" d="M424.5,199.7c0,0-0.4,0.4-1.2,1.2c-0.9,0.8-2.1,1.8-3.5,3c-2.9,2.5-7,6-11.5,9.9l-0.7,0.6
						l-0.2,0.1l-0.2-0.2c-1.8-1.7-3.5-3.3-5.1-4.8l0.3,0c-3,2.5-5.6,4.6-7.5,6.2c-0.9,0.7-1.6,1.3-2.2,1.8c-0.5,0.4-0.8,0.6-0.8,0.6
						c0,0,0.2-0.3,0.7-0.7c0.5-0.5,1.2-1.1,2.1-1.9c1.9-1.6,4.4-3.8,7.4-6.4l0.2-0.1l0.2,0.1c1.6,1.5,3.3,3.1,5.2,4.7l-0.3,0
						l0.7-0.6c4.5-3.8,8.6-7.3,11.6-9.8c1.5-1.2,2.7-2.2,3.6-2.9C424,200.1,424.5,199.7,424.5,199.7z"/>
				</g>
			</g>
			<g id="XMLID_173_">
				<g id="XMLID_174_">
					<path id="XMLID_175_" class="st4" d="M424.5,208.3c-0.1,0-0.1-1-0.2-2.6c0-1.6-0.1-3.8-0.1-6.2l0.3,0.3c-0.1,0-0.3,0-0.4,0
						c-2.5,0-4.9,0-6.5-0.1c-1.7,0-2.7-0.1-2.7-0.2c0-0.1,1-0.1,2.7-0.2c1.7,0,4-0.1,6.5-0.1c0.2,0,0.3,0,0.4,0l0.3,0l0,0.3
						c0,2.4,0,4.6-0.1,6.2C424.7,207.4,424.6,208.3,424.5,208.3z"/>
				</g>
			</g>
		</g>
	</g>
	<g id="XMLID_176_">
		<g id="XMLID_177_">
			<g id="XMLID_178_">
				<path id="XMLID_179_" class="st7" d="M160,229.2c-0.1,0-0.7-1.2-1.2-2.8c-0.5-1.6-0.8-2.9-0.7-2.9c0.1,0,0.7,1.2,1.2,2.8
					C159.9,227.9,160.2,229.2,160,229.2z"/>
			</g>
		</g>
		<g id="XMLID_180_">
			<g id="XMLID_181_">
				<path id="XMLID_182_" class="st7" d="M170.6,250.6c-0.1,0.1-1.7-2.1-3.4-5c-1.7-2.9-2.7-5.3-2.6-5.4c0.1-0.1,1.4,2.3,3,5.1
					C169.4,248.3,170.8,250.6,170.6,250.6z"/>
			</g>
		</g>
		<g id="XMLID_183_">
			<g id="XMLID_184_">
				<path id="XMLID_185_" class="st7" d="M186.2,268.7c-0.1,0.1-2.2-1.6-4.5-3.9c-2.3-2.4-4-4.5-3.9-4.6c0.1-0.1,1.9,1.9,4.2,4.2
					C184.4,266.8,186.3,268.6,186.2,268.7z"/>
			</g>
		</g>
		<g id="XMLID_186_">
			<g id="XMLID_187_">
				<path id="XMLID_188_" class="st7" d="M206,282.1c-0.1,0.1-2.5-0.9-5.4-2.6c-2.9-1.7-5-3.3-4.9-3.4c0.1-0.1,2.3,1.3,5.2,3
					C203.7,280.7,206.1,282,206,282.1z"/>
			</g>
		</g>
		<g id="XMLID_189_">
			<g id="XMLID_190_">
				<path id="XMLID_191_" class="st7" d="M228.7,289.4c0,0.1-2.7-0.3-5.9-0.9c-3.2-0.9-5.7-1.7-5.7-1.9c0-0.1,2.7,0.5,5.8,1.4
					C226.1,288.6,228.7,289.3,228.7,289.4z"/>
			</g>
		</g>
		<g id="XMLID_192_">
			<g id="XMLID_193_">
				<path id="XMLID_194_" class="st7" d="M252.6,289.9c0,0.1-2.6,0.6-6,0.7c-3.3,0.2-6,0-6-0.2c0-0.1,2.7-0.2,6-0.3
					C249.9,290,252.6,289.8,252.6,289.9z"/>
			</g>
		</g>
		<g id="XMLID_195_">
			<g id="XMLID_196_">
				<path id="XMLID_197_" class="st7" d="M275.9,284.8c0,0.1-2.5,1.1-5.6,2c-3.2,0.9-5.8,1.3-5.9,1.2c0-0.1,2.6-0.8,5.7-1.7
					C273.3,285.4,275.9,284.6,275.9,284.8z"/>
			</g>
		</g>
		<g id="XMLID_198_">
			<g id="XMLID_199_">
				<path id="XMLID_200_" class="st7" d="M297.6,274.7c0.1,0.1-2.1,1.6-5.1,3.2c-2.9,1.6-5.4,2.6-5.5,2.5c-0.1-0.1,2.3-1.3,5.2-2.9
					C295.2,275.9,297.5,274.5,297.6,274.7z"/>
			</g>
		</g>
		<g id="XMLID_201_">
			<g id="XMLID_202_">
				<path id="XMLID_203_" class="st7" d="M316.1,259.6c0.1,0.1-1.6,2.2-4.1,4.4c-2.4,2.3-4.6,3.8-4.7,3.7c-0.1-0.1,1.9-1.9,4.4-4.1
					C314.1,261.4,316,259.5,316.1,259.6z"/>
			</g>
		</g>
		<g id="XMLID_204_">
			<g id="XMLID_205_">
				<path id="XMLID_206_" class="st7" d="M329.3,239.8c0.1,0.1-0.9,2.6-2.5,5.5c-1.6,2.9-3.2,5.1-3.3,5c-0.1-0.1,1.3-2.4,2.9-5.3
					C328,242.1,329.2,239.7,329.3,239.8z"/>
			</g>
		</g>
		<g id="XMLID_207_">
			<g id="XMLID_208_">
				<path id="XMLID_209_" class="st7" d="M337.5,217.3c0.1,0-0.6,2.6-1.6,5.8c-1,3.1-2,5.7-2.1,5.6c-0.1,0,0.6-2.6,1.6-5.8
					C336.4,219.8,337.4,217.3,337.5,217.3z"/>
			</g>
		</g>
		<g id="XMLID_210_">
			<g id="XMLID_211_">
				<path id="XMLID_212_" class="st7" d="M345.2,194.6c0.2,0.1-0.8,2.6-1.8,5.7c-1.1,3.1-2.1,5.6-2.2,5.6s0.6-2.6,1.7-5.7
					c0.5-1.6,1.1-3,1.5-3.9C344.8,195.2,345.1,194.6,345.2,194.6z"/>
			</g>
		</g>
		<g id="XMLID_213_">
			<g id="XMLID_214_">
				<path id="XMLID_215_" class="st7" d="M355.8,173.2c0.1,0.1-1.2,2.4-2.8,5.3c-1.6,2.9-2.9,5.3-3,5.2c-0.1-0.1,0.9-2.5,2.5-5.4
					C354.1,175.3,355.7,173.1,355.8,173.2z"/>
			</g>
		</g>
		<g id="XMLID_216_">
			<g id="XMLID_217_">
				<path id="XMLID_218_" class="st7" d="M371.8,155.5c0.1,0.1-2,1.8-4.4,4c-2.4,2.2-4.2,4.2-4.4,4.1c-0.1-0.1,1.6-2.2,4-4.5
					C369.4,156.9,371.7,155.4,371.8,155.5z"/>
			</g>
		</g>
		<g id="XMLID_219_">
			<g id="XMLID_220_">
				<path id="XMLID_221_" class="st7" d="M393.3,145.4c0,0.1-2.5,0.9-5.6,2c-3.1,1.1-5.6,2.1-5.6,2c-0.1-0.1,2.3-1.4,5.5-2.5
					C390.7,145.8,393.3,145.3,393.3,145.4z"/>
			</g>
		</g>
		<g id="XMLID_222_">
			<g id="XMLID_223_">
				<path id="XMLID_224_" class="st7" d="M417,142.8c0,0.1-2.7,0.1-6,0.2c-3.3,0.1-6,0.3-6,0.2c0-0.1,2.6-0.6,6-0.7
					C414.4,142.3,417,142.6,417,142.8z"/>
			</g>
		</g>
		<g id="XMLID_225_">
			<g id="XMLID_226_">
				<path id="XMLID_227_" class="st7" d="M440.1,148.7c-0.1,0.1-2.5-0.9-5.7-2c-3.1-1.1-5.7-1.9-5.6-2c0-0.1,2.7,0.4,5.8,1.6
					C437.7,147.3,440.2,148.5,440.1,148.7z"/>
			</g>
		</g>
		<g id="XMLID_228_">
			<g id="XMLID_229_">
				<path id="XMLID_230_" class="st7" d="M460.5,161.1c-0.1,0.1-2.2-1.5-4.9-3.4c-2.7-1.9-4.9-3.4-4.8-3.5c0.1-0.1,2.4,1.2,5.2,3.1
					C458.6,159.2,460.6,161,460.5,161.1z"/>
			</g>
		</g>
		<g id="XMLID_231_">
			<g id="XMLID_232_">
				<path id="XMLID_233_" class="st7" d="M472.5,174.4c-0.1,0.1-0.9-1-1.9-2.3c-1-1.3-1.7-2.4-1.6-2.5c0.1-0.1,1.1,0.9,2.1,2.2
					C472,173.1,472.6,174.3,472.5,174.4z"/>
			</g>
		</g>
	</g>
	<g id="XMLID_234_">
		<g id="XMLID_235_">
			<path id="XMLID_236_" class="st11" d="M208,275.9"/>
		</g>
	</g>
	<g id="XMLID_237_">
		<g id="XMLID_238_">
			<path id="XMLID_239_" class="st7" d="M32.5,88.7c0,0,0.1-0.3,0.2-0.9c0.1-0.6,0.3-1.5,0.6-2.6c0.6-2.3,1.6-5.7,3.3-9.9
				c1.8-4.1,4.4-9.1,8.3-14.3c3.8-5.2,8.9-10.6,15.3-15.6c6.4-4.9,14.2-9.5,23.3-12.6c4.5-1.5,9.3-2.7,14.4-3.5
				c5-0.7,10.3-1.1,15.6-0.9c5.4,0.1,10.9,0.8,16.3,2.1c5.5,1.3,10.9,3.1,16.2,5.7c5.2,2.6,10.2,6,14.8,9.9
				c4.6,3.9,8.8,8.5,12.3,13.6c3.5,5.1,6.3,10.6,8.2,16.4c2,5.7,3.2,11.6,3.7,17.4c0.1,1.5,0.3,2.9,0.3,4.4c0,1.4,0.1,2.9,0.1,4.3
				c0,1.4-0.1,2.9-0.1,4.3c-0.1,1.4-0.2,2.8-0.4,4.2c-0.7,5.6-2.2,10.9-4.3,15.9c-2.1,5-4.6,9.6-7.1,14c-2.6,4.4-5.1,8.6-7.5,12.7
				c-4.8,8.2-7.3,16.9-8.7,24.8c-0.7,4-1.2,7.8-1.4,11.4c-0.3,3.6-0.4,7.1-0.4,10.3c0,6.4,0.1,12,0.8,16.5c0.7,4.5,1.6,7.9,2.3,10.2
				c0.4,1.1,0.7,2,0.9,2.6c0.1,0.3,0.2,0.5,0.3,0.6c0.1,0.1,0.1,0.2,0.1,0.2s-0.6-1.1-1.4-3.4c-0.8-2.3-1.7-5.7-2.4-10.2
				c-0.7-4.5-0.8-10.1-0.9-16.5c0-3.2,0.1-6.7,0.4-10.3c0.2-3.6,0.7-7.5,1.4-11.5c1.4-8,3.9-16.7,8.7-24.9c2.4-4.1,4.9-8.4,7.4-12.7
				c2.5-4.4,5-9,7.1-13.9c2-4.9,3.5-10.2,4.2-15.8c0.2-1.4,0.3-2.8,0.4-4.2c0-1.4,0.1-2.8,0.1-4.3c0-1.4-0.1-2.9-0.1-4.3
				c-0.1-1.4-0.2-2.9-0.3-4.3c-0.6-5.8-1.8-11.6-3.7-17.3c-2-5.7-4.7-11.2-8.2-16.2c-3.5-5.1-7.6-9.6-12.2-13.5
				c-4.6-3.9-9.5-7.2-14.7-9.8c-5.2-2.6-10.6-4.4-16.1-5.7c-5.4-1.3-10.9-1.9-16.2-2.1c-5.3-0.2-10.6,0.2-15.6,0.9
				c-5,0.7-9.8,1.9-14.3,3.4c-9,3-16.7,7.6-23.2,12.5C54,50.6,49,56,45.1,61.1c-3.8,5.1-6.5,10.1-8.3,14.2c-1.8,4.2-2.8,7.5-3.4,9.8
				c-0.3,1.1-0.5,2-0.6,2.6C32.6,88.4,32.5,88.7,32.5,88.7z"/>
		</g>
	</g>
</g>
<g id="Character">
	<g>
		<g>
			<g>
				<g id="XMLID_243_">
					<g id="XMLID_244_">
						<path class="st12" d="M275.9,456.4l15,5.3l-0.2,14.4c-7.2,2-8.2,5.7-8.2,5.7l15-0.3l13.1-26.6l-10.3-6.8l-19.3-8.5"/>
					</g>
					<g id="XMLID_245_" class="st13">
						<polygon class="st4" points="310.6,454.8 297.6,481.4 282.6,481.7 284.2,479.4 296.4,478.5 308.4,453.4 						"/>
					</g>
				</g>
				<g id="XMLID_246_">
					<g id="XMLID_247_">
						<path class="st7" d="M290.7,469.5c0.1,0.2,1-0.4,2.1-0.4c1.2,0,2,0.5,2.1,0.3c0.1-0.1-0.7-1-2.1-1
							C291.4,468.5,290.5,469.4,290.7,469.5z"/>
					</g>
				</g>
				<g id="XMLID_248_">
					<g id="XMLID_249_">
						<path class="st7" d="M290.9,465.9c0.2,0.1,0.8-0.8,2-1.1c1.2-0.3,2.2,0.3,2.3,0.1c0-0.1-0.1-0.3-0.6-0.5
							c-0.4-0.2-1.1-0.4-1.8-0.2c-0.7,0.2-1.3,0.6-1.6,1C290.8,465.5,290.8,465.9,290.9,465.9z"/>
					</g>
				</g>
				<g id="XMLID_250_">
					<g id="XMLID_251_">
						<path class="st7" d="M290.7,461.3c0.2,0.1,0.7-0.8,1.7-1.2c1-0.4,2-0.1,2.1-0.2c0-0.1-0.2-0.3-0.6-0.4c-0.4-0.1-1.1-0.2-1.7,0
							c-0.7,0.2-1.1,0.7-1.3,1.1C290.6,461,290.6,461.3,290.7,461.3z"/>
					</g>
				</g>
				<g id="XMLID_252_">
					<g id="XMLID_253_">
						<path class="st7" d="M289.5,461.3c0.2,0,0.1-1,0.5-2c0.4-1,1.2-1.6,1.1-1.8c-0.1-0.2-1.2,0.2-1.7,1.5
							C288.9,460.3,289.4,461.4,289.5,461.3z"/>
					</g>
				</g>
				<g id="XMLID_254_">
					<g id="XMLID_255_">
						<path class="st7" d="M287.8,459.6c0.1,0,0.2-0.8,0.4-2c0.1-0.7,0.1-1.5,0.2-2.2c0-0.4,0.1-0.8,0-1.4c-0.1-0.3-0.2-0.6-0.5-0.7
							c-0.3-0.2-0.8-0.2-1,0c-0.5,0.4-0.7,0.9-0.9,1.3c-0.2,0.5-0.2,0.9-0.3,1.4c-0.1,0.9,0.1,1.7,0.4,2.3c0.5,1.2,1.3,1.7,1.3,1.6
							c0.1-0.1-0.5-0.6-0.9-1.8c-0.2-0.6-0.3-1.3-0.2-2.1c0-0.4,0.1-0.8,0.3-1.2c0.1-0.4,0.4-0.8,0.6-1c0.1-0.1,0.2-0.1,0.3,0
							c0.1,0.1,0.2,0.2,0.2,0.3c0.1,0.3,0,0.8,0,1.2c0,0.7,0,1.5-0.1,2.2C287.6,458.8,287.7,459.6,287.8,459.6z"/>
					</g>
				</g>
				<g id="XMLID_256_">
					<g id="XMLID_257_">
						<path class="st7" d="M287.5,460.3c0.1,0-0.4-0.7-1.5-1.1c-1.1-0.3-3.1-0.3-4.3,1.5c-0.1,0.2,0,0.4,0.1,0.6
							c0.1,0.2,0.3,0.3,0.4,0.3c0.3,0.1,0.5,0.1,0.7,0.1c0.4,0,0.8,0,1.2,0c0.8-0.1,1.5-0.3,2-0.5
							C287.2,460.8,287.7,460.2,287.5,460.3c0-0.2-0.5,0.2-1.6,0.5c-0.5,0.2-1.2,0.3-1.9,0.3c-0.4,0-0.7,0-1.1,0
							c-0.2,0-0.4,0-0.5-0.1c-0.1-0.1-0.1-0.1-0.1-0.1c0-0.1,0.2-0.2,0.3-0.4c0.1-0.1,0.3-0.2,0.4-0.4c0.3-0.2,0.6-0.4,1-0.5
							c0.7-0.2,1.3-0.2,1.8-0.1C286.9,459.9,287.5,460.3,287.5,460.3z"/>
					</g>
				</g>
				<g id="XMLID_258_" class="st13">
					<circle class="st4" cx="300.4" cy="454.6" r="1.8"/>
				</g>
			</g>
		</g>
		<g id="XMLID_241_">
			<g id="XMLID_242_">
				<g id="XMLID_259_">
					<path class="st12" d="M198.9,450.4l0.2,19.7c0,0-19.9,6.8-20.2,10.4l38.1,1l0.9-30.6L198.9,450.4z"/>
				</g>
				<g id="XMLID_260_" class="st13">
					<g id="XMLID_261_">
						<path class="st4" d="M210.9,468.7c0.7,0.2,1.2,1.1,1,1.8s-1,1.2-1.8,1c-0.7-0.2-1.4-1.2-1.1-1.9c0.3-0.7,1.3-1.3,2-0.9"/>
					</g>
				</g>
				<g id="XMLID_262_" class="st13">
					<path class="st4" d="M217,481.4l0-3.1l-36.6,0.2c0,0-1.7,0.7-1.6,1.9L217,481.4z"/>
				</g>
				<g id="XMLID_263_">
					<g id="XMLID_264_">
						<path class="st7" d="M198.5,469.8c0,0.2,0.9,0.3,1.8,0.9c0.9,0.6,1.4,1.4,1.5,1.3c0.2,0-0.1-1.2-1.2-1.9
							C199.6,469.4,198.4,469.6,198.5,469.8z"/>
					</g>
				</g>
				<g id="XMLID_265_">
					<g id="XMLID_266_">
						<path class="st7" d="M194.4,471.4c0,0.2,0.8,0.5,1.4,1.3c0.6,0.8,0.8,1.6,1,1.6c0.2,0,0.3-1.1-0.4-2
							C195.5,471.3,194.5,471.2,194.4,471.4z"/>
					</g>
				</g>
				<g id="XMLID_267_">
					<g id="XMLID_268_">
						<path class="st7" d="M192,476.1c0.2,0,0.5-0.9,0-1.9c-0.4-1-1.3-1.5-1.4-1.3c-0.1,0.2,0.4,0.7,0.8,1.6
							C191.8,475.3,191.9,476.1,192,476.1z"/>
					</g>
				</g>
				<g id="XMLID_269_">
					<g id="XMLID_270_">
						<path class="st7" d="M198.9,465.3c0.1,0.2,0.9-0.1,2,0c1.1,0.1,1.9,0.5,2,0.3c0.1-0.1-0.7-0.8-1.9-0.9
							C199.7,464.6,198.8,465.2,198.9,465.3z"/>
					</g>
				</g>
			</g>
			<g id="XMLID_271_" class="st14">
				<polygon points="198.9,454.2 199,457.7 217.7,458.1 217.8,454.9 				"/>
			</g>
			<g id="XMLID_272_">
				<g id="XMLID_273_">
					<path class="st7" d="M199,461.3c0,0.1,0.7,0.2,1.9,0c0.6-0.1,1.3-0.3,2-0.6c0.4-0.2,0.7-0.3,1.1-0.6c0.2-0.1,0.4-0.2,0.6-0.4
						c0.2-0.2,0.3-0.7,0.1-1c-0.2-0.3-0.5-0.4-0.8-0.4c-0.3,0-0.5,0-0.7,0.1c-0.4,0.1-0.8,0.2-1.2,0.4c-0.7,0.3-1.3,0.7-1.8,1.1
						c-0.9,0.8-1.2,1.5-1.2,1.5c0.1,0.1,0.5-0.5,1.4-1.2c0.5-0.3,1-0.7,1.7-0.9c0.3-0.1,0.7-0.2,1.1-0.3c0.4-0.1,0.8-0.1,0.8,0.1
						c0,0.1,0,0.1,0,0.2c-0.1,0.1-0.3,0.2-0.4,0.3c-0.3,0.2-0.7,0.4-1,0.6c-0.7,0.3-1.3,0.5-1.9,0.7
						C199.7,461.2,199,461.2,199,461.3z"/>
				</g>
			</g>
			<g id="XMLID_274_">
				<g id="XMLID_275_">
					<path class="st7" d="M199.2,461.6c0.1,0,0.5-0.6,0.6-1.8c0-0.6,0-1.3-0.2-2.1c-0.1-0.4-0.3-0.8-0.5-1.2c-0.2-0.4-0.5-0.9-1.2-1
						c-0.4,0-0.7,0.3-0.8,0.5c-0.1,0.3-0.2,0.5-0.2,0.7c-0.1,0.4-0.1,0.9,0,1.3c0.1,0.8,0.4,1.5,0.8,2c0.7,1,1.5,1.2,1.5,1.2
						c0.1-0.1-0.6-0.5-1.1-1.4c-0.3-0.5-0.5-1.1-0.6-1.8c0-0.4,0-0.7,0.1-1.1c0.1-0.4,0.2-0.7,0.4-0.7c0.2,0,0.5,0.3,0.7,0.6
						c0.2,0.3,0.3,0.7,0.4,1c0.2,0.7,0.3,1.4,0.3,1.9C199.3,460.9,199.1,461.6,199.2,461.6z"/>
				</g>
			</g>
		</g>
		<g id="XMLID_276_">
			<g id="XMLID_277_">
				<g id="XMLID_278_">
					<polygon class="st7" points="287.5,440.3 243.6,424 289.8,417.5 292.1,395 205.8,402.6 193.6,420.1 196.8,442.1 280.9,463.5 
											"/>
				</g>
				<g id="XMLID_279_">
					<path id="XMLID_280_" class="st7" d="M194.4,456.1l-4.2-80.4c0.2-7.8,4.5-15,11.3-18.9l0,0c5.6-3.2,12.3-3.9,18.5-1.9l56,18.7
						l30.7,7.9c0,0,5.2,12.9,2.2,23c-3,9.8-13.8,16.4-23.3,13.6c-11.8-3.5-65.8-26.7-65.8-26.7v65.4L194.4,456.1z"/>
				</g>
				<g id="XMLID_281_">
					<g id="XMLID_282_">
						<path id="XMLID_283_" class="st15" d="M284.8,418.2c0,0-0.1,0-0.3-0.1c-0.2-0.1-0.6-0.2-1-0.4c-0.9-0.3-2.1-0.8-3.7-1.5
							c-3.2-1.3-7.8-3.2-13.5-5.5c-11.4-4.7-27.1-11.2-44.4-18.3c-0.8-0.3-1.5-0.6-2.3-0.9l0.4-0.2c0,18.2-0.1,34.5-0.1,46.4
							c0,5.9-0.1,10.6-0.1,14c0,1.6,0,2.9,0,3.8c0,0.4,0,0.7,0,1c0,0.2,0,0.3,0,0.3c0,0,0-0.1,0-0.3c0-0.2,0-0.6,0-1
							c0-0.9,0-2.2,0-3.8c0-3.3,0-8.1-0.1-14c0-11.8,0-28.2-0.1-46.4l0-0.4l0.4,0.1c0.7,0.3,1.5,0.6,2.3,0.9
							c17.3,7.2,32.9,13.7,44.3,18.5c5.6,2.4,10.2,4.3,13.4,5.6c1.6,0.7,2.8,1.2,3.6,1.6c0.4,0.2,0.7,0.3,0.9,0.4
							C284.7,418.1,284.8,418.2,284.8,418.2z"/>
					</g>
				</g>
				<g id="XMLID_284_">
					<g id="XMLID_285_">
						<path id="XMLID_286_" class="st15" d="M233.1,418.3c0-0.1,2.8,0.4,5.8,2c3,1.6,4.9,3.7,4.8,3.8c-0.1,0.1-2.1-1.7-5-3.3
							C235.7,419.2,233,418.5,233.1,418.3z"/>
					</g>
				</g>
			</g>
			<g id="XMLID_287_">
				<g id="XMLID_288_">
					<path id="XMLID_289_" class="st15" d="M215,380.4c0.1-0.1,1.6,2.3,3,5.4c1.4,3.1,2.2,5.8,2.1,5.8c-0.1,0.1-1.2-2.5-2.6-5.6
						C216.1,382.9,214.8,380.5,215,380.4z"/>
				</g>
			</g>
		</g>
		<polygon id="XMLID_290_" class="st16" points="215.1,345 205.2,343.1 194.8,353.8 196.7,360.5 208.8,356 		"/>
		<g id="XMLID_291_">
			<g id="XMLID_292_">
				<path id="XMLID_293_" class="st17" d="M178.5,227.2l-2.7,0.2c0,0-4.8,0.8-4.8,0.9c0,0.1-2.1,3.1-2.1,3.1l-1.9,3
					c0,0,1.6,0.6,2.7-0.5l-0.7,1.5c0,0,2.2,1,3.7-1.4c0.9-1.4,1.6-2.4,2.1-3l0.9-0.1c0.1,0.2,3.5,5,3.5,4.9c0.1-0.1,2.9-2.8,2.9-2.8
					L178.5,227.2z"/>
			</g>
			<g id="XMLID_294_">
				<path id="XMLID_295_" class="st16" d="M185.7,248l0.8-14.8l-7.5-8.5l-8.3,0.5l-3.4,2.4c0.2,0.8,2.5,1.4,5,0.6
					c2.4-0.7,5.2-0.2,5.2-0.2l3.2,5.5l-2.1,2.3l2.7,14.2L185.7,248z"/>
			</g>
			<g id="XMLID_296_">
				<path class="st7" d="M163.7,228.4h26.9c0.7,0,1.2,0.5,1.2,1.2l0,0c0,0.7-0.5,1.2-1.2,1.2h-26.9l-2.6-1.2L163.7,228.4z"/>
			</g>
			<g id="XMLID_297_">
				<path class="st16" d="M177.3,252l-2.7-6.7c-0.3-0.9-0.5-1.8-0.5-2.7c0.1-2.4,0.3-7.3-0.1-8.4c-0.5-1.5-2.5-6.6-1.4-7.4
					s2.7-1,3.8,2c1.1,3,4.5,9.5,4.5,9.5l2.6,10.7L177.3,252z"/>
			</g>
			<g id="XMLID_298_">
				<g id="XMLID_299_">
					<path id="XMLID_300_" class="st17" d="M180.6,237.6c-0.1,0-0.7-1.1-1.6-2.9c-0.9-1.8-2.1-4.4-3.4-7.1c-0.4-0.6-1-1.1-1.6-1
						c-0.6,0-1.2,0.5-1.3,1c-0.2,0.6-0.1,1.2,0.1,1.8c0.1,0.6,0.2,1.1,0.4,1.6c0.5,1.9,1.1,3.1,1,3.1c0,0-0.2-0.2-0.5-0.8
						c-0.3-0.5-0.6-1.3-0.9-2.2c-0.2-0.5-0.3-1-0.4-1.6c-0.1-0.6-0.3-1.2-0.1-2c0.2-0.7,0.9-1.3,1.8-1.4c0.9,0,1.6,0.6,2,1.3
						c1.4,2.8,2.5,5.3,3.3,7.2C180.2,236.4,180.7,237.6,180.6,237.6z"/>
				</g>
			</g>
		</g>
		<g>
			<g id="XMLID_302_">
				<polygon id="XMLID_303_" class="st16" points="305.9,381.3 303.1,376.5 273.8,369.2 277.3,375.1 				"/>
			</g>
			<g id="XMLID_304_">
				<linearGradient id="XMLID_491_" gradientUnits="userSpaceOnUse" x1="174.7762" y1="283.498" x2="251.4956" y2="283.498">
					<stop  offset="0" style="stop-color:#E8505B"/>
					<stop  offset="1" style="stop-color:#A605F7"/>
				</linearGradient>
				<path id="XMLID_305_" class="st18" d="M174.8,252l18.5,43.7c1.7,4.1,5,7.4,9.2,9.1l39.8,16.3l9.3-25.6l-38.8-13.7l-25.2-35.9
					L174.8,252z"/>
			</g>
			<g id="XMLID_306_">
				<linearGradient id="XMLID_492_" gradientUnits="userSpaceOnUse" x1="230.4163" y1="334.4888" x2="305.0217" y2="334.4888">
					<stop  offset="0" style="stop-color:#E8505B"/>
					<stop  offset="1" style="stop-color:#A605F7"/>
				</linearGradient>
				<path id="XMLID_307_" class="st19" d="M234.7,295.9c0,1-4.3,32.8-4.3,39.3c0,6.5,12.4,13.6,12.4,13.6l13.6,28.9H305l-16.6-31.2
					l-7.5-25c-2.8-9.5-8-18-15.1-25l-8.1-5.4L234.7,295.9z"/>
			</g>
			<g id="XMLID_308_">
				<linearGradient id="XMLID_493_" gradientUnits="userSpaceOnUse" x1="208.8454" y1="344.6771" x2="283.6098" y2="344.6771">
					<stop  offset="0" style="stop-color:#E8505B"/>
					<stop  offset="1" style="stop-color:#A605F7"/>
				</linearGradient>
				<path id="XMLID_309_" class="st20" d="M248.8,321l8.2,34.2l-41.1-11.6l-7,12.4l53.5,24.4c6.6,3,14.4,0.9,18.5-5l0,0
					c2.5-3.6,3.3-8.1,2.3-12.4l-12-46.8c-1.6-6.4-8.4-10.1-14.7-8l0,0C251.1,310,247.8,315.5,248.8,321z"/>
			</g>
			<g id="XMLID_310_">
				<g id="XMLID_311_">
					<path id="XMLID_312_" class="st7" d="M242.9,348.8c0,0-0.2-0.1-0.5-0.2c-0.3-0.1-0.7-0.4-1.3-0.7c-1.1-0.6-2.7-1.6-4.5-3
						c-1.8-1.4-3.9-3.3-5.3-6c-1.3-2.8-1.2-6.3-0.7-9.8c0.5-3.5,1.2-6.7,1.6-9.7c0.5-3,0.8-5.7,0.9-7.9c0.2-2.3,0.2-4.1,0.2-5.4
						c0-1.3,0-2,0-2c0,0,0,0.2,0.1,0.5c0,0.3,0.1,0.8,0.1,1.5c0.1,1.3,0.1,3.1,0,5.4c-0.1,2.3-0.4,5-0.8,8c-0.4,3-1.1,6.2-1.6,9.7
						c-0.5,3.4-0.6,6.8,0.7,9.5c1.3,2.7,3.4,4.5,5.1,5.9c1.8,1.4,3.3,2.4,4.4,3.1C242.3,348.4,242.9,348.8,242.9,348.8z"/>
				</g>
			</g>
			<g id="XMLID_313_">
				<g id="XMLID_314_">
					<path id="XMLID_315_" class="st7" d="M265.5,312c-0.1,0.2-2.4-1.1-5.5-1.3c-3.2-0.2-5.6,0.7-5.7,0.6c-0.1-0.1,2.4-1.3,5.7-1.1
						C263.3,310.3,265.6,311.9,265.5,312z"/>
				</g>
			</g>
			<g id="XMLID_316_">
				<g id="XMLID_317_">
					<path id="XMLID_318_" class="st7" d="M260,293.5c0,0-0.2,0.3-0.7,0.8c-0.5,0.5-1.2,1.2-2.2,2.1c-1.9,1.7-4.5,4.1-7.6,6.5
						c-3,2.4-5.9,4.5-8,6c-1.1,0.7-1.9,1.3-2.5,1.7c-0.6,0.4-1,0.6-1,0.5c0,0,0.3-0.3,0.9-0.7c0.7-0.5,1.5-1.1,2.4-1.8
						c2-1.5,4.9-3.6,7.9-6.1c3-2.4,5.7-4.7,7.6-6.4c0.9-0.8,1.7-1.4,2.3-2C259.6,293.7,259.9,293.5,260,293.5z"/>
				</g>
			</g>
			<g id="XMLID_319_">
				<g id="XMLID_320_">
					<path id="XMLID_321_" class="st7" d="M212.7,281.9c0.1,0.1-1.4,0.8-3.1,1.9c-1.7,1.1-2.8,2.2-2.9,2.1c-0.1-0.1,0.9-1.4,2.7-2.5
						C211.1,282.2,212.7,281.7,212.7,281.9z"/>
				</g>
			</g>
			<g id="XMLID_322_">
				<g id="XMLID_323_">
					<g id="XMLID_324_">
						<path id="XMLID_325_" class="st21" d="M252.7,336.5c0,0-0.3,0.1-0.9,0.3c-0.6,0.2-1.4,0.3-2.5,0.4c-1.1,0.1-2.4,0.2-3.8,0.1
							c-1.4-0.1-3-0.3-4.6-0.7c-1.6-0.4-3.1-1-4.4-1.6c-1.3-0.6-2.4-1.3-3.3-1.9c-0.9-0.6-1.6-1.2-2-1.6c-0.4-0.4-0.7-0.6-0.7-0.7
							c0.1-0.1,1.1,0.8,2.9,1.9c1.8,1.1,4.5,2.4,7.6,3.2c3.2,0.8,6.1,0.9,8.3,0.7C251.4,336.8,252.7,336.4,252.7,336.5z"/>
					</g>
				</g>
				<g id="XMLID_326_">
					<g id="XMLID_327_">
						<path id="XMLID_328_" class="st21" d="M255.5,351.6c0,0.1-0.7,0.2-1.8,0.3c-1.2,0.1-2.8,0.1-4.5-0.3c-1.7-0.4-3.2-1-4.3-1.5
							c-1-0.5-1.6-1-1.6-1c0.1-0.1,2.5,1.3,5.9,2C252.7,351.8,255.5,351.4,255.5,351.6z"/>
					</g>
				</g>
				<g id="XMLID_329_">
					<g id="XMLID_330_">
						<path id="XMLID_331_" class="st21" d="M276.8,342.2c0,0-0.3,0.2-0.8,0.5c-0.5,0.3-1.3,0.6-2.2,1c-1.9,0.8-4.6,1.6-7.7,2
							c-3.1,0.4-6,0.4-8,0.2c-1-0.1-1.8-0.2-2.4-0.4c-0.6-0.1-0.9-0.2-0.9-0.2c0-0.1,1.3,0.1,3.3,0.2c2,0.1,4.8,0.1,7.9-0.3
							c3.1-0.4,5.8-1.2,7.7-1.8C275.6,342.7,276.8,342.2,276.8,342.2z"/>
					</g>
				</g>
				<g id="XMLID_332_">
					<g id="XMLID_333_">
						<path id="XMLID_334_" class="st21" d="M273,325.5c0,0.1-1.3-0.2-3.3-0.4c-2-0.2-4.9-0.4-8-0.3c-3.1,0.1-5.9,0.5-8,0.9
							c-2,0.4-3.3,0.7-3.3,0.6c0,0,0.3-0.2,0.8-0.3c0.5-0.2,1.4-0.4,2.4-0.7c2-0.5,4.9-1,8-1.1c3.2-0.1,6,0.2,8.1,0.5
							c1,0.2,1.8,0.3,2.4,0.5C272.7,325.4,273,325.5,273,325.5z"/>
					</g>
				</g>
				<g id="XMLID_335_">
					<g id="XMLID_336_">
						<path id="XMLID_337_" class="st21" d="M281.5,372.3c0,0-0.4,0-1.2-0.2c-0.7-0.2-1.8-0.5-3.1-1c-2.6-0.9-6-2.5-9.5-4.9
							c-3.4-2.4-6.1-5.1-7.9-7.2c-0.9-1.1-1.5-1.9-2-2.6c-0.4-0.6-0.6-1-0.6-1c0.1-0.1,1,1.3,2.8,3.4c1.8,2,4.5,4.7,7.9,7.1
							c3.4,2.4,6.8,4,9.3,5C279.9,371.8,281.5,372.2,281.5,372.3z"/>
					</g>
				</g>
				<g id="XMLID_338_">
					<g id="XMLID_339_">
						<path id="XMLID_340_" class="st21" d="M244.6,371.8c-0.1,0-0.2-1.1-0.1-2.8c0.1-1.8,0.3-4.2,1-6.8c0.7-2.6,1.6-4.9,2.5-6.4
							c0.8-1.6,1.4-2.5,1.5-2.4c0.1,0-0.4,1-1.2,2.6c-0.7,1.6-1.6,3.8-2.3,6.4c-0.7,2.6-1,5-1.1,6.7
							C244.7,370.7,244.7,371.8,244.6,371.8z"/>
					</g>
				</g>
				<g id="XMLID_341_">
					<g id="XMLID_342_">
						<path id="XMLID_343_" class="st21" d="M219.9,360.5c-0.1,0-0.1-0.9,0-2.4c0.2-1.5,0.6-3.5,1.8-5.5c1.2-2,2.7-3.4,3.9-4.3
							c1.1-0.9,1.9-1.4,1.9-1.4c0,0.1-0.6,0.7-1.7,1.7c-1,1-2.5,2.4-3.7,4.3c-1.1,1.9-1.6,3.9-1.9,5.3
							C220,359.6,219.9,360.5,219.9,360.5z"/>
					</g>
				</g>
				<g id="XMLID_344_">
					<g id="XMLID_345_">
						<path id="XMLID_346_" class="st21" d="M301.8,371.5c0,0.1-1.1,0.6-2.9,1.3c-1.8,0.7-4.4,1.5-7.3,2.2c-2.9,0.6-5.6,0.9-7.6,0.8
							c-0.5,0-0.9,0-1.3-0.1c-0.4,0-0.7-0.1-1-0.1c-0.5-0.1-0.8-0.2-0.8-0.2c0-0.1,1.2,0.1,3.1,0.1c1.9,0,4.6-0.3,7.5-1
							c2.9-0.6,5.4-1.4,7.3-2C300.6,371.8,301.8,371.4,301.8,371.5z"/>
					</g>
				</g>
				<g id="XMLID_347_">
					<g id="XMLID_348_">
						<path id="XMLID_349_" class="st21" d="M290.8,351.7c0.1,0-0.3,0.6-1.1,1.2c-0.8,0.6-2.1,1.3-3.5,1.9c-1.5,0.6-2.8,0.9-3.8,1.1
							c-0.5,0.1-0.9,0.1-1.2,0.1c-0.3,0-0.5-0.1-0.4-0.1c0,0,0.6-0.1,1.6-0.4c1-0.3,2.3-0.7,3.7-1.3c1.4-0.5,2.7-1.2,3.5-1.7
							C290.4,352.2,290.7,351.7,290.8,351.7z"/>
					</g>
				</g>
				<g id="XMLID_350_">
					<g id="XMLID_351_">
						<path id="XMLID_352_" class="st21" d="M283.9,331.7c0,0,0,0.2-0.2,0.4c-0.2,0.2-0.4,0.4-0.8,0.7c-0.7,0.5-1.8,1-3,1.4
							c-1.2,0.4-2.4,0.7-3.2,0.9c-0.8,0.1-1.4,0-1.4,0c0-0.1,0.5-0.1,1.3-0.3c0.8-0.2,1.9-0.6,3.1-1c1.2-0.4,2.3-0.9,3-1.2
							c0.4-0.2,0.7-0.3,0.8-0.5C283.8,331.8,283.9,331.7,283.9,331.7z"/>
					</g>
				</g>
				<g id="XMLID_353_">
					<g id="XMLID_354_">
						<path id="XMLID_355_" class="st21" d="M248.3,321.1c0,0.1-0.9,0.1-2.4,0.1c-1.5-0.1-3.5-0.3-5.6-0.8c-2.2-0.5-4.1-1.2-5.4-1.8
							c-1.3-0.6-2.1-1.1-2.1-1.1c0.1-0.2,3.3,1.5,7.6,2.5C244.7,320.9,248.3,320.9,248.3,321.1z"/>
					</g>
				</g>
				<g id="XMLID_356_">
					<g id="XMLID_357_">
						<path id="XMLID_358_" class="st21" d="M277.1,312c0.1,0.1-1.3,1.1-3.3,1.9c-1.9,0.8-3.6,1.1-3.7,0.9c0-0.1,1.6-0.6,3.5-1.4
							C275.5,312.7,277,311.9,277.1,312z"/>
					</g>
				</g>
				<g id="XMLID_359_">
					<g id="XMLID_360_">
						<path id="XMLID_361_" class="st21" d="M254.7,299c0,0,0.6,0.3,1.4,1.1c0.8,0.8,1.7,2,2.4,3.5c0.7,1.5,1,3.1,1.1,4.1
							c0.1,1.1,0,1.8-0.1,1.8c-0.2,0-0.1-2.7-1.5-5.7C256.7,300.9,254.5,299.1,254.7,299z"/>
					</g>
				</g>
				<g id="XMLID_362_">
					<g id="XMLID_363_">
						<path id="XMLID_364_" class="st21" d="M223.2,313.2c0,0-0.2-0.3-0.5-0.9c-0.3-0.6-0.6-1.6-0.8-2.7c-0.5-2.4-0.6-5.8,0.1-9.4
							c0.7-3.6,1.8-6.8,2.7-9c0.4-1.1,0.8-2,1.1-2.6c0.3-0.6,0.4-0.9,0.5-0.9c0,0-0.1,0.4-0.3,1c-0.3,0.7-0.6,1.6-0.9,2.7
							c-0.8,2.3-1.9,5.4-2.6,9c-0.7,3.6-0.6,6.9-0.2,9.2C222.6,311.8,223.2,313.2,223.2,313.2z"/>
					</g>
				</g>
				<g id="XMLID_365_">
					<g id="XMLID_366_">
						<path id="XMLID_367_" class="st21" d="M199.6,303.6c0,0,0-0.4,0.2-1c0.1-0.6,0.4-1.6,0.8-2.7c0.8-2.2,2.1-5.2,4.2-8.2
							c2.1-3,4.4-5.3,6.2-6.8c0.9-0.7,1.7-1.3,2.2-1.7c0.6-0.4,0.9-0.5,0.9-0.5c0.1,0.1-1.1,0.9-2.9,2.5c-1.7,1.5-4,3.9-6,6.8
							c-2,2.9-3.4,5.8-4.3,8C200.1,302.2,199.7,303.6,199.6,303.6z"/>
					</g>
				</g>
				<g id="XMLID_368_">
					<g id="XMLID_369_">
						<path id="XMLID_370_" class="st21" d="M203.4,268.5c0,0.1-1.1,0.1-2.9,0.6c-1.8,0.5-4.1,1.5-6.5,2.9c-2.4,1.5-4.4,3.1-5.6,4.4
							c-1.3,1.3-2,2.2-2,2.2c0,0,0.1-0.3,0.4-0.7c0.1-0.2,0.3-0.5,0.6-0.8c0.2-0.3,0.5-0.6,0.8-1c1.2-1.4,3.2-3.1,5.6-4.5
							c2.4-1.5,4.9-2.4,6.7-2.8c0.5-0.1,0.9-0.2,1.2-0.2c0.4-0.1,0.7-0.1,0.9-0.1C203.1,268.4,203.4,268.5,203.4,268.5z"/>
					</g>
				</g>
				<g id="XMLID_371_">
					<g id="XMLID_372_">
						<path id="XMLID_373_" class="st21" d="M194.1,254.9c0,0.2-3.9-0.5-8.6,0.7c-4.7,1.1-7.8,3.7-7.9,3.5c0,0,0.7-0.7,2-1.6
							c1.3-0.9,3.4-1.8,5.7-2.4c2.4-0.6,4.6-0.7,6.2-0.6C193.1,254.5,194.1,254.8,194.1,254.9z"/>
					</g>
				</g>
			</g>
			<g id="XMLID_374_">
				<g id="XMLID_375_">
					<path id="XMLID_376_" class="st7" d="M248.8,321c0,0,0.1,0.2,0.2,0.7c0.1,0.5,0.3,1.1,0.5,1.9c0.4,1.7,1,4.1,1.8,7.1
						c1.5,6.1,3.5,14.7,5.9,24.4l0.1,0.4l-0.4-0.1c-3.3-0.9-6.9-1.9-10.5-2.9c-11.9-3.4-22.7-6.4-30.6-8.7l0.2-0.1
						c-2.2,3.8-3.9,6.8-5.2,9c-0.6,1-1.1,1.8-1.4,2.4c-0.2,0.3-0.3,0.5-0.4,0.6c-0.1,0.1-0.1,0.2-0.1,0.2c0,0,0-0.1,0.1-0.2
						c0.1-0.2,0.2-0.4,0.3-0.7c0.3-0.6,0.8-1.4,1.4-2.5c1.2-2.2,2.9-5.3,5.1-9.1l0.1-0.1l0.1,0c8,2.2,18.8,5.2,30.7,8.6
						c3.6,1,7.2,2,10.5,3l-0.3,0.3c-2.3-9.8-4.3-18.3-5.7-24.5c-0.7-3-1.2-5.4-1.6-7.2c-0.2-0.8-0.3-1.4-0.4-1.9
						C248.8,321.3,248.8,321,248.8,321z"/>
				</g>
			</g>
			<g id="XMLID_377_">
				<g id="XMLID_378_">
					<path id="XMLID_379_" class="st7" d="M271.3,318.9c0,0,0.1,0.2,0.2,0.6c0.1,0.4,0.3,1,0.5,1.7c0.4,1.6,1,3.7,1.7,6.3
						c1.4,5.4,3.2,12.7,5.3,20.8c1,4.1,2,7.9,2.8,11.5c0.8,3.5,1.2,6.9,0.8,9.7c-0.4,2.8-1.4,4.9-2.3,6.1c-0.9,1.3-1.6,1.7-1.6,1.7
						c0,0,0.6-0.6,1.5-1.9c0.8-1.3,1.8-3.3,2.1-6c0.3-2.7,0-6-0.9-9.5c-0.9-3.5-1.8-7.4-2.9-11.5c-2-8.1-3.8-15.5-5.1-20.9
						c-0.6-2.6-1.1-4.8-1.5-6.3c-0.2-0.7-0.3-1.3-0.4-1.7C271.4,319.1,271.3,318.9,271.3,318.9z"/>
				</g>
			</g>
			<g id="XMLID_380_" class="st14">
				<g id="XMLID_381_">
					<path id="XMLID_382_" d="M278.8,377.7c6,0.6,9.5-2.9,10.2-7.6c0.4-2.6-0.5-5.2-1.3-7.6c-3.7-10.8-7.4-21.7-13.3-31.5
						c2.2,9.8,5,19.3,7.2,29.1c0.7,3.2,1,5.1,0.9,8.4C282.5,371.7,281,375.3,278.8,377.7"/>
				</g>
			</g>
		</g>
		<g id="XMLID_301_">
			<g id="XMLID_383_">
				<path id="XMLID_384_" class="st7" d="M256.7,289.2c3.3,1,6.9,0.5,9.8-1.2c2.9-1.7,5-4.8,5.7-8.1c1.6,1.5,4,2,6.2,1.6
					c2.2-0.4,4.2-1.6,5.8-3.1c3-2.8,5-6.8,4.9-10.9c-0.2-4.1-2.7-8.1-6.6-9.5c-3.9-1.4-8.7,0.4-10.3,4.2c-0.7-2.1,1.1-5,0.7-7.3
					c-0.9-4.4-3.5-7-5.8-7.1"/>
			</g>
			<g id="XMLID_385_">
				<g id="XMLID_386_">
					<g id="XMLID_387_">
						<g id="XMLID_388_">
							<path class="st7" d="M261.5,288c4.4-7.7,5.7-17.9,6.8-26.8c0.5-4.2,1.4-10.1-1.4-12.7c-3-2.8-3.3-7.1-6.8-9.2
								c-3.5-2.2-8.2-2.3-11.5,0.1"/>
						</g>
						<g id="XMLID_389_">
							<g id="XMLID_390_">
								<g id="XMLID_391_">
									<g id="XMLID_392_">
										<g id="XMLID_393_">
											<g id="XMLID_394_">
												<g id="XMLID_395_">
													<g id="XMLID_396_">
														<path class="st16" d="M238.6,303.3v-12c0,0-12.5-2.2-13.3-12.3c-0.7-10.1-0.5-33.3-0.5-33.3l0,0
															c11-5.8,24.1-4.9,34.3,2.2l-0.5,35.4l0,11.5l-10.3,8.3l-9.8,7.7V303.3z"/>
													</g>
												</g>
											</g>
										</g>
									</g>
								</g>
								<g id="XMLID_397_">
									<path class="st7" d="M235,266.7c1.7-2.2,4.4-3,6.7-1.5c2.3,1.5,3.1,4.8,1.9,7.3c-0.9,1.7-2.8,3.3-4.8,3.7
										c0,0,4.5,8.2,7.4,10.4c3.4,2.6,5,3.9,9.3,4.4c4.2,0.5,3.7,0.5,6.1-3c1.8-2.6,2.3-5,2.3-8.2c0.1-7.4,0.3-14.8,0.4-22.2
										c0-2.7,0.1-5.4-0.5-8c-0.6-2.6-1.9-5.1-4.1-6.6c-2.4-1.6-5.4-1.7-8.1-2.6c-3.4-1.1-6.3-3.4-9.4-5.1c-3.2-1.7-7-2.6-10.2-1
										c-2.3,1.2-3.8,3.5-6,4.8c-3.1,1.9-7.4,1.5-9,6.2c-0.5,1.7-0.5,3.5,0.1,5.1c2.2,6.5,10,9.1,15.6,6.3c0.1,1.1-0.9,3.6,0.2,7
										C233.2,264.9,233.3,266.6,235,266.7"/>
								</g>
							</g>
							<g id="XMLID_398_">
								<g id="XMLID_399_">
									<path class="st17" d="M236.8,272.9c0,0,0,0.2,0.1,0.4c0.2,0.2,0.5,0.5,1.1,0.6c1.1,0.1,2.5-1.1,2.5-2.8
										c0-0.8-0.2-1.6-0.7-2.1c-0.5-0.5-1-0.8-1.5-0.9c-1-0.2-1.6,0.2-1.5,0.2c0,0.1,0.6,0,1.4,0.3c0.8,0.3,1.8,1.2,1.7,2.5
										c0,1.3-1,2.3-1.8,2.3C237.2,273.5,236.8,272.9,236.8,272.9z"/>
								</g>
							</g>
						</g>
					</g>
				</g>
				<g id="XMLID_400_">
					<g id="XMLID_401_">
						<path id="XMLID_402_" class="st15" d="M287.7,267.6c0,0-0.1,0.4-0.3,0.9c-0.2,0.6-0.7,1.4-1.3,2.3c-1.3,1.8-3.9,4-7.5,4.6
							c-3.5,0.5-6.7-0.8-8.5-2.2c-0.9-0.7-1.6-1.4-1.9-1.9c-0.4-0.5-0.6-0.8-0.5-0.8c0.1-0.1,0.9,1.1,2.7,2.4c1.8,1.3,4.8,2.5,8.2,2
							c3.4-0.5,5.9-2.6,7.3-4.3C287.2,269,287.6,267.6,287.7,267.6z"/>
					</g>
				</g>
				<g id="XMLID_403_">
					<g id="XMLID_404_">
						<path id="XMLID_405_" class="st15" d="M286.4,266c0,0-0.1,0.3-0.3,0.8c-0.3,0.5-0.7,1.1-1.4,1.9c-1.3,1.5-3.5,3.2-6.5,3.9
							c-3,0.7-5.8,0.1-7.5-0.7c-0.9-0.4-1.6-0.8-2-1.1c-0.4-0.3-0.7-0.5-0.6-0.6c0.1-0.1,1,0.7,2.8,1.3c1.8,0.7,4.4,1.2,7.3,0.5
							c2.8-0.6,5-2.3,6.3-3.6C285.7,267,286.3,266,286.4,266z"/>
					</g>
				</g>
				<g id="XMLID_406_">
					<g id="XMLID_407_">
						<path id="XMLID_408_" class="st15" d="M269.5,278.9c0,0-0.1,0.1-0.4,0.2c-0.3,0.1-0.7,0.3-1.3,0.3c-1.2,0.2-3-0.1-4.8-1.3
							c-1.8-1.2-3.3-3.3-4.5-5.9c-1.2-2.5-2.2-5.4-4.1-8c-0.9-1.3-2.1-2.3-3.4-2.9c-1.3-0.6-2.7-0.9-4.1-1.1
							c-2.7-0.3-5.3-0.1-7.4-0.4c-2.1-0.2-3.8-0.9-4.8-1.5c-0.5-0.3-0.9-0.6-1.1-0.8c-0.2-0.2-0.3-0.3-0.3-0.4c0,0,0.5,0.4,1.5,1
							c1,0.6,2.6,1.1,4.7,1.3c2.1,0.2,4.6,0,7.4,0.3c1.4,0.1,2.9,0.4,4.3,1.1c1.4,0.7,2.6,1.8,3.6,3.1c2,2.6,2.9,5.6,4.1,8.1
							c1.1,2.5,2.6,4.6,4.3,5.8c1.7,1.2,3.4,1.5,4.6,1.4C268.9,279.2,269.5,278.9,269.5,278.9z"/>
					</g>
				</g>
				<g id="XMLID_409_">
					<g id="XMLID_410_">
						<path id="XMLID_411_" class="st15" d="M268.5,275.3c0,0-0.2,0-0.4,0c-0.3,0-0.7,0-1.3-0.2c-1.1-0.3-2.6-1.1-3.9-2.6
							c-0.7-0.8-1.3-1.7-1.9-2.7c-0.6-1-1.1-2.2-1.7-3.3c-0.6-1.2-1.2-2.4-2-3.5c-0.4-0.6-0.9-1.1-1.4-1.6c-0.3-0.3-0.6-0.4-0.9-0.6
							c-0.3-0.2-0.6-0.4-0.9-0.6c-1.3-0.7-2.7-1-4.1-1.2c-1.4-0.2-2.8-0.2-4.1-0.2c-2.6,0-5,0.1-7-0.2c-2-0.2-3.6-0.8-4.5-1.4
							c-0.5-0.3-0.8-0.6-1.1-0.7c-0.2-0.2-0.4-0.3-0.3-0.3c0,0,0.5,0.3,1.5,0.8c1,0.5,2.5,1,4.5,1.2c2,0.2,4.3,0.1,7,0.1
							c1.3,0,2.7,0,4.1,0.2c1.4,0.2,2.9,0.5,4.3,1.3c0.4,0.1,0.7,0.4,1,0.6c0.3,0.2,0.6,0.4,0.9,0.7c0.6,0.5,1.1,1.1,1.5,1.7
							c0.9,1.2,1.5,2.4,2.1,3.6c0.6,1.2,1.1,2.3,1.6,3.3c0.5,1,1.1,1.9,1.8,2.7c1.2,1.5,2.6,2.4,3.7,2.7
							C267.9,275.3,268.6,275.3,268.5,275.3z"/>
					</g>
				</g>
				<g id="XMLID_412_">
					<g id="XMLID_413_">
						<path id="XMLID_414_" class="st12" d="M271,280.4c0,0-0.2-0.1-0.6-0.5c-0.3-0.3-0.8-0.8-1.2-1.5c-0.9-1.4-1.8-3.6-1.9-6.2
							c-0.1-2.6,0.7-4.8,1.4-6.3c0.4-0.7,0.8-1.3,1.1-1.6c0.3-0.4,0.5-0.5,0.5-0.5c0.1,0.1-0.6,0.8-1.3,2.3
							c-0.7,1.5-1.4,3.7-1.3,6.1c0.1,2.5,0.9,4.6,1.7,6C270.3,279.7,271,280.4,271,280.4z"/>
					</g>
				</g>
			</g>
		</g>
	</g>
</g>
<g id="Plant">
	<g>
		<g id="XMLID_415_">
			<g id="XMLID_416_">
				<g id="XMLID_417_">
					<g id="XMLID_418_">
						<linearGradient id="SVGID_4_" gradientUnits="userSpaceOnUse" x1="410.1388" y1="399.5901" x2="449.6839" y2="399.5901">
							<stop  offset="0" style="stop-color:#E8505B"/>
							<stop  offset="1" style="stop-color:#A605F7"/>
						</linearGradient>
						<path class="st22" d="M410.1,418.9c6.9,2.4,15.9,0.3,21.8-4.1c5.9-4.3,10.1-10.5,13.9-16.7c1.6-2.7,3.2-5.5,3.7-8.5
							c0.5-3.1-0.2-6.5-2.6-8.5c-3.7-3.1-9.4-1.5-13.6,0.9C420.1,389.4,411.1,403.8,410.1,418.9"/>
					</g>
				</g>
			</g>
			<g id="XMLID_419_">
				<g id="XMLID_420_">
					<g id="XMLID_421_">
						<linearGradient id="SVGID_5_" gradientUnits="userSpaceOnUse" x1="417.5461" y1="434.0642" x2="461.5805" y2="434.0642">
							<stop  offset="0" style="stop-color:#E8505B"/>
							<stop  offset="1" style="stop-color:#A605F7"/>
						</linearGradient>
						<path class="st23" d="M417.5,435.4c4.1,5.5,11.3,7.9,18.1,8.2c6.9,0.3,13.6-1.6,20-4c2.3-0.9,4.9-2.1,5.7-4.5
							c0.6-1.8,0-3.8-1.2-5.3c-1.2-1.5-2.9-2.4-4.6-3.2c-6.3-2.7-13.5-2.8-20.2-1.1S422.9,431.2,417.5,435.4"/>
					</g>
				</g>
			</g>
			<g id="XMLID_422_">
				<g id="XMLID_423_">
					<g id="XMLID_424_">
						<linearGradient id="SVGID_6_" gradientUnits="userSpaceOnUse" x1="407.18" y1="368.7411" x2="426.6212" y2="368.7411">
							<stop  offset="0" style="stop-color:#E8505B"/>
							<stop  offset="1" style="stop-color:#A605F7"/>
						</linearGradient>
						<path class="st24" d="M410,389.3c5.7,0.1,10-4.9,12.6-10c3.6-7.1,4.8-15.3,3.4-23.1c-0.5-2.9-1.6-6.1-4.2-7.5
							c-2.7-1.4-6.1-0.5-8.3,1.5c-2.2,2-3.4,4.9-4.3,7.8C406.1,368.1,406.8,379.5,410,389.3"/>
					</g>
				</g>
			</g>
			<g id="XMLID_425_">
				<g id="XMLID_426_">
					<g id="XMLID_427_">
						<linearGradient id="SVGID_7_" gradientUnits="userSpaceOnUse" x1="382.0173" y1="390.0433" x2="400.2092" y2="390.0433">
							<stop  offset="0" style="stop-color:#E8505B"/>
							<stop  offset="1" style="stop-color:#A605F7"/>
						</linearGradient>
						<path class="st25" d="M391.3,420.9c9.7-16.6,11.4-36.8,5.6-55.2c-0.9-3-2.7-6.4-5.8-6.6c-3.4-0.2-5.6,3.6-6.6,6.9
							c-3.3,11.6-2.6,24-1.9,36.1C383.1,409.7,385.6,416,391.3,420.9"/>
					</g>
				</g>
			</g>
			<g id="XMLID_428_">
				<g id="XMLID_429_">
					<g id="XMLID_430_">
						<linearGradient id="SVGID_8_" gradientUnits="userSpaceOnUse" x1="348.5046" y1="415.527" x2="381.1532" y2="415.527">
							<stop  offset="0" style="stop-color:#E8505B"/>
							<stop  offset="1" style="stop-color:#A605F7"/>
						</linearGradient>
						<path class="st26" d="M381.2,427.7c-3.5-11.3-12.5-20.9-23.6-25.1c-2.6-1-5.9-1.5-7.8,0.4c-1.9,1.9-1.3,5.2-0.1,7.6
							c2,3.9,5.1,7.1,8.3,10.1c2.9,2.7,5.9,5.5,9.5,7.1C371.1,429.5,377.8,429.9,381.2,427.7"/>
					</g>
				</g>
			</g>
			<g id="XMLID_431_">
				<g id="XMLID_432_">
					<g id="XMLID_433_">
						<g id="XMLID_434_">
							<path class="st7" d="M441.5,385.2c0,0-0.1,0.1-0.2,0.2c-0.1,0.1-0.3,0.2-0.5,0.4c-0.5,0.4-1.2,0.9-2,1.5
								c-0.4,0.3-0.9,0.7-1.5,1.1c-0.5,0.4-1.1,0.9-1.7,1.4c-1.2,1-2.6,2.1-4.1,3.5c-0.7,0.7-1.5,1.4-2.3,2.1
								c-0.8,0.7-1.6,1.6-2.4,2.4c-1.7,1.6-3.3,3.5-5,5.4c-3.4,4-6.8,8.6-10,13.7c-3.1,5.1-5.7,10.3-7.8,15.1
								c-1,2.4-1.9,4.7-2.6,6.9c-0.4,1.1-0.8,2.2-1.1,3.2c-0.3,1-0.6,2-0.8,3c-0.6,1.9-0.9,3.7-1.3,5.2c-0.2,0.8-0.3,1.5-0.5,2.1
								c-0.1,0.7-0.2,1.3-0.3,1.8c-0.2,1.1-0.3,1.9-0.5,2.5c-0.1,0.3-0.1,0.5-0.1,0.7c0,0.1-0.1,0.2-0.1,0.2c0,0,0-0.1,0-0.2
								c0-0.2,0.1-0.4,0.1-0.7c0.1-0.6,0.2-1.5,0.4-2.5c0.1-0.6,0.2-1.2,0.3-1.8c0.1-0.7,0.3-1.4,0.4-2.1c0.3-1.5,0.7-3.3,1.2-5.2
								c0.3-1,0.5-2,0.8-3c0.3-1,0.7-2.1,1-3.2c0.7-2.2,1.6-4.5,2.6-7c2-4.8,4.6-10,7.8-15.2c3.2-5.1,6.7-9.7,10.1-13.7
								c1.8-1.9,3.4-3.8,5.1-5.4c0.8-0.8,1.6-1.6,2.4-2.4c0.8-0.7,1.6-1.4,2.3-2.1c1.5-1.4,2.9-2.4,4.1-3.4c0.6-0.5,1.2-1,1.7-1.4
								c0.5-0.4,1.1-0.7,1.5-1.1c0.9-0.6,1.6-1.1,2.1-1.5c0.2-0.1,0.4-0.3,0.6-0.4C441.5,385.2,441.5,385.2,441.5,385.2z"/>
						</g>
					</g>
				</g>
			</g>
			<g id="XMLID_435_">
				<g id="XMLID_436_">
					<g id="XMLID_437_">
						<g id="XMLID_438_">
							<path class="st7" d="M454.4,431.1c0,0-0.2,0-0.7-0.1c-0.4-0.1-1.1-0.2-1.9-0.4c-1.6-0.3-4.1-0.7-7-0.9
								c-6-0.4-14.4,0.3-22.9,3.9c-8.5,3.5-14.9,9-18.9,13.5c-2,2.2-3.4,4.2-4.4,5.6c-0.5,0.7-0.8,1.3-1.1,1.6
								c-0.2,0.4-0.4,0.6-0.4,0.6c0,0,0.1-0.2,0.3-0.6c0.2-0.4,0.5-1,1-1.7c0.9-1.4,2.3-3.4,4.3-5.7c3.9-4.6,10.4-10.2,18.9-13.7
								c8.6-3.6,17.1-4.2,23.1-3.8c3,0.2,5.4,0.6,7.1,1c0.8,0.2,1.5,0.4,1.9,0.5C454.2,431,454.4,431.1,454.4,431.1z"/>
						</g>
					</g>
				</g>
			</g>
			<g id="XMLID_439_">
				<g id="XMLID_440_">
					<g id="XMLID_441_">
						<g id="XMLID_442_">
							<path class="st7" d="M418.5,355.4c0,0,0,0.1,0,0.3c0,0.2-0.1,0.4-0.2,0.7c-0.2,0.7-0.4,1.6-0.6,2.9c-0.6,2.5-1.4,6-2.5,10.5
								c-2.1,8.8-5.3,21-8.5,34.4c-1.6,6.7-3.1,13.2-4.3,19c-1.2,5.9-2.3,11.2-3.1,15.6c-0.4,2.2-0.7,4.3-1,6
								c-0.3,1.8-0.5,3.3-0.7,4.6c-0.2,1.2-0.3,2.2-0.4,2.9c-0.1,0.3-0.1,0.6-0.1,0.7c0,0.2-0.1,0.3-0.1,0.3c0,0,0-0.1,0-0.3
								c0-0.2,0-0.4,0.1-0.8c0.1-0.7,0.2-1.7,0.4-2.9c0.2-1.3,0.4-2.8,0.6-4.6c0.3-1.8,0.6-3.8,1-6.1c0.7-4.5,1.8-9.8,3-15.7
								c1.2-5.9,2.7-12.3,4.3-19.1c3.2-13.5,6.4-25.6,8.6-34.4c1.1-4.4,2-7.9,2.6-10.4c0.3-1.2,0.6-2.2,0.7-2.8
								c0.1-0.3,0.1-0.5,0.2-0.7C418.4,355.5,418.4,355.4,418.5,355.4z"/>
						</g>
					</g>
				</g>
			</g>
			<g id="XMLID_443_">
				<g id="XMLID_444_">
					<g id="XMLID_445_">
						<g id="XMLID_446_">
							<path class="st7" d="M396.1,452c0,0,0-0.1-0.1-0.2c0-0.2-0.1-0.4-0.1-0.6c-0.1-0.6-0.3-1.3-0.5-2.3c-0.4-2-1-4.9-1.6-8.5
								c-1.2-7.2-2.7-17.2-3.6-28.4c-0.4-5.6-0.7-10.9-0.8-15.7c-0.1-4.8,0-9.2,0.1-12.9c0-1.8,0.2-3.5,0.2-4.9
								c0.1-1.5,0.2-2.7,0.3-3.7c0.1-1,0.2-1.8,0.2-2.3c0-0.2,0-0.4,0.1-0.6c0-0.1,0-0.2,0-0.2c0,0,0,0.1,0,0.2c0,0.2,0,0.4,0,0.6
								c0,0.6-0.1,1.4-0.1,2.4c-0.1,1-0.1,2.3-0.2,3.7c-0.1,1.5-0.2,3.1-0.2,4.9c-0.1,3.7-0.1,8,0,12.8c0.1,4.8,0.4,10.1,0.8,15.7
								c0.9,11.1,2.3,21.1,3.5,28.3c0.6,3.6,1.1,6.5,1.4,8.5c0.2,1,0.3,1.8,0.4,2.3c0,0.2,0.1,0.4,0.1,0.6
								C396.1,451.9,396.1,452,396.1,452z"/>
						</g>
					</g>
				</g>
			</g>
			<g id="XMLID_447_">
				<g id="XMLID_448_">
					<g id="XMLID_449_">
						<g id="XMLID_450_">
							<path class="st7" d="M396.8,454.1c0,0-0.1-0.2-0.3-0.6c-0.2-0.4-0.4-1-0.6-1.7c-0.1-0.4-0.3-0.8-0.5-1.2
								c-0.2-0.4-0.4-0.9-0.6-1.4c-0.2-0.5-0.5-1-0.7-1.6c-0.3-0.6-0.6-1.1-0.9-1.8c-0.3-0.6-0.6-1.3-1-1.9c-0.4-0.7-0.8-1.3-1.2-2
								c-0.8-1.4-1.8-2.8-2.8-4.4c-2.1-3-4.5-6.2-7.3-9.4c-2.8-3.1-5.7-6-8.4-8.4c-1.4-1.2-2.7-2.4-4-3.4c-0.6-0.5-1.3-1-1.8-1.5
								c-0.6-0.4-1.2-0.9-1.7-1.3c-1.1-0.8-2.1-1.5-3.1-2.2c-0.9-0.6-1.7-1.1-2.4-1.5c-0.6-0.4-1.1-0.7-1.5-1
								c-0.3-0.2-0.5-0.3-0.5-0.4c0,0,0.2,0.1,0.6,0.3c0.4,0.2,0.9,0.5,1.6,0.9c0.7,0.4,1.5,0.9,2.4,1.5c0.9,0.6,2,1.3,3.1,2.1
								c0.6,0.4,1.2,0.8,1.8,1.3c0.6,0.5,1.2,1,1.9,1.5c1.3,1,2.6,2.2,4,3.3c2.7,2.5,5.6,5.3,8.5,8.4c2.8,3.2,5.3,6.4,7.3,9.4
								c1,1.6,2,3,2.7,4.4c0.4,0.7,0.8,1.4,1.2,2.1c0.3,0.7,0.7,1.3,1,2c0.3,0.6,0.6,1.2,0.9,1.8c0.2,0.6,0.5,1.1,0.7,1.6
								c0.2,0.5,0.4,1,0.6,1.4c0.2,0.4,0.3,0.9,0.4,1.2c0.2,0.7,0.4,1.3,0.6,1.7C396.8,453.9,396.8,454.1,396.8,454.1z"/>
						</g>
					</g>
				</g>
			</g>
			<g id="XMLID_451_">
				<g id="XMLID_452_">
					<g id="XMLID_453_">
						<g id="XMLID_454_">
							<path class="st7" d="M437.9,404.4c0,0.1-1.2,0.1-3.1,0.2c-1.9,0.1-4.5,0.4-7.3,0.9c-2.8,0.5-5.4,1.3-7.2,1.9
								c-1.8,0.6-2.9,1-2.9,1c0,0,0.2-0.2,0.7-0.4c0.5-0.2,1.2-0.5,2.1-0.9c1.8-0.7,4.3-1.5,7.2-2c2.9-0.5,5.5-0.7,7.4-0.8
								c1,0,1.7,0,2.3,0C437.6,404.3,437.9,404.4,437.9,404.4z"/>
						</g>
					</g>
				</g>
			</g>
			<g id="XMLID_455_">
				<g id="XMLID_456_">
					<g id="XMLID_457_">
						<g id="XMLID_458_">
							<path class="st7" d="M445.3,440.3c-0.1,0.1-1.2-3.1-4-6c-2.7-3-5.8-4.3-5.7-4.4c0,0,0.8,0.2,2,0.9c1.2,0.7,2.7,1.8,4.1,3.3
								c1.4,1.5,2.4,3.1,2.9,4.3C445.1,439.4,445.3,440.3,445.3,440.3z"/>
						</g>
					</g>
				</g>
			</g>
			<g id="XMLID_459_">
				<g id="XMLID_460_">
					<g id="XMLID_461_">
						<g id="XMLID_462_">
							<path class="st7" d="M420.2,368.9c0.1,0.1-1.7,1.9-3.7,4.3c-2,2.4-3.3,4.5-3.5,4.4c-0.1-0.1,1.1-2.3,3.1-4.7
								C418.2,370.4,420.1,368.8,420.2,368.9z"/>
						</g>
					</g>
				</g>
			</g>
			<g id="XMLID_463_">
				<g id="XMLID_464_">
					<g id="XMLID_465_">
						<g id="XMLID_466_">
							
								<ellipse transform="matrix(-0.1678 -0.9858 0.9858 -0.1678 127.1629 832.5715)" class="st7" cx="415" cy="362.6" rx="3.9" ry="0.2"/>
						</g>
					</g>
				</g>
			</g>
			<g id="XMLID_467_">
				<g id="XMLID_468_">
					<g id="XMLID_469_">
						<g id="XMLID_470_">
							
								<ellipse transform="matrix(0.4602 -0.8878 0.8878 0.4602 -139.8501 563.0037)" class="st7" cx="393.1" cy="396.5" rx="6.6" ry="0.2"/>
						</g>
					</g>
				</g>
			</g>
			<g id="XMLID_471_">
				<g id="XMLID_472_">
					<g id="XMLID_473_">
						<g id="XMLID_474_">
							
								<ellipse transform="matrix(-0.4456 -0.8952 0.8952 -0.4456 216.1449 902.322)" class="st7" cx="387.5" cy="384.2" rx="5" ry="0.2"/>
						</g>
					</g>
				</g>
			</g>
			<g id="XMLID_475_">
				<g id="XMLID_476_">
					<g id="XMLID_477_">
						<g id="XMLID_478_">
							<path class="st7" d="M369.3,416.8c0,0.1-2-0.2-4.4-0.4c-2.4-0.2-4.4-0.1-4.4-0.2c0-0.1,2-0.4,4.4-0.2
								C367.4,416.1,369.4,416.7,369.3,416.8z"/>
						</g>
					</g>
				</g>
			</g>
		</g>
		<g id="XMLID_479_">
			<g id="XMLID_480_">
				<g id="XMLID_481_">
					<g id="XMLID_482_">
						<path class="st7" d="M380.2,449.5l5.4,28.5c0.4,1.9,2,3.2,3.9,3.2h16c2,0,3.6-1.4,3.9-3.3l4.7-28.4H380.2z"/>
					</g>
				</g>
			</g>
			<g id="XMLID_483_">
				<g id="XMLID_484_">
					<g id="XMLID_485_">
						<polygon class="st15" points="382,458.8 412.6,458.8 414.2,449.5 380.2,449.5 						"/>
					</g>
				</g>
			</g>
			<g id="XMLID_486_">
				<g id="XMLID_487_">
					<g id="XMLID_488_">
						<polygon class="st21" points="382,458.8 382.6,462.2 412.1,462.2 412.6,458.8 						"/>
					</g>
				</g>
			</g>
		</g>
	</g>
</g>
</svg>
