<svg width="2596" height="2625" viewBox="0 0 2596 2625" fill="none" xmlns="http://www.w3.org/2000/svg">
<path d="M707.059 969.24L84.2018 1330.84V1485.99L707.059 1124.27V969.24Z" fill="url(#paint0_linear_27_164)"/>
<path d="M66.8893 1320.6L84.2018 1330.84L707.059 969.239L689.878 959.009L66.8893 1320.6Z" fill="#E032D9"/>
<path d="M84.2018 1485.99L66.8893 1474.58V1320.6L84.2018 1330.83V1485.99Z" fill="#600B5D"/>
<path d="M613.152 1062.36L601.086 1093.71L574.33 1113.12L593.741 1120.72L589.15 1150.1L613.152 1123.48L637.022 1122.17L632.432 1098.17L651.843 1068L625.087 1079.67L613.152 1062.36Z" fill="url(#paint1_linear_27_164)"/>
<path d="M503.9 1126.1L491.964 1157.32L465.078 1176.86L484.489 1184.47L479.898 1213.71L503.9 1187.22L527.901 1185.78L523.311 1161.78L542.59 1131.61L515.835 1143.41L503.9 1126.1Z" fill="url(#paint2_linear_27_164)"/>
<path d="M394.647 1189.71L382.712 1221.06L355.956 1240.47L375.236 1248.08L370.777 1277.45L394.647 1250.83L418.648 1249.52L414.058 1225.52L433.469 1195.35L406.582 1207.02L394.647 1189.71Z" fill="url(#paint3_linear_27_164)"/>
<path d="M285.394 1253.45L273.459 1284.67L246.704 1304.21L266.115 1311.82L261.524 1341.2L285.394 1314.57L309.396 1313.26L304.805 1289.26L324.216 1258.96L297.461 1270.77L285.394 1253.45Z" fill="url(#paint4_linear_27_164)"/>
<path d="M176.273 1317.2L164.207 1348.41L137.451 1367.95L156.862 1375.43L152.272 1404.81L176.273 1378.31L200.143 1376.87L195.553 1352.87L214.964 1322.7L188.208 1334.38L176.273 1317.2Z" fill="url(#paint5_linear_27_164)"/>
<path d="M503.244 466.127L293.919 596.233L280.148 685.55C174.83 745.881 71.7419 804.377 71.7419 804.377V1087.41C71.7419 1087.41 511.637 837.821 503.112 837.821L502.981 837.69L503.244 837.821V466.127Z" fill="url(#paint6_linear_27_164)"/>
<path d="M532.491 485.669L323.167 615.775L309.396 705.092C203.947 765.292 100.99 823.788 100.99 823.788V1106.82C100.99 1106.82 540.885 857.232 532.36 857.232L532.229 857.101L532.491 857.232V485.669Z" fill="url(#paint7_linear_27_164)"/>
<path d="M503.244 466.127L532.491 485.669L323.167 615.775L293.919 596.233L503.244 466.127Z" fill="url(#paint8_linear_27_164)"/>
<path d="M71.6108 804.377L100.99 823.788L309.265 704.961L280.017 685.55L71.6108 804.377Z" fill="url(#paint9_linear_27_164)"/>
<path d="M71.6108 1087.41L100.859 1106.82L100.99 823.787L71.6108 804.376V1087.41Z" fill="url(#paint10_linear_27_164)"/>
<path d="M71.6108 1059.21L167.617 1120.2V1148.4L71.6108 1087.41V1059.21Z" fill="url(#paint11_linear_27_164)"/>
<path d="M515.703 230.834L521.868 233.982L515.703 731.454C466.913 797.557 298.116 965.96 298.116 965.96L123.942 1070.23V466.258L515.703 230.834Z" fill="url(#paint12_linear_27_164)"/>
<path d="M100.859 1077.71L138.369 1059.21V1101.58L100.859 1077.71Z" fill="url(#paint13_linear_27_164)"/>
<path d="M521.868 233.851V734.471C473.078 800.705 304.281 968.977 304.281 968.977L130.106 1073.38V469.406L521.868 233.851Z" fill="url(#paint14_linear_27_164)"/>
<g opacity="0.49">
<path opacity="0.49" d="M347.824 462.323L198.832 550.853C194.372 553.476 190.831 552.034 190.831 547.574C190.831 543.115 194.372 537.475 198.832 534.852L347.824 446.322C352.284 443.699 355.825 445.142 355.825 449.601C355.825 453.929 352.152 459.7 347.824 462.323Z" fill="url(#paint15_linear_27_164)"/>
<path opacity="0.49" d="M440.158 476.619L198.832 620.366C194.372 622.989 190.831 621.546 190.831 617.087C190.831 612.627 194.372 606.988 198.832 604.365L440.158 460.618C444.617 457.995 448.158 459.438 448.158 463.897C448.158 468.225 444.617 473.996 440.158 476.619Z" fill="url(#paint16_linear_27_164)"/>
<path opacity="0.49" d="M440.158 515.835L198.832 659.581C194.372 662.204 190.831 660.761 190.831 656.302C190.831 651.843 194.372 646.203 198.832 643.58L440.158 499.834C444.617 497.211 448.158 498.653 448.158 503.113C448.158 507.441 444.617 513.212 440.158 515.835Z" fill="url(#paint17_linear_27_164)"/>
<path opacity="0.49" d="M440.158 555.05L198.832 698.797C194.372 701.42 190.831 699.977 190.831 695.518C190.831 691.059 194.372 685.419 198.832 682.796L440.158 539.049C444.617 536.426 448.158 537.869 448.158 542.328C448.158 546.656 444.617 552.427 440.158 555.05Z" fill="url(#paint18_linear_27_164)"/>
<path opacity="0.49" d="M440.158 594.266L198.832 738.012C194.372 740.635 190.831 739.193 190.831 734.733C190.831 730.274 194.372 724.634 198.832 722.011L440.158 578.265C444.617 575.642 448.158 577.084 448.158 581.544C448.158 586.003 444.617 591.643 440.158 594.266Z" fill="url(#paint19_linear_27_164)"/>
<path opacity="0.49" d="M440.158 633.481L198.832 777.228C194.372 779.851 190.831 778.408 190.831 773.949C190.831 769.489 194.372 763.85 198.832 761.227L440.158 617.48C444.617 614.857 448.158 616.3 448.158 620.759C448.158 625.218 444.617 630.858 440.158 633.481Z" fill="url(#paint20_linear_27_164)"/>
</g>
<path d="M569.871 507.703L360.546 637.81L346.775 727.126C241.326 787.327 138.369 845.822 138.369 845.822V1128.86C138.369 1128.86 578.265 879.267 569.739 879.267L569.608 879.136L569.871 879.267V507.703Z" fill="url(#paint21_linear_27_164)"/>
<path d="M599.118 527.115L389.794 657.221L376.023 746.538C270.705 806.869 167.617 865.365 167.617 865.365V1148.4C167.617 1148.4 607.512 898.809 598.987 898.809L598.856 898.678L599.118 898.809V527.115Z" fill="url(#paint22_linear_27_164)"/>
<path d="M569.871 507.703L599.118 527.114L389.794 657.221L360.546 637.678L569.871 507.703Z" fill="url(#paint23_linear_27_164)"/>
<path d="M138.369 845.822L167.617 865.364L376.023 746.537L346.775 726.995L138.369 845.822Z" fill="url(#paint24_linear_27_164)"/>
<path d="M138.369 1128.86L167.617 1148.4V865.364L138.369 845.822V1128.86Z" fill="url(#paint25_linear_27_164)"/>
<path opacity="0.17" d="M984.684 1593.69C1129.12 1593.69 1246.21 1535.73 1246.21 1464.23C1246.21 1392.74 1129.12 1334.78 984.684 1334.78C840.248 1334.78 723.16 1392.74 723.16 1464.23C723.16 1535.73 840.248 1593.69 984.684 1593.69Z" fill="#2D2F4F"/>
<path opacity="0.17" d="M1405.3 2610.01L792.672 2250.51C760.146 2231.49 760.539 2184.41 793.197 2165.79L1322.93 1864.52C1347.98 1850.23 1378.81 1850.49 1403.73 1865.05L2049.01 2243.69C2072.88 2257.73 2072.62 2292.22 2048.62 2305.86L1512.58 2610.66C1479.4 2629.68 1438.35 2629.42 1405.3 2610.01Z" fill="#2D2F4F"/>
<path d="M1458.55 2135.75V2536.82C1440.06 2536.56 1421.69 2531.58 1405.3 2522L792.672 2162.51C777.327 2153.59 769.72 2138.37 768.802 2122.9H768.671V2106.11L1458.55 2135.75Z" fill="#BEC2CC"/>
<path d="M2066.85 2161.98V2182.57H2066.32C2067.9 2196.08 2062.26 2210.25 2048.75 2217.99L1512.72 2522.79C1495.8 2532.36 1477.04 2537.09 1458.42 2536.82V2135.75L2066.85 2161.98Z" fill="#9CA1B7"/>
<path d="M1405.3 2496.69L792.672 2137.19C760.146 2118.18 760.539 2071.09 793.197 2052.47L1322.93 1751.2C1347.98 1736.91 1378.81 1737.17 1403.73 1751.73L2049.01 2130.37C2072.88 2144.41 2072.62 2178.9 2048.62 2192.54L1512.58 2497.35C1479.4 2516.49 1438.35 2516.1 1405.3 2496.69Z" fill="url(#paint26_linear_27_164)"/>
<path d="M973.929 1366.65C973.929 1366.65 965.01 1402.2 971.175 1407.31C977.339 1412.43 1026.52 1438 1048.95 1453.22C1071.25 1468.43 1075.57 1480.63 1102.99 1471.58C1130.4 1462.4 1135.25 1440.5 1110.86 1420.69C1086.46 1400.89 1048.69 1374.52 1045.67 1369.41C1042.65 1364.29 1042.52 1364.29 1042.52 1364.29L973.929 1366.65Z" fill="#24273F"/>
<path d="M929.205 941.055C929.205 941.055 1072.69 1077.06 1074.39 1100.28C1076.1 1123.49 1053.15 1210.32 1048.95 1274.85C1044.75 1339.37 1048.95 1359.57 1048.95 1359.57C1048.95 1359.57 1049.74 1379.77 1017.47 1381.74C985.208 1383.71 966.06 1358.52 966.06 1358.52C966.06 1358.52 965.01 1255.3 971.043 1197.86C977.077 1140.54 978.126 1124.28 978.126 1124.28L781.261 965.319L929.205 941.055Z" fill="#24273F"/>
<path d="M714.503 961.254C714.503 961.254 691.42 990.37 723.684 1040.21C755.949 1090.18 850.905 1193.01 850.905 1193.01C850.905 1193.01 835.035 1226.32 833.855 1289.93C832.674 1353.54 841.724 1415.05 841.724 1415.05C841.724 1415.05 850.774 1431.18 880.022 1434.2C909.269 1437.22 933.533 1423.05 933.533 1423.05C933.533 1423.05 916.352 1320.09 928.549 1251.5C940.615 1182.91 942.714 1170.32 933.533 1142.77C924.483 1115.23 851.823 961.122 851.823 961.122H714.503V961.254Z" fill="#2D2F4F"/>
<path d="M950.19 582.345L1062.59 731.338V804.654L916.089 693.565L950.19 582.345Z" fill="url(#paint27_linear_27_164)"/>
<path d="M1213.16 126.449C1213.16 130.908 1209.48 132.482 1205.02 129.99C1200.57 127.367 1196.89 121.596 1196.89 117.137C1196.89 112.677 1200.57 111.104 1205.02 113.596C1209.48 116.087 1213.16 121.858 1213.16 126.449Z" fill="#FFFEFF"/>
<path d="M1245.81 145.073C1245.81 149.532 1242.14 151.106 1237.68 148.614C1233.22 145.991 1229.55 140.22 1229.55 135.761C1229.55 131.301 1233.22 129.728 1237.68 132.22C1242.14 134.843 1245.81 140.614 1245.81 145.073Z" fill="#FFFEFF"/>
<path d="M1278.6 163.697C1278.6 168.156 1274.93 169.73 1270.47 167.238C1266.01 164.615 1262.34 158.844 1262.34 154.385C1262.34 149.925 1266.01 148.352 1270.47 150.844C1274.93 153.467 1278.6 159.238 1278.6 163.697Z" fill="#FFFEFF"/>
<path d="M928.418 570.279C898.908 563.721 768.015 619.331 745.194 661.957C722.242 704.451 705.978 953.253 705.978 953.253C705.978 953.253 748.473 1002.31 827.035 992.469C905.597 982.632 928.418 946.695 928.418 946.695C928.418 946.695 967.634 648.972 961.207 609.626C954.649 570.279 928.418 570.279 928.418 570.279Z" fill="url(#paint28_linear_27_164)"/>
<path d="M758.834 659.333C737.062 644.644 705.322 672.842 710.044 725.042C714.634 777.111 767.359 898.036 785.983 904.201C804.476 910.234 940.878 965.319 940.878 965.319C940.878 965.319 923.041 946.564 930.779 928.464C938.517 910.365 950.19 903.414 950.19 903.414C950.19 903.414 830.838 849.509 826.248 831.54C821.526 813.441 787.426 678.613 758.834 659.333Z" fill="url(#paint29_linear_27_164)"/>
<path d="M927.762 1426.07C927.762 1426.07 938.779 1456.37 963.174 1474.07C987.569 1491.78 1018.13 1506.34 999.111 1519.19C980.224 1532.04 968.289 1543.58 939.173 1531.39C910.056 1519.19 892.35 1502.66 869.791 1488.63C847.233 1474.6 843.56 1470.92 841.724 1452.04C839.888 1433.15 841.724 1415.05 841.724 1415.05C841.724 1415.05 878.317 1441.54 927.762 1426.07Z" fill="#24273F"/>
<path d="M894.186 486.995C894.186 486.995 904.81 524.899 904.941 538.67C905.204 552.311 898.121 593.1 890.776 599.133C883.432 605.297 872.021 604.773 872.021 604.773L875.694 619.724C875.694 619.724 879.366 636.512 849.856 644.119C820.346 651.726 798.312 620.511 798.312 620.511C798.312 620.511 804.083 604.773 798.312 581.427C792.541 558.081 785.59 498.668 809.067 484.765C832.543 470.732 894.186 486.995 894.186 486.995Z" fill="#CC8585"/>
<path d="M872.808 604.117C872.808 604.117 854.053 607.002 843.954 598.608C833.986 590.214 830.969 587.985 830.969 587.985C830.969 587.985 836.478 599.395 847.626 610.675C858.774 621.954 855.627 642.283 855.627 642.283C855.627 642.283 877.792 637.299 875.693 623.265C873.857 609.363 872.808 604.117 872.808 604.117Z" fill="#9E5C5C"/>
<path d="M767.753 559.917C767.753 559.917 790.705 591.001 801.328 589.296C811.952 587.591 801.066 552.835 801.328 542.211C801.591 531.588 810.247 533.293 815.1 536.441C819.952 539.588 817.985 561.885 824.018 561.622C830.051 561.36 833.199 549.032 831.101 540.769C829.002 532.506 831.494 533.424 837.265 524.768C843.036 516.112 837.265 499.192 837.265 499.192C837.265 499.192 859.824 515.193 884.612 512.046C909.532 508.898 915.171 494.209 915.171 494.209C915.171 494.209 916.876 472.437 907.171 455.255C897.465 438.074 866.25 426.008 830.051 426.401C793.852 426.795 776.015 445.156 760.67 455.78C745.325 466.404 754.768 488.438 754.768 488.438C754.768 488.438 738.898 498.537 746.112 525.948C753.457 553.753 767.753 559.917 767.753 559.917Z" fill="#2D2F4F"/>
<path d="M1200.7 4.47407L2168.36 569.23C2192.89 583.525 2207.97 609.757 2207.97 638.086V1615.59C2207.97 1638.54 2183.05 1652.97 2163.12 1641.29L1181.68 1068.41C1163.58 1057.78 1152.43 1038.37 1152.43 1017.39V32.279C1152.3 7.35949 1179.19 -8.11686 1200.7 4.47407Z" fill="url(#paint30_linear_27_164)"/>
<path d="M1161.48 20.2128L2129.15 584.968C2153.67 599.264 2168.76 625.495 2168.76 653.825V1631.33C2168.76 1654.28 2143.84 1668.71 2123.9 1657.03L1142.33 1084.28C1124.23 1073.65 1113.08 1054.24 1113.08 1033.26V48.0178C1112.95 23.0983 1139.97 7.62191 1161.48 20.2128Z" fill="#2D2F4F"/>
<path d="M1162.14 1050.31C1156.1 1046.77 1152.3 1040.21 1152.3 1033.13V160.156C1152.3 136.81 1177.74 122.121 1197.94 133.925L2109.34 665.891C2121.8 673.105 2129.41 686.483 2129.41 700.91V1614.93L1162.14 1050.31Z" fill="#FFFDFF"/>
<path d="M1066.39 125.4L1800.21 553.622C1818.83 564.508 1830.24 584.313 1830.24 605.822V1347.11C1830.24 1364.56 1811.36 1375.44 1796.27 1366.66L1051.84 932.399C1038.06 924.399 1029.67 909.578 1029.67 893.708V146.516C1029.67 127.629 1050.13 115.956 1066.39 125.4Z" fill="url(#paint31_linear_27_164)"/>
<path d="M1039.11 139.04L1772.93 567.262C1791.55 578.148 1802.96 597.953 1802.96 619.462V1360.75C1802.96 1378.2 1784.08 1389.08 1768.99 1380.3L1024.55 946.039C1010.78 938.039 1002.39 923.218 1002.39 907.348V160.156C1002.39 141.269 1022.85 129.597 1039.11 139.04Z" fill="#2D2F4F"/>
<path d="M1780.14 619.594V1360.75L1036.1 926.366C1029.28 922.432 1025.21 915.087 1025.21 907.349V160.156C1025.21 158.451 1026.92 158.32 1026.92 158.32C1027.05 158.32 1027.31 158.32 1027.83 158.582L1761.65 586.805C1773.06 593.756 1780.14 606.216 1780.14 619.594Z" fill="url(#paint32_linear_27_164)"/>
<path d="M1780.14 619.594V698.025L1025.08 254.326V160.156C1025.08 158.451 1026.78 158.32 1026.78 158.32C1026.92 158.32 1027.18 158.32 1027.7 158.582L1761.52 586.805C1773.06 593.756 1780.14 606.216 1780.14 619.594Z" fill="url(#paint33_linear_27_164)"/>
<g opacity="0.56">
<g opacity="0.56">
<path opacity="0.56" d="M1349.95 671.663L1063.51 503.915C1059.57 501.685 1056.43 496.57 1056.43 492.635C1056.43 488.701 1059.57 487.389 1063.51 489.75L1350.08 657.498C1354.02 659.727 1357.17 664.843 1357.17 668.777C1357.03 672.581 1353.89 674.023 1349.95 671.663Z" fill="#868E8E"/>
<path opacity="0.56" d="M1349.95 621.168L1063.51 453.42C1059.57 451.19 1056.43 446.075 1056.43 442.141C1056.43 438.206 1059.57 436.894 1063.51 439.255L1350.08 607.003C1354.02 609.233 1357.17 614.348 1357.17 618.282C1357.03 622.086 1353.89 623.397 1349.95 621.168Z" fill="#868E8E"/>
<path opacity="0.56" d="M1349.95 712.714L1063.51 544.966C1059.57 542.737 1056.43 537.622 1056.43 533.687C1056.43 529.752 1059.57 528.441 1063.51 530.802L1350.08 698.55C1354.02 700.779 1357.17 705.894 1357.17 709.829C1357.03 713.632 1353.89 714.944 1349.95 712.714Z" fill="#868E8E"/>
</g>
</g>
<g opacity="0.56">
<g opacity="0.56">
<path opacity="0.56" d="M1706.69 1107.36L1420.12 939.613C1416.19 937.383 1413.04 932.268 1413.04 928.334C1413.04 924.399 1416.19 923.087 1420.12 925.448L1706.69 1093.2C1710.63 1095.43 1713.78 1100.54 1713.78 1104.48C1713.78 1108.28 1710.63 1109.59 1706.69 1107.36Z" fill="#868E8E"/>
<path opacity="0.56" d="M1706.69 1056.87L1420.12 889.118C1416.19 886.889 1413.04 881.773 1413.04 877.839C1413.04 873.904 1416.19 872.593 1420.12 874.953L1706.69 1042.7C1710.63 1044.93 1713.78 1050.05 1713.78 1053.98C1713.78 1057.78 1710.63 1059.1 1706.69 1056.87Z" fill="#868E8E"/>
<path opacity="0.56" d="M1706.69 1148.41L1420.12 980.665C1416.19 978.435 1413.04 973.32 1413.04 969.385C1413.04 965.451 1416.19 964.139 1420.12 966.5L1706.69 1134.25C1710.63 1136.48 1713.78 1141.59 1713.78 1145.53C1713.78 1149.33 1710.63 1150.64 1706.69 1148.41Z" fill="#868E8E"/>
</g>
</g>
<path d="M1245.29 880.068L1081.21 786.686C1067.57 778.947 1056.29 761.373 1056.29 747.732C1056.29 734.092 1067.44 729.24 1081.21 736.978L1245.29 830.36C1258.93 838.098 1270.21 855.673 1270.21 869.314C1270.21 883.085 1258.93 887.938 1245.29 880.068Z" fill="url(#paint34_linear_27_164)"/>
<path d="M1733.71 981.583L1413.17 797.047V546.671L1733.71 731.076V981.583Z" fill="#FCFFFF"/>
<path d="M1432.58 782.357V583.788L1714.17 745.765V944.334L1432.58 782.357Z" fill="#DADBE0"/>
<path d="M1432.58 733.305L1493.04 696.188L1559.14 804.392L1636.92 734.617L1714.17 874.822V944.335L1432.58 782.358V733.305Z" fill="#2D2F4F"/>
<path d="M1471.66 491.192L1307.59 397.809C1293.95 390.071 1282.67 372.496 1282.67 358.856C1282.67 345.216 1293.82 340.363 1307.59 348.101L1471.66 441.484C1485.3 449.222 1496.58 466.797 1496.58 480.437C1496.58 494.209 1485.44 499.061 1471.66 491.192Z" fill="white"/>
<path d="M1974.91 637.43L2565.37 981.583C2583.99 992.468 2595.4 1012.27 2595.4 1033.78V1775.07C2595.4 1792.52 2576.52 1803.4 2561.43 1794.62L1960.35 1444.3C1946.58 1436.3 1938.18 1421.48 1938.18 1405.61V658.547C1938.18 639.66 1958.64 627.856 1974.91 637.43Z" fill="url(#paint35_linear_27_164)"/>
<path d="M1947.63 651.071L2538.09 995.223C2556.71 1006.11 2568.12 1025.91 2568.12 1047.42V1788.71C2568.12 1806.16 2549.24 1817.04 2534.15 1808.26L1933.2 1457.94C1919.43 1449.94 1911.03 1435.12 1911.03 1419.25V672.187C1910.9 653.3 1931.36 641.496 1947.63 651.071Z" fill="#2D2F4F"/>
<path d="M2545.43 1141.2V1788.58L1944.61 1438.27C1937.79 1434.33 1933.72 1426.99 1933.72 1419.25V765.832C1933.72 764.127 1935.43 763.995 1935.43 763.995C1935.56 763.995 1935.82 763.995 1936.35 764.258L2526.81 1108.41C2538.35 1115.36 2545.43 1127.82 2545.43 1141.2Z" fill="url(#paint36_linear_27_164)"/>
<path d="M2089.93 1047.16L2127.57 1055.42C2129.8 1048.08 2132.82 1041.52 2136.49 1035.88L2118.26 985.255L2125.34 978.828C2129.02 975.418 2133.21 973.057 2137.93 971.615L2147.11 968.86L2181.87 1010.04C2188.69 1009.78 2195.9 1010.44 2203.38 1012.27L2215.18 975.812L2226.6 980.664C2229.61 981.976 2232.5 983.419 2235.51 985.124C2238.53 986.829 2241.42 988.796 2244.43 990.894L2255.84 999.288L2267.38 1049.26C2274.86 1056.21 2282.07 1063.82 2288.89 1071.95L2323.78 1071.03L2332.96 1084.41C2337.68 1091.23 2341.88 1098.57 2345.55 1106.18L2352.5 1120.74L2334.01 1150.25C2337.68 1160.22 2340.57 1170.18 2342.8 1180.15L2380.31 1215.3L2381.75 1229.34C2382.54 1236.55 2382.54 1243.5 2381.75 1249.8L2380.18 1261.99L2342.54 1253.73C2340.31 1261.07 2337.29 1267.63 2333.62 1273.27L2351.85 1323.9L2344.77 1330.32C2341.09 1333.73 2336.9 1336.1 2332.18 1337.54L2322.99 1340.29L2288.24 1299.11C2281.42 1299.37 2274.2 1298.72 2266.73 1296.88L2254.92 1333.34L2243.51 1328.49C2240.63 1327.18 2237.61 1325.73 2234.6 1324.03C2231.58 1322.32 2228.69 1320.36 2225.68 1318.26L2214.27 1309.86L2202.72 1259.89C2195.25 1252.94 2188.04 1245.34 2181.22 1237.2L2146.33 1238.12L2137.28 1224.74C2132.56 1217.79 2128.36 1210.58 2124.69 1202.97L2117.74 1188.41L2136.23 1158.9C2132.56 1148.94 2129.54 1138.97 2127.44 1129L2089.93 1093.85L2088.49 1079.82C2087.7 1072.6 2087.7 1065.65 2088.49 1059.36L2089.93 1047.16ZM2234.73 1250.84C2281.02 1277.6 2318.54 1256.09 2318.8 1202.84C2318.93 1149.59 2281.55 1084.8 2235.38 1058.05C2189.08 1031.29 2151.57 1052.8 2151.31 1106.05C2151.05 1159.3 2188.43 1224.09 2234.73 1250.84Z" fill="#2D2F4F"/>
<path d="M2446.28 1611.13L1998.38 1354.33C1987.5 1348.03 1978.58 1334 1978.58 1323.11V1309.08C1978.58 1298.19 1987.5 1294.39 1998.38 1300.68L2446.28 1557.49C2457.17 1563.78 2466.08 1577.82 2466.08 1588.7V1602.73C2466.08 1613.49 2457.17 1617.29 2446.28 1611.13Z" fill="url(#paint37_linear_27_164)"/>
<path d="M2018.98 1353.54L1997.86 1341.6V1313.54L2018.98 1325.6V1353.54Z" fill="white"/>
<path d="M2052.29 1372.69L2031.3 1360.62V1332.69L2052.29 1344.75V1372.69Z" fill="white"/>
<path d="M2085.6 1391.84L2064.62 1379.77V1351.7L2085.6 1363.77V1391.84Z" fill="white"/>
<path d="M2119.05 1410.99L2097.93 1398.92V1370.85L2119.05 1382.92V1410.99Z" fill="white"/>
<path d="M2152.36 1430.13L2131.38 1418.07V1390L2152.36 1402.07V1430.13Z" fill="white"/>
<path d="M2185.67 1449.28L2164.69 1437.22V1409.15L2185.67 1421.22V1449.28Z" fill="white"/>
<path d="M2218.99 1468.3L2198 1456.23V1428.3L2218.99 1440.36V1468.3Z" fill="white"/>
<path d="M1246.86 1674.61C1246.86 1674.61 1237.55 1709.1 1239.91 1723.14C1242.4 1737.17 1255.52 1768.78 1268.37 1765.37C1281.36 1762.09 1296.18 1756.19 1297.1 1735.46C1297.88 1714.74 1288.7 1661.1 1288.7 1661.1L1246.86 1674.61Z" fill="#FFBDBD"/>
<path d="M1400.71 2201.07C1400.71 2201.07 1399.66 2222.84 1400.71 2227.69C1401.76 2232.41 1435.07 2253.66 1451.07 2245C1467.07 2236.35 1564 2185.72 1564.78 2173.26C1565.7 2160.67 1550.88 2141.65 1532.78 2142.96C1514.55 2144.28 1441.89 2168.67 1441.89 2168.67L1400.71 2201.07Z" fill="#1D2035"/>
<path d="M1280.57 2114.77C1280.57 2114.77 1273.75 2148.47 1276.24 2151.1C1278.87 2153.72 1306.93 2172.34 1315.98 2168.01C1325.03 2163.69 1390.87 2103.09 1390.87 2090.63C1390.87 2078.04 1374.48 2066.89 1352.84 2078.04C1331.33 2089.19 1280.57 2114.77 1280.57 2114.77Z" fill="#1D2035"/>
<path d="M1298.54 1633.16C1298.54 1633.16 1271 1689.56 1284.11 1735.07C1297.23 1780.45 1297.23 1785.83 1297.23 1785.83V1905.97C1297.23 1905.97 1278.73 1942.17 1274.93 1994.5C1271.13 2046.83 1274.93 2107.68 1274.93 2107.68C1274.93 2107.68 1283.46 2123.03 1302.6 2124.6C1321.88 2126.18 1341.16 2109.91 1341.16 2109.91C1341.16 2109.91 1347.33 1982.04 1366.61 1929.71C1385.89 1877.37 1409.76 1696.38 1409.76 1696.38L1298.54 1633.16Z" fill="#1D2035"/>
<path d="M1333.43 1661.36C1333.43 1661.36 1337.23 1751.73 1358.21 1782.42C1379.33 1813.11 1395.59 1826.49 1395.59 1826.49L1409.63 1952.79C1409.63 1952.79 1395.59 2012.07 1395.59 2068.6C1395.59 2125.13 1395.59 2192.02 1395.59 2192.02C1395.59 2192.02 1402.28 2214.05 1431.01 2214.05C1459.73 2214.05 1477.96 2189.13 1477.96 2189.13C1477.96 2189.13 1472.19 2012.07 1493.3 1957.51C1514.42 1902.95 1497.5 1648.11 1497.5 1648.11C1497.5 1648.11 1420.91 1694.28 1333.43 1661.36Z" fill="#2D2F4F"/>
<path d="M1266.8 1305.27C1266.8 1305.27 1220.76 1505.16 1223.91 1530.21C1227.06 1555.26 1235.32 1685.63 1235.32 1685.63C1235.32 1685.63 1251.98 1695.72 1272.18 1692.18C1292.37 1688.64 1298.41 1668.31 1298.41 1668.31V1481.02L1266.8 1305.27Z" fill="url(#paint38_linear_27_164)"/>
<path d="M1462.22 1208.48C1462.22 1208.48 1467.47 1213.86 1466.02 1226.84C1464.58 1239.83 1457.37 1267.37 1449.5 1272.35C1441.63 1277.34 1424.97 1276.55 1424.97 1276.55L1416.58 1338.85L1332.64 1275.9L1348.64 1207.04C1348.64 1207.04 1426.42 1187.23 1427.73 1187.23C1429.04 1187.23 1462.22 1208.48 1462.22 1208.48Z" fill="#FFBDBD"/>
<path d="M1473.76 1148.81C1495.53 1186.84 1476.65 1211.76 1454.09 1222.12C1431.66 1232.48 1426.81 1235.89 1426.81 1235.89C1426.81 1235.89 1435.33 1213.07 1417.23 1206.91C1399.13 1200.74 1414.48 1237.99 1402.02 1247.3C1389.56 1256.62 1366.61 1261.47 1346.8 1246.65C1327 1231.7 1314.41 1158.12 1341.16 1134.25C1367.92 1110.38 1444.78 1098.44 1473.76 1148.81Z" fill="#1D2035"/>
<path d="M1342.87 1286.39C1342.87 1286.39 1411.59 1301.21 1417.5 1314.45C1423.4 1327.7 1505.63 1377.67 1505.63 1377.67L1497.24 1647.98C1497.24 1647.98 1442.42 1690.87 1378.15 1684.84C1313.88 1678.94 1283.72 1645.36 1283.72 1645.36C1283.72 1645.36 1285.29 1489.55 1275.85 1449.02C1266.41 1408.49 1247.26 1343.57 1261.55 1313.54C1275.85 1283.63 1342.87 1286.39 1342.87 1286.39Z" fill="url(#paint39_linear_27_164)"/>
<path d="M1364.64 1131.49C1364.64 1131.49 1379.72 1135.17 1380.38 1159.95C1381.04 1184.61 1359.13 1193.27 1359.13 1193.27L1349.16 1193.14C1349.16 1193.14 1365.03 1242.19 1352.71 1288.49C1340.38 1334.78 1251.59 1333.6 1251.59 1333.6C1251.59 1333.6 1294.87 1307.11 1294.87 1261.21C1294.87 1215.3 1282.67 1161 1304.7 1136.08C1326.74 1111.03 1364.64 1131.49 1364.64 1131.49Z" fill="#1D2035"/>
<path d="M1358.61 1331.64C1362.67 1326.52 1677.18 1148.67 1677.18 1148.67C1677.18 1148.67 1699.35 1046.24 1773.72 1016.99C1848.08 987.747 1891.23 1054.11 1891.23 1054.11L1811.09 1097.39C1805.32 1100.54 1801.78 1106.57 1801.78 1113.13V1164.81C1801.78 1176.22 1813.85 1183.56 1824.08 1178.32L1896.35 1140.81C1896.35 1140.81 1893.33 1218.32 1826.05 1245.73C1758.76 1273.27 1711.15 1257.27 1711.15 1257.27L1386.94 1431.05C1386.94 1431.05 1389.69 1510.4 1293.82 1539.52C1197.94 1568.63 1186.66 1516.17 1186.66 1516.17L1244.24 1484.69C1251.59 1480.63 1256.18 1473.02 1256.18 1464.63V1415.05C1256.18 1406.92 1247.91 1401.41 1240.44 1404.69L1185.61 1438.66L1171.97 1434.2C1171.97 1434.2 1170.01 1333.87 1248.31 1303.57C1326.47 1273.27 1358.61 1331.64 1358.61 1331.64Z" fill="url(#paint40_linear_27_164)"/>
<path d="M1909.85 1145.4C1909.85 1145.4 1906.84 1222.91 1839.56 1250.32C1772.27 1277.86 1724.53 1261.86 1724.53 1261.86L1667.48 1292.42L1593.25 1332.16L1504.06 1379.9L1447.14 1410.33L1400.32 1435.38C1400.32 1435.38 1403.07 1514.73 1307.19 1543.85C1211.32 1572.96 1200.04 1520.5 1200.04 1520.5L1257.62 1489.02C1264.96 1484.96 1269.55 1477.35 1269.55 1468.96V1419.38C1269.55 1411.25 1261.29 1405.74 1253.81 1409.02L1185.22 1438.4C1185.22 1438.4 1183.25 1338.06 1261.55 1307.77C1339.98 1277.6 1372.12 1335.96 1372.12 1335.96C1376.05 1330.85 1690.69 1153 1690.69 1153C1690.69 1153 1712.86 1050.57 1787.22 1021.32C1861.59 992.206 1904.74 1058.44 1904.74 1058.44L1824.6 1101.72C1818.83 1104.87 1815.29 1110.9 1815.29 1117.46V1169.14C1815.29 1180.55 1827.36 1187.89 1837.59 1182.64L1909.85 1145.4Z" fill="url(#paint41_linear_27_164)"/>
<path d="M1402.28 1360.1L1688.73 1195.5C1695.15 1191.82 1703.15 1196.42 1703.15 1203.89V1206.12C1703.15 1213.47 1699.22 1220.15 1692.92 1223.83L1410.28 1386.2C1402.55 1390.66 1392.97 1385.02 1392.97 1376.1C1392.97 1369.54 1396.51 1363.38 1402.28 1360.1Z" fill="url(#paint42_linear_27_164)"/>
<path d="M1634.3 1276.29C1604.52 1278.78 1599.8 1276.29 1599.8 1276.29C1599.8 1276.29 1597.31 1301.73 1593.25 1332.29C1587.34 1377.54 1578.03 1433.68 1568.85 1433.68C1556.91 1433.68 1520.06 1396.69 1504.19 1380.03L1447.27 1410.46C1443.86 1423.45 1446.74 1439.32 1460.38 1457.41C1496.19 1505.02 1598.62 1561.03 1620.13 1539.65C1636.92 1522.86 1658.95 1360.88 1667.61 1292.42C1669.97 1273.8 1671.28 1262.12 1671.28 1262.12C1671.28 1262.12 1664.07 1273.8 1634.3 1276.29Z" fill="url(#paint43_linear_27_164)"/>
<path d="M1607.28 1277.34C1607.28 1277.34 1589.57 1263.7 1589.18 1245.99C1588.79 1228.42 1589.18 1222.38 1589.18 1222.38C1589.18 1222.38 1599.28 1209.66 1604.52 1225.14C1609.77 1240.61 1622.76 1241.79 1625.25 1217.53C1627.74 1193.14 1605.57 1159.95 1619.87 1153.26C1634.17 1146.71 1657.77 1165.86 1662.63 1197.2C1667.61 1228.42 1666.56 1266.58 1666.56 1266.58C1666.56 1266.58 1640.72 1290.58 1607.28 1277.34Z" fill="#FFBDBD"/>
<path d="M943.894 908.66C943.894 908.66 978.126 899.348 997.537 895.545C1016.95 891.741 1029.41 890.167 1029.41 890.167V913.644C1029.41 913.644 1059.31 899.217 1068.36 913.644C1077.41 928.071 1080.43 955.614 1049.08 961.254C1017.74 966.893 996.094 963.877 984.421 957.975C972.749 952.073 935.501 957.975 935.501 957.975C935.501 957.975 915.04 924.006 943.894 908.66Z" fill="#FFBDBD"/>
<path d="M556.855 1668.97V1992.66C541.903 1992.4 527.082 1988.46 513.967 1980.72L19.5105 1690.61C7.18187 1683.4 0.886408 1671.2 0.230631 1658.61H0.0994873V1645.1L556.855 1668.97Z" fill="#BEC2CC"/>
<path opacity="0.17" d="M513.835 2037.25L19.5105 1747.14C-6.72062 1731.79 -6.4583 1693.76 20.0351 1678.8L447.602 1435.64C467.931 1424.1 492.719 1424.23 512.917 1436.04L1033.47 1741.76C1052.62 1753.04 1052.49 1780.84 1033.08 1791.86L600.66 2037.91C573.642 2053.25 540.591 2052.99 513.835 2037.25Z" fill="#2D2F4F"/>
<path d="M1047.77 1690.08V1706.74H1047.38C1048.69 1717.76 1044.1 1729.04 1033.21 1735.33L600.66 1981.25C587.02 1988.99 571.937 1992.79 556.854 1992.53V1668.84L1047.77 1690.08Z" fill="#9CA1B7"/>
<path d="M513.835 1960.26L19.5105 1670.15C-6.72062 1654.8 -6.4583 1616.77 20.0351 1601.82L447.602 1358.65C467.931 1347.11 492.719 1347.24 512.917 1359.05L1033.74 1664.64C1052.88 1675.92 1052.75 1703.72 1033.34 1714.74L600.66 1960.92C573.642 1976.13 540.591 1976 513.835 1960.26Z" fill="url(#paint44_linear_27_164)"/>
<path d="M557.773 1955.81C545.313 1955.81 532.984 1952.4 522.098 1946.1L27.7733 1655.98C20.5598 1651.79 16.3628 1644.31 16.3628 1635.92C16.3628 1627.52 20.8221 1620.18 28.0356 1615.98L408.78 1395.51C416.125 1391.31 424.519 1389.08 432.913 1389.08C441.569 1389.08 450.094 1391.44 457.701 1395.77L978.519 1701.36C984.159 1704.64 984.815 1710.15 984.684 1712.25C984.684 1714.48 984.028 1719.86 978.257 1723.14L592.398 1946.49C581.905 1952.66 569.97 1955.81 557.773 1955.81Z" fill="url(#paint45_linear_27_164)"/>
<g opacity="0.56">
<g opacity="0.56">
<path opacity="0.56" d="M499.408 1587.26L355.793 1509.61C353.826 1508.57 355.006 1506.2 358.285 1504.37C361.564 1502.53 365.892 1502.01 367.859 1503.06L511.475 1580.83C513.442 1581.88 512.262 1584.24 508.983 1586.08C505.704 1587.78 501.376 1588.31 499.408 1587.26Z" fill="#868E8E"/>
<path opacity="0.56" d="M542.69 1563.91L399.074 1486.14C397.107 1485.09 398.288 1482.73 401.566 1480.89C404.845 1479.06 409.173 1478.53 411.141 1479.58L554.756 1557.35C556.723 1558.4 555.543 1560.76 552.264 1562.6C548.985 1564.31 544.657 1564.96 542.69 1563.91Z" fill="#868E8E"/>
<path opacity="0.56" d="M464.259 1606.28L320.644 1528.5C318.676 1527.45 319.857 1525.09 323.135 1523.25C326.414 1521.42 330.743 1520.89 332.71 1521.94L476.325 1599.72C478.292 1600.77 477.112 1603.13 473.833 1604.96C470.554 1606.8 466.226 1607.33 464.259 1606.28Z" fill="#868E8E"/>
</g>
</g>
<g opacity="0.56">
<g opacity="0.56">
<path opacity="0.56" d="M527.214 1818.62L383.598 1740.84C381.631 1739.79 382.811 1737.43 386.09 1735.6C389.369 1733.76 393.697 1733.23 395.665 1734.28L539.28 1812.06C541.247 1813.11 540.067 1815.47 536.788 1817.31C533.509 1819.01 529.181 1819.67 527.214 1818.62Z" fill="#868E8E"/>
<path opacity="0.56" d="M570.495 1795.27L426.88 1717.5C424.912 1716.45 426.093 1714.09 429.372 1712.25C432.65 1710.41 436.979 1709.89 438.946 1710.94L582.561 1788.71C584.529 1789.76 583.348 1792.12 580.069 1793.96C576.79 1795.66 572.462 1796.32 570.495 1795.27Z" fill="#868E8E"/>
<path opacity="0.56" d="M492.064 1837.63L348.449 1759.86C346.481 1758.81 347.662 1756.45 350.941 1754.61C354.219 1752.78 358.548 1752.25 360.515 1753.3L504.13 1831.08C506.097 1832.13 504.917 1834.49 501.638 1836.32C498.359 1838.03 494.031 1838.68 492.064 1837.63Z" fill="#868E8E"/>
</g>
</g>
<path d="M215.85 1683.92L131.255 1640.64C124.173 1637.1 127.976 1628.83 139.78 1622.54C151.453 1616.24 166.798 1614.01 173.881 1617.56L258.476 1660.84C265.558 1664.38 261.755 1672.64 249.951 1678.94C238.278 1685.23 222.933 1687.46 215.85 1683.92Z" fill="url(#paint46_linear_27_164)"/>
<path d="M640.138 1780.19L476.587 1694.81L667.287 1591.06L830.838 1676.44L640.138 1780.19Z" fill="#FCFFFF"/>
<path d="M508.852 1687.99L655.09 1608.24L798.705 1683.26L652.467 1763.01L508.852 1687.99Z" fill="#DADBE0"/>
<path d="M550.821 1665.16L643.286 1647.98L616.793 1698.08L754.768 1665.82L712.011 1730.74L652.467 1763.01L508.852 1687.99L550.821 1665.16Z" fill="#2D2F4F"/>
<path d="M556.854 1611.65V1935.35C541.903 1935.08 527.082 1931.15 513.967 1923.41L19.5104 1633.29C7.18175 1626.08 0.886286 1613.88 0.230509 1601.29H0.0993652V1587.78L556.854 1611.65Z" fill="#BEC2CC"/>
<path d="M1047.77 1632.77V1649.43H1047.38C1048.69 1660.44 1044.1 1671.72 1033.21 1678.02L600.66 1924.07C587.02 1931.8 571.937 1935.61 556.854 1935.35V1611.65L1047.77 1632.77Z" fill="#9CA1B7"/>
<path d="M513.835 1902.95L19.5105 1612.83C-6.72062 1597.49 -6.4583 1559.45 20.0351 1544.5L447.602 1301.34C467.931 1289.8 492.719 1289.93 512.917 1301.73L1033.74 1607.33C1052.88 1618.6 1052.75 1646.41 1033.34 1657.43L600.66 1903.61C573.642 1918.82 540.591 1918.69 513.835 1902.95Z" fill="url(#paint47_linear_27_164)"/>
<path d="M557.773 1898.49C545.313 1898.49 532.984 1895.08 522.098 1888.79L27.7732 1598.8C20.5596 1594.6 16.3627 1587.13 16.3627 1578.73C16.3627 1570.34 20.8219 1562.99 28.0355 1558.8L408.78 1338.33C416.125 1334.13 424.519 1331.9 432.913 1331.9C441.569 1331.9 450.094 1334.26 457.701 1338.59L978.519 1644.18C984.159 1647.46 984.815 1652.97 984.684 1655.07C984.684 1657.3 984.028 1662.67 978.257 1665.95L592.398 1889.31C581.905 1895.34 569.97 1898.49 557.773 1898.49Z" fill="url(#paint48_linear_27_164)"/>
<g opacity="0.56">
<g opacity="0.56">
<path opacity="0.56" d="M499.408 1529.94L355.793 1452.17C353.826 1451.12 355.006 1448.76 358.285 1446.92C361.564 1445.09 365.892 1444.56 367.859 1445.61L511.475 1523.39C513.442 1524.44 512.262 1526.8 508.983 1528.63C505.704 1530.47 501.376 1530.99 499.408 1529.94Z" fill="#868E8E"/>
<path opacity="0.56" d="M542.69 1506.6L399.074 1428.82C397.107 1427.77 398.288 1425.41 401.566 1423.58C404.845 1421.74 409.173 1421.22 411.141 1422.26L554.756 1500.04C556.723 1501.09 555.543 1503.45 552.264 1505.29C548.985 1506.99 544.657 1507.65 542.69 1506.6Z" fill="#868E8E"/>
<path opacity="0.56" d="M464.259 1548.96L320.644 1471.19C318.676 1470.14 319.857 1467.78 323.135 1465.94C326.414 1464.1 330.743 1463.58 332.71 1464.63L476.325 1542.4C478.292 1543.45 477.112 1545.81 473.833 1547.65C470.554 1549.49 466.226 1550.01 464.259 1548.96Z" fill="#868E8E"/>
</g>
</g>
<g opacity="0.56">
<g opacity="0.56">
<path opacity="0.56" d="M527.214 1761.3L383.598 1683.53C381.631 1682.48 382.811 1680.12 386.09 1678.28C389.369 1676.44 393.697 1675.92 395.665 1676.97L539.28 1754.74C541.247 1755.79 540.067 1758.15 536.788 1759.99C533.509 1761.83 529.181 1762.35 527.214 1761.3Z" fill="#868E8E"/>
<path opacity="0.56" d="M570.495 1737.96L426.88 1660.18C424.912 1659.13 426.093 1656.77 429.372 1654.93C432.65 1653.1 436.979 1652.57 438.946 1653.62L582.561 1731.4C584.529 1732.45 583.348 1734.81 580.069 1736.64C576.79 1738.35 572.462 1739.01 570.495 1737.96Z" fill="#868E8E"/>
<path opacity="0.56" d="M492.064 1780.32L348.449 1702.54C346.481 1701.49 347.662 1699.13 350.941 1697.3C354.219 1695.46 358.548 1694.94 360.515 1695.99L504.13 1773.76C506.097 1774.81 504.917 1777.17 501.638 1779.01C498.359 1780.84 494.031 1781.37 492.064 1780.32Z" fill="#868E8E"/>
</g>
</g>
<path d="M215.85 1626.6L131.255 1583.32C124.173 1579.78 127.976 1571.52 139.78 1565.22C151.453 1558.93 166.798 1556.7 173.881 1560.24L258.476 1603.52C265.558 1607.06 261.755 1615.33 249.951 1621.62C238.278 1627.92 222.933 1630.15 215.85 1626.6Z" fill="url(#paint49_linear_27_164)"/>
<path d="M640.138 1722.87L476.587 1637.49L667.287 1533.75L830.838 1619.13L640.138 1722.87Z" fill="#FCFFFF"/>
<path d="M508.852 1630.67L655.09 1550.93L798.705 1625.95L652.467 1705.69L508.852 1630.67Z" fill="#DADBE0"/>
<path d="M550.821 1607.85L643.286 1590.67L616.793 1640.77L754.768 1608.51L712.011 1673.43L652.467 1705.69L508.852 1630.67L550.821 1607.85Z" fill="#2D2F4F"/>
<path opacity="0.17" d="M1418.55 2311.63C1562.98 2311.63 1680.07 2253.67 1680.07 2182.18C1680.07 2110.69 1562.98 2052.73 1418.55 2052.73C1274.11 2052.73 1157.02 2110.69 1157.02 2182.18C1157.02 2253.67 1274.11 2311.63 1418.55 2311.63Z" fill="#2D2F4F"/>
<defs>
<linearGradient id="paint0_linear_27_164" x1="352.32" y1="1072.2" x2="413.908" y2="1293.12" gradientUnits="userSpaceOnUse">
<stop stop-color="#AC38A0"/>
<stop offset="1" stop-color="#5F637A"/>
</linearGradient>
<linearGradient id="paint1_linear_27_164" x1="657.732" y1="1055.29" x2="17.2399" y2="1573.87" gradientUnits="userSpaceOnUse">
<stop stop-color="#FFAC06"/>
<stop offset="0.9901" stop-color="#ED3333"/>
</linearGradient>
<linearGradient id="paint2_linear_27_164" x1="632.365" y1="1023.96" x2="-8.12656" y2="1542.54" gradientUnits="userSpaceOnUse">
<stop stop-color="#FFAC06"/>
<stop offset="0.9901" stop-color="#ED3333"/>
</linearGradient>
<linearGradient id="paint3_linear_27_164" x1="606.998" y1="992.627" x2="-33.4942" y2="1511.21" gradientUnits="userSpaceOnUse">
<stop stop-color="#FFAC06"/>
<stop offset="0.9901" stop-color="#ED3333"/>
</linearGradient>
<linearGradient id="paint4_linear_27_164" x1="581.63" y1="961.296" x2="-58.8615" y2="1479.88" gradientUnits="userSpaceOnUse">
<stop stop-color="#FFAC06"/>
<stop offset="0.9901" stop-color="#ED3333"/>
</linearGradient>
<linearGradient id="paint5_linear_27_164" x1="556.263" y1="929.965" x2="-84.2278" y2="1448.55" gradientUnits="userSpaceOnUse">
<stop stop-color="#FFAC06"/>
<stop offset="0.9901" stop-color="#ED3333"/>
</linearGradient>
<linearGradient id="paint6_linear_27_164" x1="71.6639" y1="776.772" x2="503.219" y2="776.772" gradientUnits="userSpaceOnUse">
<stop stop-color="#B78248"/>
<stop offset="1" stop-color="#FCBD4C"/>
</linearGradient>
<linearGradient id="paint7_linear_27_164" x1="100.924" y1="796.278" x2="532.479" y2="796.278" gradientUnits="userSpaceOnUse">
<stop stop-color="#B78248"/>
<stop offset="1" stop-color="#D5A563"/>
</linearGradient>
<linearGradient id="paint8_linear_27_164" x1="293.857" y1="540.956" x2="532.479" y2="540.956" gradientUnits="userSpaceOnUse">
<stop stop-color="#B78248"/>
<stop offset="1" stop-color="#FCBD4C"/>
</linearGradient>
<linearGradient id="paint9_linear_27_164" x1="71.6649" y1="754.659" x2="309.328" y2="754.659" gradientUnits="userSpaceOnUse">
<stop stop-color="#B78248"/>
<stop offset="1" stop-color="#FCBD4C"/>
</linearGradient>
<linearGradient id="paint10_linear_27_164" x1="94.9013" y1="1121.12" x2="82.6305" y2="885.142" gradientUnits="userSpaceOnUse">
<stop stop-color="#C68F49"/>
<stop offset="1" stop-color="#FFE1AB"/>
</linearGradient>
<linearGradient id="paint11_linear_27_164" x1="120.471" y1="1119.79" x2="108.2" y2="883.813" gradientUnits="userSpaceOnUse">
<stop stop-color="#C68F49"/>
<stop offset="1" stop-color="#FFE1AB"/>
</linearGradient>
<linearGradient id="paint12_linear_27_164" x1="325.221" y1="923.491" x2="322.704" y2="626.475" gradientUnits="userSpaceOnUse">
<stop stop-color="#EEEFF0"/>
<stop offset="1" stop-color="#A4A8AF"/>
</linearGradient>
<linearGradient id="paint13_linear_27_164" x1="100.924" y1="1080.36" x2="138.352" y2="1080.36" gradientUnits="userSpaceOnUse">
<stop stop-color="#B78248"/>
<stop offset="1" stop-color="#FCBD4C"/>
</linearGradient>
<linearGradient id="paint14_linear_27_164" x1="214.671" y1="434.55" x2="365.238" y2="730.773" gradientUnits="userSpaceOnUse">
<stop stop-color="#EEEFF0"/>
<stop offset="1" stop-color="white"/>
</linearGradient>
<linearGradient id="paint15_linear_27_164" x1="273.357" y1="504.164" x2="270.646" y2="499.667" gradientUnits="userSpaceOnUse">
<stop stop-color="#3A4151"/>
<stop offset="1" stop-color="#272735"/>
</linearGradient>
<linearGradient id="paint16_linear_27_164" x1="319.533" y1="546.252" x2="316.74" y2="541.617" gradientUnits="userSpaceOnUse">
<stop stop-color="#3A4151"/>
<stop offset="1" stop-color="#272735"/>
</linearGradient>
<linearGradient id="paint17_linear_27_164" x1="319.533" y1="585.474" x2="316.739" y2="580.839" gradientUnits="userSpaceOnUse">
<stop stop-color="#3A4151"/>
<stop offset="1" stop-color="#272735"/>
</linearGradient>
<linearGradient id="paint18_linear_27_164" x1="319.533" y1="624.696" x2="316.739" y2="620.061" gradientUnits="userSpaceOnUse">
<stop stop-color="#3A4151"/>
<stop offset="1" stop-color="#272735"/>
</linearGradient>
<linearGradient id="paint19_linear_27_164" x1="319.533" y1="663.918" x2="316.739" y2="659.283" gradientUnits="userSpaceOnUse">
<stop stop-color="#3A4151"/>
<stop offset="1" stop-color="#272735"/>
</linearGradient>
<linearGradient id="paint20_linear_27_164" x1="319.533" y1="703.14" x2="316.739" y2="698.505" gradientUnits="userSpaceOnUse">
<stop stop-color="#3A4151"/>
<stop offset="1" stop-color="#272735"/>
</linearGradient>
<linearGradient id="paint21_linear_27_164" x1="138.352" y1="818.263" x2="569.907" y2="818.263" gradientUnits="userSpaceOnUse">
<stop stop-color="#B78248"/>
<stop offset="1" stop-color="#FCBD4C"/>
</linearGradient>
<linearGradient id="paint22_linear_27_164" x1="415.715" y1="1105.19" x2="368.433" y2="714.039" gradientUnits="userSpaceOnUse">
<stop stop-color="#C68F49"/>
<stop offset="1" stop-color="#FFE1AB"/>
</linearGradient>
<linearGradient id="paint23_linear_27_164" x1="360.545" y1="582.447" x2="599.166" y2="582.447" gradientUnits="userSpaceOnUse">
<stop stop-color="#B78248"/>
<stop offset="1" stop-color="#FCBD4C"/>
</linearGradient>
<linearGradient id="paint24_linear_27_164" x1="138.353" y1="796.15" x2="376.016" y2="796.15" gradientUnits="userSpaceOnUse">
<stop stop-color="#B78248"/>
<stop offset="1" stop-color="#D5A563"/>
</linearGradient>
<linearGradient id="paint25_linear_27_164" x1="159.257" y1="1117.77" x2="146.987" y2="881.797" gradientUnits="userSpaceOnUse">
<stop stop-color="#C68F49"/>
<stop offset="1" stop-color="#FFE1AB"/>
</linearGradient>
<linearGradient id="paint26_linear_27_164" x1="1417.72" y1="1652.74" x2="1417.72" y2="2398.68" gradientUnits="userSpaceOnUse">
<stop stop-color="#DDE0E0"/>
<stop offset="1" stop-color="#FCFFFF"/>
</linearGradient>
<linearGradient id="paint27_linear_27_164" x1="1021.64" y1="672.118" x2="973.632" y2="739.33" gradientUnits="userSpaceOnUse">
<stop stop-color="#FA06FF"/>
<stop offset="0.6027" stop-color="#F46221"/>
</linearGradient>
<linearGradient id="paint28_linear_27_164" x1="958.308" y1="771.493" x2="702.902" y2="800.298" gradientUnits="userSpaceOnUse">
<stop stop-color="#FF06D7"/>
<stop offset="0.6027" stop-color="#F46221"/>
</linearGradient>
<linearGradient id="paint29_linear_27_164" x1="842.325" y1="809.298" x2="715.582" y2="882.271" gradientUnits="userSpaceOnUse">
<stop stop-color="#FF06D7"/>
<stop offset="0.6027" stop-color="#F46221"/>
</linearGradient>
<linearGradient id="paint30_linear_27_164" x1="1639.1" y1="736.372" x2="1787.13" y2="1058.56" gradientUnits="userSpaceOnUse">
<stop stop-color="#DDDCDD"/>
<stop offset="0.2189" stop-color="#CAC9CA"/>
<stop offset="0.3378" stop-color="white"/>
<stop offset="0.5378" stop-color="#AAA9AA"/>
<stop offset="1" stop-color="#7A7879"/>
</linearGradient>
<linearGradient id="paint31_linear_27_164" x1="1393.54" y1="670.101" x2="1476.54" y2="848.156" gradientUnits="userSpaceOnUse">
<stop stop-color="#DDDCDD"/>
<stop offset="0.2189" stop-color="#CAC9CA"/>
<stop offset="0.3378" stop-color="white"/>
<stop offset="0.5378" stop-color="#AAA9AA"/>
<stop offset="1" stop-color="#7A7879"/>
</linearGradient>
<linearGradient id="paint32_linear_27_164" x1="1260" y1="1186.69" x2="1502.9" y2="460.531" gradientUnits="userSpaceOnUse">
<stop stop-color="#DADBE0"/>
<stop offset="0.9946" stop-color="white"/>
</linearGradient>
<linearGradient id="paint33_linear_27_164" x1="1025.1" y1="428.226" x2="1780.18" y2="428.226" gradientUnits="userSpaceOnUse">
<stop stop-color="#9538AC"/>
<stop offset="1" stop-color="#5F637A"/>
</linearGradient>
<linearGradient id="paint34_linear_27_164" x1="1056.38" y1="808.58" x2="1270.17" y2="808.58" gradientUnits="userSpaceOnUse">
<stop stop-color="#AA38AC"/>
<stop offset="1" stop-color="#5F637A"/>
</linearGradient>
<linearGradient id="paint35_linear_27_164" x1="2195.57" y1="1024.61" x2="2307.73" y2="1329.54" gradientUnits="userSpaceOnUse">
<stop stop-color="#DDDCDD"/>
<stop offset="0.2189" stop-color="#CAC9CA"/>
<stop offset="0.3378" stop-color="white"/>
<stop offset="0.5378" stop-color="#AAA9AA"/>
<stop offset="1" stop-color="#7A7879"/>
</linearGradient>
<linearGradient id="paint36_linear_27_164" x1="2189.77" y1="1558.86" x2="2286.94" y2="1009.13" gradientUnits="userSpaceOnUse">
<stop stop-color="#DADBE0"/>
<stop offset="0.9946" stop-color="white"/>
</linearGradient>
<linearGradient id="paint37_linear_27_164" x1="1978.6" y1="1455.85" x2="2466.06" y2="1455.85" gradientUnits="userSpaceOnUse">
<stop stop-color="#AA38AC"/>
<stop offset="1" stop-color="#5F637A"/>
</linearGradient>
<linearGradient id="paint38_linear_27_164" x1="1315.24" y1="1499.03" x2="1236.81" y2="1499.03" gradientUnits="userSpaceOnUse">
<stop stop-color="#AC38A7"/>
<stop offset="1" stop-color="#5F637A"/>
</linearGradient>
<linearGradient id="paint39_linear_27_164" x1="1525.05" y1="1494.45" x2="1248.9" y2="1479.75" gradientUnits="userSpaceOnUse">
<stop stop-color="#AC38A7"/>
<stop offset="1" stop-color="#5F637A"/>
</linearGradient>
<linearGradient id="paint40_linear_27_164" x1="1171.68" y1="1279.06" x2="1896.2" y2="1279.06" gradientUnits="userSpaceOnUse">
<stop stop-color="#A5A6B3"/>
<stop offset="0.9946" stop-color="#2D2F4F"/>
</linearGradient>
<linearGradient id="paint41_linear_27_164" x1="1581.81" y1="1350.67" x2="1532.3" y2="1248.74" gradientUnits="userSpaceOnUse">
<stop stop-color="#DADBE0"/>
<stop offset="1" stop-color="#F2F2F4"/>
</linearGradient>
<linearGradient id="paint42_linear_27_164" x1="1393" y1="1290.99" x2="1703.24" y2="1290.99" gradientUnits="userSpaceOnUse">
<stop stop-color="#C3C4CD"/>
<stop offset="1" stop-color="#4C4E69"/>
</linearGradient>
<linearGradient id="paint43_linear_27_164" x1="1445.91" y1="1403.26" x2="1671.24" y2="1403.26" gradientUnits="userSpaceOnUse">
<stop stop-color="#A338AC"/>
<stop offset="1" stop-color="#5F637A"/>
</linearGradient>
<linearGradient id="paint44_linear_27_164" x1="523.893" y1="1279.13" x2="523.893" y2="1881.15" gradientUnits="userSpaceOnUse">
<stop stop-color="#AC38A0"/>
<stop offset="1" stop-color="#5F637A"/>
</linearGradient>
<linearGradient id="paint45_linear_27_164" x1="500.531" y1="1324.5" x2="500.531" y2="1872.9" gradientUnits="userSpaceOnUse">
<stop stop-color="#DDE0E0"/>
<stop offset="1" stop-color="#FCFFFF"/>
</linearGradient>
<linearGradient id="paint46_linear_27_164" x1="127.741" y1="1650.73" x2="261.984" y2="1650.73" gradientUnits="userSpaceOnUse">
<stop stop-color="#AA38AC"/>
<stop offset="1" stop-color="#5F637A"/>
</linearGradient>
<linearGradient id="paint47_linear_27_164" x1="523.893" y1="1221.83" x2="523.893" y2="1823.85" gradientUnits="userSpaceOnUse">
<stop stop-color="#AC38A7"/>
<stop offset="1" stop-color="#5F637A"/>
</linearGradient>
<linearGradient id="paint48_linear_27_164" x1="500.531" y1="1267.2" x2="500.531" y2="1815.59" gradientUnits="userSpaceOnUse">
<stop stop-color="#DDE0E0"/>
<stop offset="1" stop-color="#FCFFFF"/>
</linearGradient>
<linearGradient id="paint49_linear_27_164" x1="127.741" y1="1593.43" x2="261.984" y2="1593.43" gradientUnits="userSpaceOnUse">
<stop stop-color="#AC38A0"/>
<stop offset="1" stop-color="#5F637A"/>
</linearGradient>
</defs>
</svg>
